<?xml version="1.0" encoding="UTF-8"?><svg id="Layer_2" xmlns="http://www.w3.org/2000/svg" viewBox="0 0 665.86 440.07"><defs><style>.cls-1{fill:#fff;}.cls-2{fill:none;stroke:#000;stroke-miterlimit:10;}.cls-3{fill:#dca353;}.cls-4{fill:#a0733f;}</style></defs><g><g><path class="cls-3" d="M558.73,334.47s-.07,.08-.11,.11c.04-.05,.08-.09,.11-.11Zm4.38,22.53c3.58-1.63,11.47-4.93,14.22-8.02,.61-1.16,.97-1.84,.97-1.84-.06,.59-.41,1.21-.97,1.84-2.99,5.63-12.13,22.45-15.89,25.24,3.47-2.08,25.07-15.37,27.41-24.69-.96,5.35-5.25,30.03-2.83,30.26,2.72,.26,13.44-28.76,12.62-33.62-.82-4.87,7.99-6.22,11.07-6.74,3.09-.52,55.65-41.88,55.65-52.77,0-7.25-.76-32.95-16.21-52.41-2.68-2.66-11.61-11.04-15-13.3-.22-.14-.44-.28-.66-.4-.03-.02-.07-.04-.1-.06-2.17-1.21-8.39-4.32-15.28-6.44-1.67-.48-3.39-.89-5.18-1.26-.04,0-.07-.01-.11-.02-2.09-.43-4.91-.75-8.19-.81h-.03c-6.03,.4-10.22,.68-13.62,1.21-2.36,.49-4.75,1.14-7.11,1.99-12.92,4.67-24.73,15.34-24.73,37.8,0,41.87,22.92,49.32,17.24,57.28-4.74,6.65-20.61,24.53-32.7,31.41,5.72-2.33,13.32-5.59,14.92-7.05-2.06,2.16-18.29,19.18-22.46,21.48,3.44-1.57,40.7-18.51,45.52-18.05l-40.78,21.73,15.71-7.17s-10.12,11.16-10.46,14.67,12.68-8.29,16.98-10.26Zm25.75-7.52c.07-.4,.12-.69,.15-.84-.03,.27-.08,.55-.15,.84Z"/><path class="cls-3" d="M590.98,213.17c.92-.19,1.84-.35,2.75-.49-2.14-.09-4.09-29.44-6.33-28.15-2.25,1.3-3.53,30.63-3.53,30.63,2.22-.96,4.41-1.55,7.11-1.99Z"/><path class="cls-3" d="M593.8,212.67c3.84-.6,7.54-.78,10.8-.71h.03c2.5-.17,5.24,.12,8.02,.68-2.01-2.15-1.05-27.8-4.83-29.98-3.92-2.27-11.83,29.43-14.02,30.01Z"/><path class="cls-3" d="M618.11,214.05c5.1,1.42,9.66,3.31,13.72,5.55h0c-1.96-1.13,2.99-33.68,0-35.41-2.93-1.69-15.88,27.16-18.71,28.55,1.67,.35,3.35,.8,4.99,1.31Z"/><path class="cls-3" d="M633.39,220.49s.07,.04,.1,.06c.07,.04,.14,.07,.2,.11,.14,.08,.29,.18,.46,.29,6.13,3.74,11.05,8.31,15,13.3l.04,.04c2.75,2.76,3.74-40.25,0-40.25s-15.41,26.68-17.36,25.55h0c.53,.29,1.05,.59,1.56,.9Z"/></g><g><path class="cls-2" d="M633.39,220.49c-.51-.31-1.03-.61-1.56-.89-4.06-2.24-8.62-4.13-13.72-5.55-1.67-.48-3.39-.89-5.18-1.26"/><path class="cls-2" d="M588.85,349.53c-.96,5.35-5.25,30.03-2.83,30.26,2.72,.26,13.44-28.76,12.62-33.62-.82-4.87,7.99-6.22,11.07-6.74,3.09-.52,55.65-41.88,55.65-52.77,0-7.25-.76-32.95-16.21-52.41-3.95-4.99-8.87-9.56-15-13.3-.22-.14-.44-.28-.66-.4"/><path class="cls-2" d="M589.03,348.51s-.01,.04-.02,.13c-.03,.15-.08,.44-.15,.84"/><path class="cls-2" d="M588.86,349.48c.07-.29,.12-.57,.15-.84"/><path class="cls-2" d="M588.86,349.48s0,.03-.01,.05"/><path class="cls-2" d="M561.44,374.22c3.47-2.08,25.07-15.37,27.41-24.69"/><path class="cls-2" d="M560.97,374.5s.01-.01,.02-.01c.05-.03,.18-.11,.39-.23"/><path class="cls-2" d="M561.38,374.26c-.14,.1-.27,.17-.39,.23"/><path class="cls-2" d="M561.38,374.26s.02-.01,.03-.02,.02-.02,.03-.02"/><path class="cls-2" d="M577.33,348.98c-2.99,5.63-12.13,22.45-15.89,25.24"/><path class="cls-2" d="M577.33,348.98c.56-.63,.91-1.25,.97-1.84,0,0-.36,.68-.97,1.84Z"/><path class="cls-2" d="M536.14,356.08c3.44-1.57,40.7-18.51,45.52-18.05l-40.78,21.73,15.71-7.17s-10.12,11.16-10.46,14.67,12.68-8.29,16.98-10.26c3.58-1.63,11.47-4.93,14.22-8.02"/><path class="cls-2" d="M558.6,334.6c-2.06,2.16-18.29,19.18-22.46,21.48-.02,.01-.03,.02-.05,.02-.06,.03-.12,.06-.17,.09-.02,.01-.03,.01-.03,.01"/><path class="cls-2" d="M558.81,334.37s0,.01-.01,.01c-.02,.02-.04,.04-.07,.09-.03,.02-.07,.06-.11,.11"/><path class="cls-2" d="M558.62,334.58s.07-.07,.11-.11"/><path class="cls-2" d="M558.62,334.58l-.02,.02"/><path class="cls-2" d="M543.68,341.65c5.72-2.33,13.32-5.59,14.92-7.05"/><path class="cls-2" d="M543.68,341.65c-2.39,1.37-4.64,2.31-6.62,2.64,0,0,2.92-1.12,6.62-2.64Z"/><path class="cls-2" d="M593.73,212.68c-.91,.14-1.83,.3-2.75,.49-2.36,.49-4.75,1.14-7.11,1.99-12.92,4.67-24.73,15.34-24.73,37.8,0,41.87,22.92,49.32,17.24,57.28-4.74,6.65-20.61,24.53-32.7,31.41"/><path class="cls-2" d="M604.6,211.96c-3.26-.07-6.96,.11-10.8,.71-.02,0-.04,0-.06,.01"/><path class="cls-2" d="M612.82,212.77c-2.09-.43-4.91-.75-8.19-.81"/><path class="cls-2" d="M583.87,215.16s1.28-29.33,3.53-30.63c2.24-1.29,4.19,28.06,6.33,28.15h.04s.02,0,.03-.01c2.19-.58,10.1-32.28,14.02-30.01,3.78,2.18,2.82,27.83,4.83,29.98,.05,.07,.11,.11,.17,.13,.04,.01,.07,.02,.11,.02,.06,0,.12-.02,.19-.05,2.83-1.39,15.78-30.24,18.71-28.55,2.99,1.73-1.96,34.28,0,35.4,1.95,1.13,13.61-25.55,17.36-25.55s2.75,43.01,0,40.25l-.04-.04c-2.68-2.66-11.61-11.04-15-13.3-.17-.11-.32-.21-.46-.29-.06-.04-.13-.07-.2-.11-.03-.02-.07-.04-.1-.06-2.17-1.21-8.39-4.32-15.28-6.44-1.64-.51-3.32-.96-4.99-1.31-.16-.04-.31-.07-.47-.1-2.78-.56-5.52-.85-8.02-.68h-.03c-6.03,.4-10.22,.68-13.62,1.21-2.7,.44-4.89,1.03-7.11,1.99Z"/></g></g><g><g><path d="M573.47,254.01c-.45,3.39-.72,7.11-.96,10.86,0,1.98,.66,4.25,1.75,6.6,.01,.04,.03,.08,.05,.12,2.94,5.9,8.52,11.88,9.43,12.84,.09,.08,.13,.13,.13,.13,8.1-4.67,9.57-10.5,9.57-18.79s-17.92-20.57-17.92-20.57c-.01,.02-.01,.03-.02,.05-.86,2.69-1.52,5.62-1.99,8.49-.02,.09-.03,.18-.04,.27Z"/><path class="cls-1" d="M575.52,245.2s17.92,12.27,17.92,20.57-1.47,14.12-9.57,18.79c3.14,3.04,6.2,5.08,8.04,5.08,10.21,0,12.26-20.94,12.26-27.61s-10.22-27.61-19.39-27.61c-4.34,0-7.33,4.78-9.26,10.78Z"/></g><g><path class="cls-2" d="M573.51,253.74c.47-2.87,1.13-5.8,1.99-8.49"/><path class="cls-2" d="M574.26,271.47c-1.09-2.35-1.75-4.62-1.75-6.6,0-2.81,.29-6.75,.96-10.86"/><path class="cls-2" d="M583.74,284.43c-3.6-3.5-7.3-8.3-9.43-12.84"/><path class="cls-2" d="M575.52,245.2c1.93-6,4.92-10.78,9.26-10.78,9.17,0,19.39,20.94,19.39,27.61s-2.05,27.61-12.26,27.61c-1.84,0-4.9-2.04-8.04-5.08"/><path class="cls-2" d="M575.52,245.2s17.92,12.27,17.92,20.57-1.47,14.12-9.57,18.79c0,0-.04-.05-.13-.13-.91-.96-6.49-6.94-9.43-12.84-.02-.04-.04-.08-.05-.12-1.15-2.32-1.88-4.62-1.75-6.6,.24-3.75,.51-7.47,.96-10.86,.01-.09,.02-.18,.04-.27,.44-3.25,1.06-6.18,1.99-8.49,.01-.02,.01-.03,.02-.05Z"/></g></g><g><g><path d="M615.14,267.43c0,.36,.01,.71,.02,1.05,.27,6.93,3.2,13.63,7.35,17.57,0,0,.01,.02,.02,.02,.05,.05,.08,.07,.08,.07,6.44,0,11.04-7.1,11.04-12.2s-12.58-26.39-12.58-26.39c-.03,.03-.06,.07-.08,.1-3.74,5.2-5.85,13.04-5.85,19.78Z"/><path class="cls-1" d="M621.07,247.55s12.58,21.28,12.58,26.39-4.6,12.2-11.04,12.2c0,0-.03-.02-.08-.07,2.34,2.23,5.08,3.57,7.93,3.57,17.22,0,15.07-18.64,15.07-23.87s-5.62-23.88-15.07-23.88c-3.78,0-6.99,2.29-9.47,5.76,.02-.03,.05-.07,.08-.1Z"/></g><g><path class="cls-2" d="M615.14,267.43c0-6.74,2.11-14.58,5.85-19.78,2.48-3.47,5.69-5.76,9.47-5.76,9.45,0,15.07,18.64,15.07,23.88s2.15,23.87-15.07,23.87c-2.85,0-5.59-1.34-7.93-3.57"/><path class="cls-2" d="M622.51,286.05c-4.15-3.94-7.08-10.64-7.35-17.57"/><path class="cls-2" d="M620.99,247.65s.05-.07,.08-.1c0,0,12.58,21.28,12.58,26.39s-4.6,12.2-11.04,12.2c0,0-.03-.02-.08-.07-.01,0-.02-.02-.02-.02-.87-.72-6.99-6.27-7.35-17.57-.01-.34-.02-.69-.02-1.05,0-12.74,3.52-17.13,5.85-19.78Z"/></g></g><g><path class="cls-4" d="M584.78,234.42c-9.17,0-12.27,21.26-12.27,30.45s14.29,24.77,19.4,24.77c10.21,0,12.26-20.94,12.26-27.61s-10.22-27.61-19.39-27.61Z"/><path class="cls-2" d="M591.91,289.64c-5.11,0-19.4-15.57-19.4-24.77s3.1-30.45,12.27-30.45,19.39,20.94,19.39,27.61-2.05,27.61-12.26,27.61Z"/></g><g><path class="cls-4" d="M630.46,242.97c-9.44,0-15.32,14.3-15.32,25.53s7.15,22.22,15.32,22.22c17.22,0,15.07-18.64,15.07-23.88s-5.62-23.87-15.07-23.87Z"/><path class="cls-2" d="M630.46,290.72c-8.17,0-15.32-10.98-15.32-22.22s5.88-25.53,15.32-25.53,15.07,18.64,15.07,23.87,2.15,23.88-15.07,23.88Z"/></g></svg>