<?xml version="1.0" encoding="UTF-8"?><svg id="Layer_2" xmlns="http://www.w3.org/2000/svg" viewBox="0 0 730.55 580.58"><defs><style>.cls-1,.cls-2{fill:none;stroke:#000;stroke-miterlimit:10;}.cls-3{fill:#dca353;}.cls-2{stroke-width:3px;}.cls-4{fill:#f0eeed;}.cls-5{fill:#faf9f8;}</style></defs><g><g><path class="cls-3" d="M64.55,574.98s-5.14-62.13-9.57-62.13S-4.43,463.63,.86,424.84c6.12-44.93,57.17-83.37,60.72-89.53,3.56-6.16,14.97-25.93,14.97-25.93l10.13,17.54s1.83-30.94,7.45-27.69c5.63,3.25,13.23,24.41,17.85,24.41s10.78-17.31,14.83-19.65c4.06-2.34,3.75,20.09,7.83,20.09s7.7-22.13,12.28-22.13,12.42,15.59,18.7,21.85c7.65,7.61,69.11,51.66,69.11,83.23,0,50.35-69.11,87.26-69.11,102.58s4.77,70.47,0,70.47-22.84-26.05-28.93-29.56c-6.1-3.52,.4,29.56-6.1,29.56s-21.48-29.56-25.22-29.56,0,22.22-3.75,22.22-7.95-26.76-12.59-29.44-24.48,31.68-24.48,31.68Zm100.34-128.01c10.5,0,28.31-16.34,28.31-32.92s-19.41-38.26-32.01-38.26-29.43,27.9-29.43,41.35,22.63,29.83,33.13,29.83Zm-83.69-8.35c13.47,0,30.98-21.61,30.98-31.59s-21.25-39.87-32.83-39.87c-14.29,0-29.13,28.07-29.13,39.87s17.5,31.59,30.98,31.59Z"/><path class="cls-5" d="M50.22,407.03c0-11.8,14.84-39.87,29.13-39.87,11.58,0,32.83,29.89,32.83,39.87s-17.51,31.59-30.98,31.59-30.98-19.78-30.98-31.59Zm30.98,14.6c10.89,0,15.67-9.04,15.67-16.55s-11.59-20.07-21.12-20.07-9.19,10.9-9.19,20.07,3.74,16.55,14.64,16.55Z"/><path d="M149.44,410.5c0-8.01,.35-15.35,9.54-15.35,6.47,0,20.43,8.47,20.43,16.32s-7.83,16.14-13.96,16.14-16.01-9.11-16.01-17.11Z"/><path class="cls-4" d="M158.98,395.15c-9.19,0-9.54,7.34-9.54,15.35s9.88,17.11,16.01,17.11,13.96-8.28,13.96-16.14-13.96-16.32-20.43-16.32Zm34.22,18.9c0,16.58-17.81,32.92-28.31,32.92s-33.13-16.38-33.13-29.83,17.47-41.35,29.43-41.35c12.6,0,32.01,21.67,32.01,38.26Z"/><path d="M96.87,405.08c0,7.51-4.78,16.55-15.67,16.55s-14.64-7.38-14.64-16.55-.49-20.07,9.19-20.07,21.12,12.56,21.12,20.07Z"/></g><g><path class="cls-1" d="M165.62,323.8c7.65,7.61,69.11,51.66,69.11,83.23,0,50.35-69.11,87.26-69.11,102.58s4.77,70.47,0,70.47-22.84-26.05-28.93-29.56c-6.1-3.52,.4,29.56-6.1,29.56s-21.48-29.56-25.22-29.56,0,22.22-3.75,22.22-7.95-26.76-12.59-29.44-24.48,31.68-24.48,31.68c0,0-5.14-62.13-9.57-62.13S-4.43,463.63,.86,424.84c6.12-44.93,57.17-83.37,60.72-89.53,3.56-6.16,14.97-25.93,14.97-25.93l10.13,17.54s1.83-30.94,7.45-27.69c5.63,3.25,13.23,24.41,17.85,24.41s10.78-17.31,14.83-19.65c4.06-2.34,3.75,20.09,7.83,20.09s7.7-22.13,12.28-22.13,12.42,15.59,18.7,21.85Z"/><path class="cls-1" d="M79.35,367.16c11.58,0,32.83,29.89,32.83,39.87s-17.51,31.59-30.98,31.59-30.98-19.78-30.98-31.59,14.84-39.87,29.13-39.87Z"/><path class="cls-1" d="M161.19,375.79c12.6,0,32.01,21.67,32.01,38.26s-17.81,32.92-28.31,32.92-33.13-16.38-33.13-29.83,17.47-41.35,29.43-41.35Z"/><path class="cls-1" d="M75.75,385.01c9.53,0,21.12,12.56,21.12,20.07s-4.78,16.55-15.67,16.55-14.64-7.38-14.64-16.55-.49-20.07,9.19-20.07Z"/><path class="cls-1" d="M158.98,395.15c6.47,0,20.43,8.47,20.43,16.32s-7.83,16.14-13.96,16.14-16.01-9.11-16.01-17.11,.35-15.35,9.54-15.35Z"/></g></g><path class="cls-2" d="M79.83,484.34c12.08-16.34,56.76-18.13,69.61,0"/></svg>