<?xml version="1.0" encoding="UTF-8"?><svg id="Layer_2" xmlns="http://www.w3.org/2000/svg" viewBox="0 0 403.49 493.25"><defs><style>.cls-1,.cls-2{fill:#fff;}.cls-3,.cls-4,.cls-5,.cls-6,.cls-2,.cls-7,.cls-8{stroke-miterlimit:10;}.cls-3,.cls-4,.cls-5,.cls-6,.cls-2,.cls-8{stroke:#000;}.cls-3,.cls-5,.cls-6,.cls-2,.cls-7,.cls-8{stroke-width:.25px;}.cls-3,.cls-9{fill:#379060;}.cls-4,.cls-8{fill:none;}.cls-6{fill:#c12f00;}.cls-7{fill:#686868;stroke:#686868;}.cls-10{fill:#00af2c;}.cls-11{fill:#024c01;}</style></defs><g id="Layer_1-2"><g id="Arms_L_upper"><g><g><path class="cls-9" d="M37.51,215.23c-1.27,1.59-2.52,3.57-1.89,5.05,.12,.26,.32,.56,.56,.88,1.08,1.34,3.02,2.95,3.11,4.15,.11,1.47,2.1,2.61,3.04,2.4,.94-.19,14.37-4.4,15.83-6.07s9.55-9.13,9.66-11.65c-.12-.11-.07-.39,.11-.79,.37-1.85,1.66-2.88,1.84-3l.02-.02s.51-3.72,0-3.94c-.49-.21-11.4,.72-17.79,3.14-6.41,2.42-13.22,8.28-14.47,9.85h-.02Z"/><path class="cls-9" d="M67.92,209.19c-.05,.25-.09,.51-.11,.79,.51,.42,7.64,1.38,9,0,1.38-1.36,6.73-7.03,7.24-8.07,.39-.78,2.65-3.72,3.8-5.21l.65-.85,.12-.16,3.64-5.17s-13.35,4.47-15.53,6.35c-2.21,1.89-4.52,6.18-5.56,7.45-.34,.39-.86,1.08-1.39,1.84l-.02,.02c-.72,1.06-1.5,2.24-1.84,3h0Z"/><path class="cls-9" d="M87.85,196.71c-.9,1.24-1.69,2.51-1.38,3,.53,.85,8.12,3.35,9.51,3.05,1.39-.32,6.11-3.78,6.85-4.94,.72-1.15,5.28-5.61,4.59-7.01-.71-1.38-2.26-3.58-2.24-5.05,0-1.47,.39-4.18,.39-4.18,0,0-6.73,1.36-9.87,4.71-1.36,1.43-2.49,2.91-3.44,4.24-1.24,1.77-2.15,3.27-2.75,4.04-.23,.32-.55,.71-.88,1.13l-.12,.16-.65,.85h-.01Z"/></g><g><path class="cls-8" d="M87.85,196.71c-.9,1.24-1.69,2.51-1.38,3,.53,.85,8.12,3.35,9.51,3.05,1.39-.32,6.11-3.78,6.85-4.94,.72-1.15,5.28-5.61,4.59-7.01-.71-1.38-2.26-3.58-2.24-5.05,0-1.47,.39-4.18,.39-4.18,0,0-6.73,1.36-9.87,4.71-1.36,1.43-2.49,2.91-3.44,4.24-1.24,1.77-2.15,3.27-2.75,4.04-.23,.32-.55,.71-.88,1.13"/><path class="cls-8" d="M69.76,206.19c-.72,1.06-1.5,2.24-1.84,3-.18,.41-.23,.69-.11,.79,.51,.42,7.64,1.38,9,0,1.38-1.36,6.73-7.03,7.24-8.07,.39-.78,2.65-3.72,3.8-5.21l.65-.85,.12-.16,3.64-5.17s-13.35,4.47-15.53,6.35c-2.21,1.89-4.52,6.18-5.56,7.45-.34,.39-.86,1.08-1.39,1.84"/><path class="cls-8" d="M69.77,206.17s.51-3.72,0-3.94c-.49-.21-11.4,.72-17.79,3.14-6.41,2.42-13.22,8.28-14.47,9.85-1.27,1.59-2.52,3.57-1.89,5.05,.12,.26,.32,.56,.56,.88,1.08,1.34,3.02,2.95,3.11,4.15,.11,1.47,2.1,2.61,3.04,2.4,.94-.19,14.37-4.4,15.83-6.07s9.55-9.13,9.66-11.65c.02-.28,.05-.55,.11-.79,.37-1.85,1.66-2.88,1.84-3l.02-.02h-.02Z"/></g></g></g><g id="Arms_L_lower"><path class="cls-3" d="M36.08,221.32s-5.13,6.56-4.97,11.98c.05,1.84,.55,3.45,1.18,4.84,1.23,2.69,2.99,4.53,3.05,5.62,.09,1.65,1.66,2.6,2.37,2.75s3.85-9.44,3.85-10.77-2.01-9.31-2.39-10.28-3.1-4.14-3.1-4.14h.01Z"/><path class="cls-3" d="M32.29,238.14s-5.38,9.98-5.27,11.55c.04,.59,.35,1.48,.75,2.44,.66,1.58,1.57,3.32,1.88,4.17,.51,1.36,.92,4.19,1.45,4.19s6.09-6.5,5.98-8.49-1.24-6.96-1.74-8.23-3.05-5.62-3.05-5.62h0Z"/><path class="cls-3" d="M27.77,252.13s-4.76,4.06-4.92,10.83v1.02c.2,6.14,3.49,9.76,4.16,9.91,.71,.16,5.27-4.95,5.03-7.31s-1.29-6.48-1.29-6.48l-2.99-7.97h.01Z"/><path class="cls-3" d="M22.86,263.98s-4.09,3.38-4.41,4.09-.31,3.7,0,5.19c.16,.75,.73,2.6,1.36,4.29s1.32,3.22,1.71,3.34c.79,.24,4.4-3.85,4.4-5.03s-.74-3.97-.74-3.97c0,0-2.6-4.35-2.32-7.91h0Z"/><path class="cls-6" d="M19.8,277.55s-2.69,3.03-4.27,4.05-9.91,9.44-9.75,12.98,1.89,6.92,1.81,8.81-2.91,8.1-6.61,8.1c0,0,5.74,1.49,7.08,1.42s13.12-11.64,14.78-14.79,1.66-5.35,1.58-6.76-4.01-6.37-4.01-8.1-.61-5.7-.61-5.7h0Z"/></g><g id="Arms_R_upper"><g><g><path class="cls-9" d="M245.19,181.97c-.18-.35,1.62-2.45,3.26-3.28,1.64-.81,16.05-5.13,19.77-4.73,3.7,.42,11.71,3.72,12.13,4.73,.07,.16,.05,.32-.02,.49-.92,.76-2.98,1.43-3.83,1.57-.05,.02-.09,.02-.14,.02-.09,0-.25,.09-.49,.21,0,0-.02,0-.05,.02-.12,.07-.25,.14-.42,.23-.21,.14-.46,.3-.74,.46-.62,.39-1.34,.88-2.1,1.43-.6,.44-1.22,.88-1.73,1.22-.35,.25-.65,.46-.88,.65-.37,.25-.58,.42-.58,.42-1.04,.74-1.99,1.39-2.61,1.73-2.26,1.22-10.69,7.21-12.75,7.41-2.06,.18-6.7,.95-6.7,.95,0,0,1.2-3.37,1.29-4.39s-3.26-8.78-3.42-9.15h0Z"/><path class="cls-9" d="M269.38,185.4s.21-.16,.58-.42c.28-.21,.58-.42,.88-.65,.51-.35,1.13-.79,1.73-1.22,.72-.51,1.46-1.02,2.1-1.43,.28-.16,.53-.32,.74-.46,.14-.07,.3-.16,.42-.23,.02-.02,.05-.02,.05-.02,.18-.09,.35-.16,.49-.21,.05,0,.09,0,.14-.02,.07-.02,.12-.02,.16-.02,1.04,.02,3.26-.69,3.67-1.55,.97-.83,24.6-7.74,28.5-8.29,3.9-.55,13.86,.6,13.93,1.71,.02,.21-.23,.55-.65,1.02-.28,.31-.3,.33-.07,.05-1.04,1.02-7.21,6.19-7.32,6.44-.02,.05-.28,.44-.65,.99-.83,1.2-2.26,3.26-3.26,4.71-.28,.39-.51,.74-.69,1.02-.28,.39-.46,.65-.46,.65-.62,.9-1.15,1.62-1.46,1.94-1.02,1.15-17.9,5.15-20.23,5.01s-18.59-9.01-18.59-9.01h0Z"/><path class="cls-9" d="M309.66,187.47s.18-.25,.46-.65c.21-.32,.46-.67,.69-1.02,.99-1.46,2.43-3.51,3.26-4.71,.14-.21,.28-.39,.37-.53,.95-1.34,5.77-4.94,7.6-6.91,1.22-1.31,1.24-1.33,.07-.05,1.62-1.06,23.65-5.06,25.82-4.39,2.19,.69,.14,5.01,0,6.81-.07,.97-2.08,3.26-4.18,5.34-1.78,1.76-3.63,3.35-4.46,3.93-1.85,1.22-16.33,5.75-18.11,5.75s-11.53-3.58-11.53-3.58h.01Z"/></g><g><path class="cls-8" d="M276.49,180.74c.07-.02,.12-.02,.16-.02,1.04,.02,3.26-.69,3.67-1.55,.07-.16,.09-.32,.02-.49-.42-1.02-8.43-4.32-12.13-4.73-3.72-.39-18.13,3.93-19.77,4.73-1.64,.83-3.44,2.93-3.26,3.28,.16,.37,3.51,8.13,3.42,9.15s-1.29,4.39-1.29,4.39c0,0,4.64-.76,6.7-.95,2.06-.21,10.49-6.19,12.75-7.41,.62-.35,1.57-.99,2.61-1.73"/><path class="cls-8" d="M275.87,180.98c.18-.09,.35-.16,.49-.21"/><path class="cls-8" d="M275.41,181.23c.14-.07,.3-.16,.42-.23"/><path class="cls-8" d="M272.56,183.12c.76-.55,1.48-1.04,2.1-1.43"/><path class="cls-8" d="M269.95,184.99c.28-.21,.58-.42,.88-.65"/><path class="cls-8" d="M322.11,173.61c.42-.46,.67-.81,.65-1.02-.07-1.11-10.02-2.26-13.93-1.71-3.9,.55-27.53,7.46-28.5,8.29-.92,.76-2.98,1.43-3.83,1.57-.05,.02-.09,.02-.14,.02-.09,0-.25,.09-.49,.21,0,0-.02,0-.05,.02-.12,.07-.25,.14-.42,.23-.21,.14-.46,.3-.74,.46-.65,.42-1.39,.92-2.1,1.43-.6,.44-1.22,.88-1.73,1.22-.35,.25-.65,.46-.88,.65-.37,.25-.58,.42-.58,.42,0,0,16.26,8.87,18.59,9.01s19.22-3.86,20.23-5.01c.3-.32,.83-1.04,1.46-1.94"/><path class="cls-8" d="M314.07,181.09c.14-.21,.28-.39,.37-.53,.95-1.34,5.77-4.94,7.6-6.91"/><path class="cls-8" d="M310.12,186.82c.21-.32,.46-.67,.69-1.02"/><path class="cls-8" d="M309.66,187.47s9.72,3.58,11.53,3.58,16.26-4.53,18.11-5.75c.83-.58,2.68-2.17,4.46-3.93,2.1-2.08,4.11-4.37,4.18-5.34,.14-1.8,2.19-6.12,0-6.81-2.17-.67-24.21,3.33-25.82,4.39-1.07,.71-1.1,.72-.07,.05-1.04,1.02-7.21,6.19-7.32,6.44-.02,.05-.28,.44-.65,.99-.83,1.2-2.26,3.26-3.26,4.71-.28,.39-.51,.74-.69,1.02-.28,.39-.46,.65-.46,.65h0Z"/></g></g></g><g id="Arms_R_lower"><path class="cls-3" d="M343.49,181.83s8.29,6.74,10.81,6.54,14.46-8.18,14.3-9.47c-.04-.32-.15-.59-.31-.82-.49-.69-1.42-.99-2.16-1.03-.98-.05-7.67-.51-8.34-.93s-3.04-5.45-4.99-5.35-3.99,.52-4.2,1.6-1.02,4.58-1.22,4.91-3.89,4.55-3.89,4.55Z"/><path class="cls-3" d="M368.29,178.07s6.03-2.5,5.51-2.81c-.12-.07-.58-.13-1.22-.18-2.13-.16-6.27-.2-6.96-.2-1.13,0-4.89-1.28-6.07-1.35s-3.6,.11-4.06,.45-1.18,1.15-.48,1.54,2.27,1.63,2.8,1.7,9.3,.18,10.49,.85h-.01Z"/><path class="cls-3" d="M372.58,175.07s6.42-2.02,6.42-2.43-1.23-1.24-2.47-1.17c-.27,.01-.75,.03-1.36,.05-2.19,.07-5.96,.14-6.57,.08-.77-.07-8.23-1.82-9.11-2.12s-3.09-1.64-4.22-1.51-2.37,1.35-2.11,1.96,5.88,3.4,7.06,3.68,4.72,1.13,5.39,1.25,6.96,.2,6.96,.2h0Z"/><path class="cls-3" d="M375.17,171.52s5.58-2.16,5.53-3.55-1-2.94-2.76-3c-.3-.01-.77-.02-1.36-.02-2.84-.02-8.35,.04-9.67,.02-1.6-.02-8.7-1.24-10.45-.92s-1.81,1.94-1.75,2.34,.69,1.3,1.34,1.59,7.98,2.96,12.56,3.63l6.57-.08h-.01Z"/><path class="cls-6" d="M376.58,164.95s5.71-8.8,5.66-9.38-5.66-12.1-12.5-12.17c-6.84-.07-15.85,11.67-15.85,12.6s2.06,7.52,2.57,8.05,19.44,.89,20.12,.9h0Z"/></g><g id="Legs_R_upper"><g><g><path class="cls-9" d="M201.24,336.37c-1.53,2.64-3.82,13.94-1.99,14.82,1.85,.87,10.64-4.9,13.22-8.02,2.58-3.12,7.49-21.98,1.15-17.73,0,0-.07,.06-.17,.18-1.74,2.05-3.5,3.62-4.98,4.17-.03,.03-.07,.04-.09,.04-.11,.05-.21,.07-.29,.08,0,0-5.31,3.79-6.85,6.46h0Z"/><path class="cls-9" d="M205.44,321.43c-1.35,2.41-1.57,7.61,1.38,8.48,.4,.13,.83,.12,1.27,0,.1-.02,.19-.06,.29-.08,.02,0,.06-.01,.09-.04,1.51-.62,4.27-3.44,4.98-4.17,.1-.13,.17-.18,.17-.18,1.6-1.91,3.2-4.23,4.54-6.41,3.39-5.56,1.97-11.45,1.51-12.09-.45-.67-3.75-1.95-3.75-1.95-.02,.02-.05,.07-.1,.13-1.18,1.67-9.08,13.97-10.38,16.31Z"/><path class="cls-9" d="M204.17,297.05c.82,4.68,4.92,11.93,8.07,11.1,.95-.25,2.23-1.39,3.58-3.04,.05-.05,.08-.1,.1-.13,3.08-3.91,6.32-10.54,5.82-15.07-.73-6.54-2.89-10.06-3.76-10-.86,.04-8.11,2.62-11.15,2.17,0,0-3.48,10.29-2.65,14.96h0Z"/></g><g><path class="cls-8" d="M215.92,304.99c3.08-3.91,6.32-10.54,5.82-15.07-.73-6.54-2.89-10.06-3.76-10-.86,.04-8.11,2.62-11.15,2.17,0,0-3.48,10.29-2.65,14.96,.82,4.68,4.92,11.93,8.07,11.1,.95-.25,2.23-1.39,3.58-3.04"/><path class="cls-8" d="M208.38,329.82c-.1,.02-.19,.06-.29,.08-.45,.12-.88,.13-1.27,0-2.94-.87-2.73-6.07-1.38-8.48,1.31-2.34,9.2-14.64,10.38-16.31,.05-.05,.08-.1,.1-.13,0,0,3.3,1.28,3.75,1.95,.47,.64,1.88,6.53-1.51,12.09-1.34,2.18-2.94,4.49-4.54,6.41"/><path class="cls-8" d="M213.46,325.61c-1.74,2.05-3.5,3.62-4.98,4.17"/><path class="cls-8" d="M208.09,329.9s-5.31,3.79-6.85,6.46c-1.53,2.64-3.82,13.94-1.99,14.82,1.85,.87,10.64-4.9,13.22-8.02,2.58-3.12,7.49-21.98,1.15-17.73,0,0-.07,.06-.17,.18-.71,.72-3.47,3.55-4.98,4.17-.03,.03-.07,.04-.09,.04-.11,.05-.21,.07-.29,.08h0Z"/></g></g></g><g id="Legs_R_lower"><path class="cls-3" d="M200.97,352s3.1-2.61,3.58-2.52,5.8,7.37,3.51,15.29-7.74,14.1-9,14.22-2.54-.3-2.93-.66-2.69-9.44-1.9-11.41l.79-1.96s6.06-11.4,5.95-12.95h0Z"/><path class="cls-3" d="M195.75,377.33s-1.99,14.77-2.39,15.83-.09,13.89,1.59,14.41,5.43-2.12,6.24-3.67,2.48-11.15,2.3-12.23-2.44-13.6-3.2-13.24-2.69,.52-3.13,.38-1.41-1.47-1.41-1.47h0Z"/><path class="cls-3" d="M198.05,406.71s-6.11,4.64-7.18,6.07-7.05,12.77-1.17,17.88c5.89,5.12,14.72-13.04,15.13-14.04s.27-10.95-.7-11.81-4.88,.96-6.08,1.89h0Z"/><path class="cls-3" d="M192.84,431.49s-6.59,13.55-7.41,17.36,2.12,16.6,5.14,14.62,11.39-8.53,11.48-12.76-.26-20.58-1.78-21.2c0,0-2.79-1.1-3.91-.17s-2.68,2.04-3.53,2.15h.01Z"/><path class="cls-5" d="M186.06,457.49c-4.74,3.43-7.5,12.12-7.86,14.33s-1.27,15.31-.68,16.84,9.23,4.15,12.04,3.08c0,0,10.92-3.11,14.04-5.36s7.65-11.67,6.06-13.87-7.1-3.6-9.56-1.82c-2.47,1.79-5.69,5.98-7.31,6.6s-3.17,.52-4.68-.7l-1.3,5.39s6.64-9.14,7.15-12.28,2.52-9.93,.55-9.18-1.97,2.28-4.74,3.13c-2.03,.62-3.69-6.16-3.69-6.16h-.02Z"/><g><path class="cls-1" d="M209.65,472.51c.87,1.2,.01,3.41-.45,4.9s-5.29,.87-6.68-.25c-1.37-1.11-4.9-4.69-4.9-4.69,2.07-1.5,3.25-2.44,5.76-2.6,2.5-.15,5.4,1.42,6.27,2.63h0Z"/><path class="cls-8" d="M197.62,472.49s3.53,3.58,4.9,4.69c1.38,1.11,6.21,1.74,6.68,.25s1.32-3.71,.45-4.9-3.78-2.78-6.27-2.63c-2.51,.15-3.69,1.1-5.76,2.6h0Z"/></g><g><path class="cls-1" d="M209.07,477.79s-1.8,4.02-2.12,4.4c-.32,.39-2.03,3.5-3.6,4.37-1.57,.86-13.07,5.04-13.79,5.19-.73,.14-1.12,.71-4.82-.14-3.7-.86-6.52-1.62-7.22-2.94-.19-1.11,.08-2.14,.08-2.14,1.87,.87,8.26,2.53,10.65,2.91s6.99-1.36,9.41-2.29,7.04-5.13,7.75-6.01,1.13-2.79,1.77-2.85c.63-.07,1.73-.4,1.9-.52v.02Z"/><path class="cls-8" d="M177.59,486.54c1.87,.87,8.26,2.53,10.65,2.91s6.99-1.36,9.41-2.29,7.04-5.13,7.75-6.01,1.13-2.79,1.77-2.85c.63-.07,1.73-.4,1.9-.52,0,0-1.8,4.02-2.12,4.4-.32,.39-2.03,3.5-3.6,4.37-1.57,.86-13.07,5.04-13.79,5.19-.73,.14-1.12,.71-4.82-.14-3.7-.86-6.52-1.62-7.22-2.94-.19-1.11,.08-2.14,.08-2.14v.02Z"/></g></g><g id="Legs_L_upper"><g><g><path class="cls-9" d="M151.55,280.94s-.86,16.03-3.24,19.77c-.63,1.01-1.55,2.45-2.57,4.03,0,0-.03,.04-.1,.14-.55,.75-3.32,4.55-6.33,8.84-.53,.58-.98,.95-1.29,1.01-1.68,.34-5.53-5.77-6.21-12.09-.67-6.34,5.87-17.8,6.88-18.29s12.85-3.41,12.85-3.41h.01Z"/><path class="cls-9" d="M145.65,304.88c.07-.09,.1-.14,.1-.14,0,0,.83,15.6-2.46,20.87l-.03,.04c-.43,.61-4.72,6.77-8.1,11.67-.86,.98-1.51,1.55-1.81,1.45-1.08-.35-4.49-9.02-.29-15.71,1.67-2.67,4.03-6.15,6.28-9.35,1.66-1.79,4.23-5.58,6.33-8.84h-.02Z"/><path class="cls-9" d="M143.25,325.65l.03-.04s.5,17.57,.06,18.82c-.09,.25-.65,1.09-1.49,2.25,0,0-.04,.05-.12,.14-1.06,1.31-9.57,11.77-10.34,12.48h-.02v.03c-.18,.1-.3,.14-.36,.1-.91-.49-.56-14.92,0-15.99,.2-.4,1.99-3.01,4.13-6.12,2.16-2.49,5.6-7.67,7.97-11.45l.13-.22h.01Z"/><path class="cls-9" d="M141.74,346.82c.07-.09,.12-.14,.12-.14,0,0,2.57,15.64,2.51,16.23s-3.24,9.92-3.73,10.41c-.08,.07-.29,.28-.58,.59-1.87,1.92-7.48,7.65-8.05,7.36-.66-.34-3.36-9.67-3.02-12.35,.34-2.65,1.67-8.92,2.4-9.6v-.02h.03c1.63-1.15,7.47-8.53,10.34-12.48h-.02Z"/></g><g><path class="cls-8" d="M145.65,304.88c-2.1,3.26-4.67,7.05-6.33,8.84-.53,.58-.98,.95-1.29,1.01-1.68,.34-5.53-5.77-6.21-12.09-.67-6.34,5.87-17.8,6.88-18.29s12.85-3.41,12.85-3.41c0,0-.86,16.03-3.24,19.77-.63,1.01-1.55,2.45-2.57,4.03"/><path class="cls-8" d="M143.25,325.65l-.13,.22c-2.37,3.78-5.81,8.96-7.97,11.45-.86,.98-1.51,1.55-1.81,1.45-1.08-.35-4.49-9.02-.29-15.71,1.67-2.67,4.03-6.15,6.28-9.35,3.01-4.29,5.78-8.09,6.33-8.84,.07-.09,.1-.14,.1-.14,0,0,.83,15.6-2.46,20.87"/><path class="cls-8" d="M131.37,359.33c-.16,.1-.28,.14-.35,.1-.91-.49-.56-14.92,0-15.99,.2-.4,1.99-3.01,4.13-6.12,3.38-4.9,7.67-11.06,8.1-11.67l.03-.04s.5,17.57,.06,18.82c-.09,.25-.65,1.09-1.49,2.25"/><path class="cls-8" d="M141.74,346.82c-2.87,3.96-8.71,11.33-10.34,12.48"/><path class="cls-8" d="M141.85,346.68s2.57,15.64,2.51,16.23-3.24,9.92-3.73,10.41c-.08,.07-.29,.28-.58,.59-1.87,1.92-7.48,7.65-8.05,7.36-.66-.34-3.36-9.67-3.02-12.35,.34-2.65,1.67-8.92,2.4-9.6v-.02h.03c.76-.71,9.27-11.17,10.34-12.48,.07-.09,.12-.14,.12-.14h-.02Z"/></g></g></g><g id="Legs_L_lower"><path class="cls-3" d="M136.28,378.2s1.05,10.07-1.96,16.14c-.74,1.5-1.56,3.11-2.39,4.67-2.53,4.77-5.21,9.08-6.47,8.38-1.67-.92-3.51-11.64-1.52-15.29s9.7-12.08,12.34-13.9Z"/><path class="cls-3" d="M131.93,399.01s3.15,13.03,3.04,13.43c-.08,.29-1.71,4.54-3.47,7.72-.64,1.15-1.3,2.17-1.91,2.8-2.29,2.39-8.74,9.22-9.97,8.98s-1.01-12.29,1.97-16.64,10.34-16.29,10.34-16.29h0Z"/><path class="cls-3" d="M131.5,420.15s3.05,11.67-2.64,20.4c-.3,.46-.59,.91-.88,1.34-5.17,7.88-8.33,12.23-10.21,11.42-1.98-.85-4.49-11.34-1.69-15.53s11.86-12.8,15.43-17.64h0Z"/><path class="cls-3" d="M127.98,441.89s-.3,16.77-.78,18.45-7.19,10.12-6.92,8.66c.1-.53-2.87-8.04-3.26-10.55s-.53-3.79,1.03-4.17c1.26-.31,9.05-11.04,9.92-12.38h.01Z"/><path class="cls-5" d="M118.54,463.87c-4.1,3.4-5.85,9.43-6.04,11.47s-.23,13.97,.39,15.33,8.63,3.21,11.11,2.07c0,0,9.73-3.48,12.42-5.71s6.24-11.05,4.66-12.95-6.66-2.84-8.79-1.07-4.81,5.77-6.24,6.43-2.85,.66-4.29-.36l-.86,4.97s5.48-8.7,5.75-11.58-.31-8.49-2.05-7.69-2.66,4.78-4.03,3.41c-1.69-1.69-2.04-4.32-2.04-4.32h0Z"/><g><path class="cls-1" d="M134.9,478.73c-1.31-.93-4.44-3.7-4.44-3.7,1.78-1.48,2.51-2.68,4.76-2.96,2.26-.29,4.99,.96,5.85,2,.87,1.04,.22,3.1-.11,4.49-.33,1.38-4.76,1.1-6.07,.17h.01Z"/><path class="cls-8" d="M130.47,475.02s3.13,2.77,4.44,3.7c1.31,.94,5.74,1.21,6.07-.17,.33-1.39,.97-3.44,.11-4.49-.86-1.04-3.59-2.29-5.85-2-2.26,.28-2.98,1.48-4.76,2.96h-.01Z"/></g><g><path class="cls-1" d="M140.88,478.89s-1.39,3.75-1.66,4.12c-.27,.37-1.63,3.29-3.01,4.17-1.37,.89-11.55,5.37-12.21,5.54-.65,.18-.96,.72-4.37,.17s-6.02-1.08-6.73-2.23c-.24-1-.07-1.94-.07-1.94,1.75,.67,7.66,1.81,9.85,2.01s6.26-1.67,8.4-2.65,6.08-5.08,6.68-5.92c.59-.84,.85-2.59,1.42-2.69,.58-.09,1.56-.46,1.7-.58h0Z"/><path class="cls-8" d="M112.83,488.71c1.75,.67,7.66,1.81,9.85,2.01s6.26-1.67,8.4-2.65,6.08-5.08,6.68-5.92c.59-.84,.85-2.59,1.42-2.69,.58-.09,1.56-.46,1.7-.58,0,0-1.39,3.75-1.66,4.12-.27,.37-1.63,3.29-3.01,4.17-1.37,.89-11.55,5.37-12.21,5.54-.65,.18-.96,.72-4.37,.17s-6.02-1.08-6.73-2.23c-.24-1-.07-1.94-.07-1.94h0Z"/></g></g><g id="Gerry_Back"><g><path class="cls-10" d="M222.48,116.28c21.59,4.15,35.45,32.49,33.08,43.12-1.78,8.01-12.41,33.08-5.32,44.9s12.28,39.43-1.18,47.85c-14.18,8.86-18.31,10.63-23.63,23.63-3.36,8.21-16.87,6.29-28.59,3.76-6.83-1.48-16.45-2.83-19.71-2.84h-3.45c-8.86,.04-39.58,12.33-44.9-.66-5.32-13-9.45-14.77-23.63-23.63-13.46-8.41-8.27-36.04-1.18-47.85s-3.53-36.89-5.32-44.9c-2.36-10.63,11.5-38.97,33.08-43.12,15.36-2.95,20.09,6.56,41.94,6.56h3.45c21.86,0,29.99-9.78,45.35-6.82h.01Z"/><path class="cls-4" d="M173.69,276.7c-8.86,.04-39.58,12.33-44.9-.66-5.32-13-9.45-14.77-23.63-23.63-13.46-8.41-8.27-36.04-1.18-47.85s-3.53-36.89-5.32-44.9c-2.36-10.63,11.5-38.97,33.08-43.12,15.36-2.95,20.09,6.56,41.94,6.56h3.45c21.86,0,29.99-9.78,45.35-6.82,21.59,4.15,35.45,32.49,33.08,43.12-1.78,8.01-12.41,33.08-5.32,44.9s12.28,39.43-1.18,47.85c-14.18,8.86-18.31,10.63-23.63,23.63-3.36,8.21-16.87,6.29-28.59,3.76-6.83-1.48-16.45-2.83-19.71-2.84h-3.44Z"/></g><g><path class="cls-11" d="M205.88,204.26c1.82,8.07,8.67,10.78,5.32,19.49-2.95,7.68-6.5,18.9-6.5,22.45s7.68,19.49,7.68,22.45c0,2.19-2.72,8.05-4.13,10.95-.5,1.02-1.54,1.67-2.68,1.67l-30.16-4.57-29.66,4.84c-1.14,0-2.18-.65-2.68-1.67-1.41-2.9-4.13-8.77-4.13-10.95,0-2.95,7.68-18.9,7.68-22.45s-3.54-14.77-6.5-22.45c-3.35-8.72,3.5-11.43,5.32-19.49,3.63-16.09,15.02-18.5,19.74-25.26,1.5-2.15,3.59-3.75,6.07-4.6,.87-.3,1.8-.45,2.71-.45s1.83,.15,2.71,.45l.91,.31c2.04,.71,3.73,2.13,4.9,3.95,4.53,7.07,19.7,8.93,23.41,25.33h-.01Z"/><path class="cls-4" d="M145.75,281.54c-1.14,0-2.18-.65-2.68-1.67-1.41-2.9-4.13-8.77-4.13-10.95,0-2.95,7.68-18.9,7.68-22.45s-3.54-14.77-6.5-22.45c-3.35-8.72,3.5-11.43,5.32-19.49,3.63-16.09,15.02-18.5,19.74-25.26,1.5-2.15,3.59-3.75,6.07-4.6,.87-.3,1.8-.45,2.71-.45s1.83,.15,2.71,.45l.91,.31c2.04,.71,3.73,2.13,4.9,3.95,4.53,7.07,19.7,8.93,23.41,25.33,1.82,8.07,8.67,10.78,5.32,19.49-2.95,7.68-6.5,18.9-6.5,22.45s7.68,19.49,7.68,22.45c0,2.19-2.72,8.05-4.13,10.95-.5,1.02-1.54,1.67-2.68,1.67l-30.16-4.57-29.66,4.84h-.01Z"/></g></g><g id="Hat_back"><path class="cls-2" d="M124.54,118.73c.17-.14,.35-.27,.53-.4,3.34-2.26,10.06-3.41,14.02-2.61,11.02,2.22,25.66,8.61,35.22,6.8,24.72,0,35.88-7.38,42.82-7.38s24.82,8.56,29.7,17.95,3.87-43.8-2.92-50.59-40.88-15.04-57.74-15.04-43.42-4.93-57.54,9.19-26.64,44.21-19.76,55.63c.12,.21,.41,.26,.6,.12l15.07-13.67h0Z"/><path class="cls-2" d="M241.76,83.82s15.58-8.52,22.94-15.88,12.26-24.41,5.11-31.56-13.37-13.12-28.04-21.59-16.78,.95-34.26-.96c-14.53-1.59-9.05-13.7-31.84-13.7s-36.07,24.25-47.3,24.25-39.32,1.28-48,9.96-22.81,16.2-12.77,33.6,27.62,36.2,20.94,47.78-17.36,35.04-9.19,43.21,35.89,9.78,44.94,.74,16.69-22.96,14.68-33.42-5.92-22.83-2.01-29.62c1.84-3.18-4.46-7.91-7.3-11.59s-.72-9.01,3.82-9.86c22.74-4.26,79.08-10.72,108.3,8.63h-.02Z"/></g></g><g id="Layer_2-2"><path class="cls-7" d="M369.74,146.97c6.14,0,1.94-6.98,7.33-6.98s26.3-3.06,26.3-5.17c0-1.89-27.66-4.36-33.79-4.36s-31.15,3.74-31.15,6.05,13.96,2.97,23.74,2.97c6.47,0,1.76,7.49,7.56,7.49Z"/></g></svg>