<?xml version="1.0" encoding="UTF-8"?><svg id="Layer_1" xmlns="http://www.w3.org/2000/svg" viewBox="0 0 549.77 712.27"><defs><style>.cls-1{fill:#fff;}.cls-2,.cls-3,.cls-4{stroke:#000;stroke-miterlimit:10;}.cls-2,.cls-4{fill:none;}.cls-5{fill:#040404;}.cls-6{fill:#b73008;}.cls-3{fill:#200;}.cls-3,.cls-4{stroke-width:2px;}.cls-7{fill:#37913a;}.cls-8{fill:#37865d;}.cls-9{fill:#993215;}.cls-10{fill:#00af2c;}.cls-11{fill:#050505;}.cls-12{fill:#024c01;}.cls-13{fill:#fcfcfc;}</style></defs><g><g><g><g><path class="cls-12" d="M412.57,360.49c11.92,0,36.43,64.51,36.43,64.51-5.11,5.11-71.49,68.68-89.62,72s-82.98,3.32-94.21,3.32c-8.24,0-25.53-14.95-34.17-29.07,0,0-6.55-41.58,2.34-56.97,8.89-15.4,51.91-44.6,60.42-44.6,5.67,3.27,55.83,6.47,65.62,6.47s48.77-11.24,53.19-15.66Z"/><path class="cls-1" d="M465.68,40.83c0,25.53-37.89,35.24-37.89,47.41s4.87,36.33,4.87,46.21c-10.22-10.22-59.58-10.9-145.02-10.9s-95.75,88.26-95.75,88.26c0,0-38.86,3.49-44.85,13.87s-21.45,82.72-71.83,82.72S1,291.38,1,237.6,28.23,124.57,89.85,124.57s57.7-14.12,63.66-20.08,28.59-20.77,44.25-20.77,39.09-3.1,52.43-26.21,33.36-32.34,67.06-32.34,44.26-2.72,52.09-10.55,17.7-13.62,33.7-13.62,62.64,14.3,62.64,39.83Z"/><path class="cls-1" d="M455.64,199.3c-3.5-6.06-20.23,3.21-25.79,0s-29.87-26.3-36.51-26.3-27.32,17.87-33.96,17.87l-13.49-17.87-10.76,18.64c-6.9,0-34.73-18.64-47.75-18.64s-38.04,36.36-44.01,36.36-20.58-11.88-26.65-11.88-19.45,11.22-24.83,14.33c0,0,10.3-88.26,95.75-88.26s134.8,.68,145.02,10.9c0,9.87,22.98,33.7,22.98,64.85Z"/><polygon class="cls-6" points="345.89 173 359.38 190.87 352.54 202.72 345.7 214.56 335.13 191.64 345.89 173"/><path class="cls-10" d="M287.38,173c13.02,0,40.85,18.64,47.75,18.64-9.37,0-53.88,38.69-65.88,45.62-11.99,6.92-32,21.44-54.12,21.44s-49.92,31.79-46.64,37.47,39.49,0,51.06,0,20.36,31.44,24.51,38.63c4.15,7.19,27.22,10.92,34.53,15.14s9.51,16.47,15.17,19.74c-8.51,0-51.53,29.2-60.42,44.6-8.89,15.39-2.34,56.97-2.34,56.97-3.15-5.15-5.15-10.18-5.15-14.34,0-15.57-5.75-25.91-9.19-29.36-3.45-3.44,0-10.72,0-21.7s-18.74-37.58-22.98-44.94c-4.25-7.35-30.38-24-37.53-31.14-7.15-7.15-13.02-17.11-13.02-24.51s8.25-27.82,13.27-36.52c5.02-8.69,6.91-25.06,11.75-33.44s18.36-20.39,23.74-23.49c5.38-3.11,18.76-14.33,24.83-14.33s20.68,11.88,26.65,11.88,30.99-36.36,44.01-36.36Z"/><path class="cls-10" d="M471.72,264.4c6.13,10.61,19.66,37.54,19.66,45.2s-30.09,40.54-33.96,47.23c-3.86,6.69-3.32,63.06-8.42,68.17,0,0-24.51-64.51-36.43-64.51,4.43-4.43-.93-58.81,3.7-66.83,4.63-8.02,21.31-12.3,26.94-15.55s-45.02-34.13-54.47-43.58c-9.44-9.45-36.2-31.81-36.2-31.81l6.84-11.85c6.64,0,27.32-17.87,33.96-17.87s30.95,23.09,36.51,26.3,22.29-6.06,25.79,0,9.96,54.5,16.08,65.1Z"/><path class="cls-7" d="M388.74,234.53c9.45,9.45,60.1,40.33,54.47,43.58s-22.31,7.53-26.94,15.55c-4.63,8.02,.73,62.4-3.7,66.83s-43.4,15.66-53.19,15.66-59.95-3.2-65.62-6.47c-5.66-3.27-7.86-15.52-15.17-19.74s-30.38-7.95-34.53-15.14c-4.15-7.19-12.93-38.63-24.51-38.63s-47.78,5.68-51.06,0,24.51-37.47,46.64-37.47,42.13-14.52,54.12-21.44c12-6.93,56.51-45.62,65.88-45.62l10.57,22.92,6.84-11.84s26.76,22.36,36.2,31.81Zm-5.78,61.64c5.44,0,21.78-2.06,21.78-18.4s-25.56-33.6-31.32-33.03c-24.98,2.49-17.62,26.37-12.59,35.07,5.02,8.7,16.68,16.36,22.13,16.36Zm-60.26,0c14.22-8.21-7.57-42.75-7.57-42.75-22.94-22.93-45.8-5.61-45.8,5.17s11.35,19.67,16.6,24.92,22.55,20.87,36.77,12.66Z"/><path class="cls-11" d="M373.55,258.79c1.54-2.12,19.3,15.67,16.98,18-2.32,2.32-20.82-12.7-16.98-18Z"/><path class="cls-11" d="M295.93,258.61c2.8-3.5,19.28,16.65,15.58,20.35s-20.4-14.31-15.58-20.35Z"/><path class="cls-1" d="M404.74,277.77c0,16.34-16.34,18.4-21.78,18.4s-17.11-7.66-22.13-16.36c-5.03-8.7-12.39-32.58,12.59-35.07,5.76-.57,31.32,16.69,31.32,33.03Zm-14.21-.98c2.32-2.33-15.44-20.12-16.98-18-3.84,5.3,14.66,20.32,16.98,18Z"/><path class="cls-1" d="M315.13,253.42s21.79,34.54,7.57,42.75c-14.22,8.21-31.51-7.4-36.77-12.66s-16.6-14.13-16.6-24.92,22.86-28.1,45.8-5.17Zm-3.62,25.54c3.7-3.7-12.78-23.85-15.58-20.35-4.82,6.04,11.88,24.05,15.58,20.35Z"/></g><g><path class="cls-4" d="M359.38,190.87c6.64,0,27.32-17.87,33.96-17.87s30.95,23.09,36.51,26.3,22.29-6.06,25.79,0,9.96,54.5,16.08,65.1c6.13,10.61,19.66,37.54,19.66,45.2s-30.09,40.54-33.96,47.23c-3.86,6.69-3.32,63.06-8.42,68.17-5.11,5.11-71.49,68.68-89.62,72s-82.98,3.32-94.21,3.32c-8.24,0-25.53-14.95-34.17-29.07-3.15-5.15-5.15-10.18-5.15-14.34,0-15.57-5.75-25.91-9.19-29.36-3.45-3.44,0-10.72,0-21.7s-18.74-37.58-22.98-44.94c-4.25-7.35-30.38-24-37.53-31.14-7.15-7.15-13.02-17.11-13.02-24.51s8.25-27.82,13.27-36.52c5.02-8.69,6.91-25.06,11.75-33.44s18.36-20.39,23.74-23.49c5.38-3.11,18.76-14.33,24.83-14.33s20.68,11.88,26.65,11.88,30.99-36.36,44.01-36.36,40.85,18.64,47.75,18.64l10.76-18.64,13.49,17.87Z"/><path class="cls-4" d="M455.64,199.3c0-31.15-22.98-54.98-22.98-64.85s-4.87-34.05-4.87-46.21,37.89-21.88,37.89-47.41S419.04,1,403.04,1s-25.87,5.79-33.7,13.62-18.38,10.55-52.09,10.55-53.72,9.23-67.06,32.34-36.77,26.21-52.43,26.21-38.29,14.81-44.25,20.77-2.04,20.08-63.66,20.08S1,183.81,1,237.6s23.83,70.8,74.21,70.8,65.84-72.34,71.83-82.72,44.85-13.87,44.85-13.87c0,0,10.3-88.26,95.75-88.26s134.8,.68,145.02,10.9"/><path class="cls-4" d="M352.54,202.72s26.76,22.36,36.2,31.81c9.45,9.45,60.1,40.33,54.47,43.58s-22.31,7.53-26.94,15.55c-4.63,8.02,.73,62.4-3.7,66.83s-43.4,15.66-53.19,15.66-59.95-3.2-65.62-6.47c-5.66-3.27-7.86-15.52-15.17-19.74s-30.38-7.95-34.53-15.14c-4.15-7.19-12.93-38.63-24.51-38.63s-47.78,5.68-51.06,0,24.51-37.47,46.64-37.47,42.13-14.52,54.12-21.44c12-6.93,56.51-45.62,65.88-45.62l10.57,22.92,6.84-11.84,6.84-11.85"/><path class="cls-4" d="M231,471.25s-6.55-41.58,2.34-56.97c8.89-15.4,51.91-44.6,60.42-44.6"/><path class="cls-4" d="M449,425s-24.51-64.51-36.43-64.51"/><path class="cls-4" d="M373.42,244.74c5.76-.57,31.32,16.69,31.32,33.03s-16.34,18.4-21.78,18.4-17.11-7.66-22.13-16.36c-5.03-8.7-12.39-32.58,12.59-35.07Z"/><path class="cls-4" d="M315.13,253.42s21.79,34.54,7.57,42.75c-14.22,8.21-31.51-7.4-36.77-12.66s-16.6-14.13-16.6-24.92,22.86-28.1,45.8-5.17Z"/><path class="cls-4" d="M373.55,258.79c1.54-2.12,19.3,15.67,16.98,18-2.32,2.32-20.82-12.7-16.98-18Z"/><path class="cls-4" d="M295.93,258.61c2.8-3.5,19.28,16.65,15.58,20.35s-20.4-14.31-15.58-20.35Z"/></g></g><path class="cls-3" d="M358.27,425h28.43c3.57,0,10.36-7.12,15.9-7.12s7.25,5.93,7.25,10.86-33.53,37.96-51.57,37.96-42.83-19.81-45.96-21.62-7.93-7.05-12.22-7.05,10.38-13.03,18.28-13.03h39.9Z"/></g><path class="cls-13" d="M387.92,450.93c-.93-2.42-1.02-12.5-7.1-14.48-3.65-1.19-5.5-1.07-5.19,1.52,.51,4.32,6.15,16.06,11.66,13.43,.34-.16,.75-.15,.62-.47Z"/></g><path class="cls-13" d="M334.72,457.43c.82-2.41,.9-12.44,6.26-14.41,3.22-1.18,4.85-1.06,4.58,1.51-.45,4.3-5.42,15.98-10.29,13.37-.3-.16-.66-.15-.55-.47Z"/><g><g><path class="cls-8" d="M518.79,374.45s26.12,30.89,16.51,40.51c-9.45,9.44-26.01-33.13-17.02-40.15,.17-.11,.34-.23,.51-.36Z"/><path class="cls-8" d="M508.23,336.66s21.11,29.62,10.56,37.79c-.18,.1-.35,.22-.51,.36-10.39,6.67-20.6-27.6-10.05-38.15Z"/><path class="cls-8" d="M489.91,313.89c3.73-3.74,27.68,13.41,18.32,22.77-9.36,9.36-27.59-13.51-18.32-22.77Z"/></g><g><path class="cls-2" d="M489.91,313.89c3.73-3.74,27.68,13.41,18.32,22.77-9.36,9.36-27.59-13.51-18.32-22.77Z"/><path class="cls-2" d="M508.23,336.66s21.11,29.62,10.56,37.79c-.17,.13-.34,.25-.51,.36-10.39,6.67-20.6-27.6-10.05-38.15Z"/><path class="cls-2" d="M518.79,374.45s26.12,30.89,16.51,40.51c-9.45,9.44-26.01-33.13-17.02-40.15,.16-.14,.33-.26,.51-.36Z"/></g></g><g><g><path class="cls-9" d="M535.24,550.62c-10.17-2.03,10.89-37.79,10.89-56.68,0,0,.4,58.93-10.89,56.68Z"/><path class="cls-8" d="M539.01,474.34c3.89,.5,15.91,14.52,7.12,19.6-9.24,5.33-14.76-17.37-7.65-19.58,.18,0,.36-.01,.53-.02Z"/><path class="cls-8" d="M541.08,447.81s7.97,25.67-2.07,26.53c-.2-.04-.38-.03-.53,.02-9.95,0-7.76-20.95,.31-25.69,0,0,0-.01,.01,0,.71-.12,1.47-.4,2.28-.86Z"/><path class="cls-8" d="M535.3,414.96c4.89-2.83,17.96,25.82,5.78,32.85-.8,.14-1.57,.43-2.28,.86-.01-.01-.01,0-.01,0-9.93,1.51-9.96-29.98-3.49-33.71Z"/></g><g><path class="cls-2" d="M538.79,448.67c-9.93,1.51-9.96-29.98-3.49-33.71,4.89-2.83,17.96,25.82,5.78,32.85-.81,.46-1.57,.74-2.28,.86"/><path class="cls-2" d="M541.08,447.81s7.97,25.67-2.07,26.53c-.17,.01-.35,.02-.53,.02-9.95,0-7.76-20.95,.31-25.69,0,0,0-.01,.01,0,.71-.43,1.48-.72,2.28-.86Z"/><path class="cls-2" d="M538.48,474.36c.15-.05,.33-.06,.53-.02,3.89,.5,15.91,14.52,7.12,19.6-9.24,5.33-14.76-17.37-7.65-19.58Z"/><path class="cls-2" d="M546.13,493.94s.4,58.93-10.89,56.68c-10.17-2.03,10.89-37.79,10.89-56.68Z"/></g></g><g><g><path class="cls-8" d="M135.21,399.68c9.53,5.5-10.98,44.04-21.96,37.7-10.98-6.34,18.31-39.8,21.96-37.7Z"/><path class="cls-8" d="M146.45,362.54c13.89,8.04-9.32,42.54-15.45,36.42-5.95-5.95,11.21-36.4,15.12-36.5,.11,.03,.21,.06,.32,.08h.01Z"/><path class="cls-8" d="M162.08,334.8c3.44,3.44-8.69,29.11-15.63,27.74h-.01s0-.01,0-.01c-.09-.05-.2-.08-.31-.07-.43-.15-.83-.4-1.21-.78-6.44-6.45,8.29-35.76,17.17-26.88Z"/></g><g><path class="cls-2" d="M146.44,362.54c-.11-.02-.21-.05-.32-.08-.43-.15-.83-.4-1.21-.78-6.44-6.45,8.29-35.76,17.17-26.88,3.44,3.44-8.69,29.11-15.63,27.74"/><path class="cls-2" d="M146.44,362.54s0-.01,0-.01c-.09-.05-.2-.08-.31-.07-3.91,.1-21.07,30.55-15.12,36.5,6.13,6.12,29.34-28.38,15.45-36.42h-.01Z"/><path class="cls-2" d="M135.21,399.68c-3.65-2.1-32.94,31.36-21.96,37.7,10.98,6.34,31.49-32.2,21.96-37.7Z"/></g></g><g><g><path class="cls-6" d="M111.21,515c-11.23,28.85,27.02,67.96,3.06,54.13-22.39-12.94-4.61-51.51-3.11-54.13h.05Z"/><path class="cls-8" d="M111.25,514.87s-.04,.04-.09,.13c-11.56-.06-8.44-21.57,2.43-21.57,2.6,0,9.24,21.57-2.38,21.57,.03-.07,.04-.11,.04-.13Z"/><path class="cls-8" d="M113.25,467.38c.34,.2,.67,.38,.99,.53,3.8,3.69,9.59,25.52-.65,25.52-11.19,0-7.9-26.05-.34-26.05Z"/><path class="cls-8" d="M113.25,437.38c2.82,1.63,16.72,38.47,.99,30.53-.35-.34-.69-.53-.99-.53-17.28-9.97,0-30,0-30Z"/></g><g><path class="cls-2" d="M114.24,467.91c15.73,7.94,1.83-28.9-.99-30.53,0,0-17.28,20.03,0,30,.34,.2,.67,.38,.99,.53Z"/><path class="cls-2" d="M113.25,467.38c.3,0,.64,.19,.99,.53,3.8,3.69,9.59,25.52-.65,25.52-11.19,0-7.9-26.05-.34-26.05Z"/><path class="cls-2" d="M113.59,493.43c2.6,0,9.24,21.57-2.38,21.57h-.05c-11.56-.06-8.44-21.57,2.43-21.57Z"/><path class="cls-2" d="M111.25,514.86h0s-.04,.05-.09,.14c-1.5,2.62-19.28,41.19,3.11,54.13,23.96,13.83-14.29-25.28-3.06-54.13,.03-.07,.04-.11,.04-.13"/></g></g><g><g><path class="cls-8" d="M421.31,555.79c5.11,1.81,13.56,41.81-.35,41.81s-17.82-41.87,0-41.87c.12,.02,.24,.04,.35,.06Z"/><path class="cls-8" d="M413.13,529.43c.27,.07,.54,.14,.8,.18,3.84,2.46,18.56,21.86,12.09,25.6-1.23,.71-2.89,.88-4.71,.58-.12-.04-.24-.06-.35-.06-8.7-1.66-20.66-13.48-7.83-26.3Z"/><path class="cls-8" d="M415.79,499.48c3.71-1.21,18.06,34.52-1.86,30.13-.39-.24-.67-.31-.8-.18-21.45-5.62,.91-28.69,2.49-29.86,.06-.04,.11-.07,.17-.09Z"/><path class="cls-8" d="M400.76,468.79c2.74-2.04,25.96,20.1,16.45,29.61-.47,.47-.94,.83-1.42,1.08-.06,.02-.11,.05-.17,.09-9.3,4.65-20.7-26.44-14.86-30.78Z"/></g><g><path class="cls-2" d="M415.62,499.57c-9.3,4.65-20.7-26.44-14.86-30.78,2.74-2.04,25.96,20.1,16.45,29.61-.47,.47-.94,.83-1.42,1.08"/><path class="cls-2" d="M415.62,499.57c.06-.04,.11-.07,.17-.09,3.71-1.21,18.06,34.52-1.86,30.13-.26-.04-.53-.11-.8-.18-21.45-5.62,.91-28.69,2.49-29.86Z"/><path class="cls-2" d="M413.13,529.43c.13-.13,.41-.06,.8,.18,3.84,2.46,18.56,21.86,12.09,25.6-1.23,.71-2.89,.88-4.71,.58-.11-.02-.23-.04-.35-.06-8.7-1.66-20.66-13.48-7.83-26.3Z"/><path class="cls-2" d="M420.96,555.73c.11,0,.23,.02,.35,.06,5.11,1.81,13.56,41.81-.35,41.81s-17.82-41.87,0-41.87Z"/></g></g><g><g><path class="cls-1" d="M492.54,699.21h.01c-.94,11.66-7.69,8.68-11.25,8.68-3.83,0-55.39,.34-58.15,.34-2.25,0-4.08-4.67-4.67-9.02h74.06Z"/><path class="cls-1" d="M492.66,696.28c0,1.07-.04,2.04-.11,2.93h-26.7s-5.53-12.94,17.53-12.94h0c5.2,1.27,9.28,4.12,9.28,10.01Z"/><path class="cls-5" d="M483.38,686.27c-23.06,0-17.53,12.94-17.53,12.94h-47.37c-.13-.97-.2-1.93-.2-2.81,0-4.85,.22-12.77,4.87-12.77,.15,0,.29,0,.44-.01h.02c2.08,.03,4.19-.75,5.98-2.54,.62-.62,1.12-1.27,1.53-1.94,.03-.04,.05-.07,.07-.11,.75-1.09,1.18-2.24,1.18-3.27v-.04c.02-.08,.03-.16,.04-.24h0c1.11-3.88,26,10.58,29.74,10.58,2.33,0,13.14-1.8,21.23,.2h0Z"/><path class="cls-8" d="M422.96,659.94c3.94,.91,10.37,8.58,9.45,15.53h0c-.02,.08-.04,.16-.04,.25v.04c-.18,1.12-.56,2.23-1.18,3.27-.02,.04-.04,.07-.07,.11-1.59,2.28-4.5,4.29-7.51,4.48h-.02c-8.15-.11-15.9-12.37-2.63-23.34,.74,0,1.4-.12,2-.34Z"/><path class="cls-8" d="M420.96,625.04c3.08,0,11.74,31.3,2,34.9-.8-.17-1.49-.08-2,.34-12.81,0-18.58-35.24,0-35.24Z"/><path class="cls-8" d="M420.96,597.6c4.93,0,18.06,27.44,0,27.44s-8.37-27.44,0-27.44Z"/></g><g><path class="cls-2" d="M420.96,597.6c4.93,0,18.06,27.44,0,27.44s-8.37-27.44,0-27.44Z"/><path class="cls-2" d="M420.96,625.04c3.08,0,11.74,31.3,2,34.9-.6,.22-1.26,.34-2,.34-12.81,0-18.58-35.24,0-35.24Z"/><path class="cls-2" d="M423.59,683.62c-8.15-.11-15.9-12.37-2.63-23.34,.51-.42,1.2-.51,2-.34,3.94,.91,10.37,8.58,9.45,15.53"/><path class="cls-2" d="M431.12,679.14c-.41,.67-.91,1.32-1.53,1.94-1.79,1.79-3.9,2.57-5.98,2.54"/><path class="cls-2" d="M432.37,675.76c-.18,1.12-.56,2.23-1.18,3.27"/><path class="cls-2" d="M432.41,675.48c-.01,.08-.02,.16-.04,.24"/><path class="cls-2" d="M432.37,675.76v-.04c0-.09,.02-.17,.04-.24h0c1.11-3.88,26,10.58,29.74,10.58,2.33,0,13.14-1.8,21.23,.2,5.2,1.28,9.28,4.13,9.28,10.02,0,1.07-.04,2.04-.11,2.93-.94,11.66-7.69,8.68-11.25,8.68-3.83,0-55.39,.34-58.15,.34-2.25,0-4.08-4.67-4.67-9.02-.13-.97-.2-1.93-.2-2.81,0-4.85,.22-12.77,4.87-12.77,.15,0,.29,0,.44-.01h.02c3.01-.19,5.92-2.2,7.51-4.48,.03-.04,.05-.07,.07-.11,.75-1.09,1.18-2.24,1.18-3.27Z"/><path class="cls-2" d="M492.54,699.21h-26.69s-5.53-12.94,17.53-12.94"/><polyline class="cls-2" points="418.28 699.21 418.48 699.21 465.85 699.21"/></g></g><g><g><path class="cls-8" d="M297.98,584.19c4.21,0,7.53,34.47-10.09,27.7-17.62-6.76,5.87-27.7,10.09-27.7Z"/><path class="cls-8" d="M296.06,549.6c5.87,0,21.58,34.59,1.92,34.59s-10.57-33.28-2.4-34.55c.16-.03,.32-.04,.48-.04Z"/><path class="cls-8" d="M293.76,523.43c6.26,0,18.9,24.38,2.3,26.17-.16,0-.32,.01-.48,.04-16.03,1.19-11.93-26.21-1.82-26.21Z"/><path class="cls-8" d="M293.76,500.16c5.49,0,14.68,23.27,0,23.27s-9.7-23.27,0-23.27Z"/></g><g><path class="cls-2" d="M293.76,500.16c5.49,0,14.68,23.27,0,23.27s-9.7-23.27,0-23.27Z"/><path class="cls-2" d="M295.58,549.64c-16.03,1.19-11.93-26.21-1.82-26.21,6.26,0,18.9,24.38,2.3,26.17"/><path class="cls-2" d="M296.06,549.6c5.87,0,21.58,34.59,1.92,34.59s-10.57-33.28-2.4-34.55c.16-.03,.32-.04,.48-.04Z"/><path class="cls-2" d="M297.98,584.19c4.21,0,7.53,34.47-10.09,27.7-17.62-6.76,5.87-27.7,10.09-27.7Z"/></g></g><g><g><path class="cls-1" d="M366.77,702.75h.01c-.94,11.66-7.69,8.68-11.25,8.68-3.83,0-55.39,.34-58.15,.34-2.25,0-4.08-4.67-4.68-9.02h74.07Z"/><path class="cls-1" d="M366.89,699.82c0,1.07-.04,2.04-.11,2.93h-26.7s-5.53-12.94,17.53-12.94h0c5.2,1.27,9.28,4.12,9.28,10.01Z"/><path class="cls-5" d="M357.61,689.81c-23.06,0-17.53,12.94-17.53,12.94h-47.38c-.13-.97-.2-1.92-.2-2.81,0-4.85,.23-12.77,4.88-12.77,.37,0,.74-.03,1.11-.08,1.78,.48,3.49,.21,4.85-1.15,.89-.89,1.51-1.94,1.88-3.08,.86-1.18,1.38-2.44,1.38-3.56,0-4.83,25.95,10.3,29.78,10.3,2.33,0,13.14-1.8,21.23,.2h0Z"/><path class="cls-8" d="M295.59,665.07c5.73,.65,11.94,10.92,9.63,17.79-1.49,2.04-4.03,3.83-6.73,4.23-7.42-2.01-16.05-17.18-5.24-21.71,.89,0,1.67-.11,2.34-.31Z"/><path class="cls-8" d="M287.89,639.85c4.78,0,17.37,22.33,7.7,25.22-.8-.1-1.59-.01-2.34,.31-13.78,0-20.17-25.53-5.36-25.53Z"/><path class="cls-8" d="M287.89,611.89c5.33,0,16.34,27.96,0,27.96s-10.29-27.96,0-27.96Z"/></g><g><path class="cls-2" d="M287.89,611.89c5.33,0,16.34,27.96,0,27.96s-10.29-27.96,0-27.96Z"/><path class="cls-2" d="M287.89,639.85c4.78,0,17.37,22.33,7.7,25.22-.67,.2-1.45,.31-2.34,.31-13.78,0-20.17-25.53-5.36-25.53Z"/><path class="cls-2" d="M293.25,665.38c.75-.32,1.54-.41,2.34-.31,5.73,.65,11.94,10.92,9.63,17.79-.37,1.14-.99,2.19-1.88,3.08-1.36,1.36-3.07,1.63-4.85,1.15-7.42-2.01-16.05-17.18-5.24-21.71Z"/><path class="cls-2" d="M305.22,682.86c.86-1.18,1.38-2.44,1.38-3.56,0-4.83,25.95,10.3,29.78,10.3,2.33,0,13.14-1.8,21.23,.2,5.2,1.28,9.28,4.13,9.28,10.02,0,1.07-.04,2.04-.11,2.93-.94,11.66-7.69,8.68-11.25,8.68-3.83,0-55.39,.34-58.15,.34-2.25,0-4.08-4.67-4.68-9.02-.13-.97-.2-1.92-.2-2.81,0-4.85,.23-12.77,4.88-12.77,.37,0,.74-.03,1.11-.08,2.7-.4,5.24-2.19,6.73-4.23Z"/><path class="cls-2" d="M366.77,702.75h-26.69s-5.53-12.94,17.53-12.94"/><polyline class="cls-2" points="292.5 702.75 292.7 702.75 340.08 702.75"/></g></g></svg>