<?xml version="1.0" encoding="UTF-8"?><svg id="Layer_2" xmlns="http://www.w3.org/2000/svg" viewBox="0 0 322.93 396.6"><defs><style>.cls-1{fill:#fff;}.cls-2{fill:none;stroke:#000;stroke-miterlimit:10;}.cls-3{fill:#c12f00;}.cls-4{fill:#379060;}.cls-5{fill:#00af2c;}.cls-6{fill:#024c01;}</style></defs><g id="L_Lower"><g><g><path class="cls-4" d="M151.2,244.58c.96,.55,.23,7.42-1.29,8.93-.54,.55-1.4,1.19-2.35,1.76h-.01c-.71,0-2.61,1.27-3.52,1.42-.02,0-.04,0-.06,0-.06,0-.1,.01-.15,.01-.03,0-.05,0-.07-.01-.64-.14-.99-.67-1.04-.76-.24-1.7,2.04-6.07,3.25-7.28,1.4-1.4,5.24-4.08,5.24-4.08Z"/><path class="cls-4" d="M147.56,255.27c.77,.06-1.56,6.13-3.2,7.08-1.65,.96-6.99,2.88-7.6,2.27-.6-.61,.88-4.58,2.17-5.87,1.3-1.29,3.05-2.82,3.77-2.82h.01c.04,.3,.15,.5,.34,.62,.2,.12,.47,.16,.77,.16,.04,0,.09,0,.15-.01,.02,0,.04,0,.06,0,.98-.09,2.33-.69,3.53-1.42Z"/><path class="cls-3" d="M136.76,264.63c0,.41,.05,11.69-1.37,13.11-1.17,1.17-8.37,2.97-11.09,3.62-.32,.07-.55-.31-.33-.56,1.72-1.96,6.09-7.01,7.3-9.12,1.53-2.65,5.49-7.05,5.49-7.05Z"/></g><g><path class="cls-2" d="M144.03,256.69c.98-.09,2.33-.69,3.53-1.42,.95-.57,1.81-1.21,2.35-1.76,1.52-1.51,2.25-8.38,1.29-8.93,0,0-3.84,2.68-5.24,4.08-1.21,1.21-3.49,5.58-3.25,7.28,.04,.29,.15,.49,.34,.61,.2,.12,.47,.16,.77,.16,.05,0,.09-.01,.15-.01"/><path class="cls-2" d="M142.71,255.94h-.01c-.72-.01-2.47,1.52-3.77,2.81-1.29,1.29-2.77,5.26-2.17,5.87,.61,.61,5.95-1.31,7.6-2.27,1.64-.95,3.97-7.02,3.2-7.08h-.01c-.71,0-2.61,1.27-3.52,1.42-.02,0-.04,0-.06,0-.06,.01-.11,.01-.15,.01-.03,0-.05,0-.07-.01-.64-.14-.99-.67-1.04-.76Z"/><path class="cls-2" d="M136.76,264.63c0,.41,.05,11.69-1.37,13.11-1.17,1.17-8.37,2.97-11.09,3.62-.32,.07-.55-.31-.33-.56,1.72-1.96,6.09-7.01,7.3-9.12,1.53-2.65,5.49-7.05,5.49-7.05Z"/><line class="cls-2" x1="136.76" y1="264.63" x2="136.76" y2="264.62"/></g></g></g><g id="L_LegLower"><g><g><path class="cls-1" d="M199.18,388.36c-2.29,2.81-5.74,6.38-6.82,7-1.67,.96-10.64,1.02-11.66,0-.28-.28-.53-.87-.75-1.62,0,0,10.54-1.14,11.94-2.55,1.4-1.4,5.39-4.39,5.69-4.91,.92,.95,1.6,1.77,1.6,2.08Z"/><path class="cls-1" d="M197.21,380.55c1.66,0,4.13,3.07,4.13,4.47,0,.5-.91,1.81-2.16,3.34,0-.31-.68-1.13-1.6-2.08-1.89-1.98-4.82-4.58-4.82-4.58,1.34-.39,3.43-1.15,4.45-1.15Z"/><path class="cls-4" d="M196.61,320.95v7.05c0,1.13-2.66,5.9-4.75,8.7l-.09,.12c-.87,1.16-1.64,1.95-2.05,1.95-1.4,0-1.49-5.66-1.49-7.15s7.52-9.81,8.38-10.67Z"/><path d="M192.76,381.7s2.93,2.6,4.82,4.58c-.3,.52-4.29,3.51-5.69,4.91-1.4,1.41-11.94,2.55-11.94,2.55-.56-1.95-.87-5.01-.87-6.55,0-2.12,.39-4.61,1.53-6.59,1.15-1.98,2.49-4.41,3.34-3.92h.01c.1,.64,.39,.94,1.12,1,.1,.02,.22,.02,.34,.02,1.7,0,2.67-.57,3.8-1.7,.29-.29,.55-.64,.78-1.03,.33-.39,.54-.78,.54-1.11,0,0,1.52,6.96,1.01,7.84-.2,.34,.36,.25,1.21,0Z"/><path class="cls-4" d="M195.59,342.64c0,1.15-.93,4.19-2.37,6.52-.41,.67-.87,1.29-1.36,1.78-.53,.53-1.29,1.2-2.12,1.88h-.01c-.17,.11-.37,.27-.6,.49-2.44,1.95-5.24,3.85-5.24,3.2,0-.93,.77-9.66,1.83-10.72,1.02-1.03,5.12-7.61,6.05-8.97l.09-.12s3.73,4.45,3.73,5.94Z"/><path class="cls-4" d="M193.22,349.16s1.48,5.14,1.48,6.93-2.36,7.34-4.09,9.06c-1.72,1.72-5.64,6.4-7.23,4.81s-1.97-5.39-.68-7.62c1.15-1.98,4.59-7.26,6.43-9.03l.6-.48h.01c1.55-.9,3.48-3.09,3.48-3.67Z"/><path class="cls-4" d="M191.06,364.89v6.35c0,1.17-.39,2.61-1.06,3.73-1.14,1.32-3.72,2.73-4.58,2.73-.12,0-.24,0-.34-.02-.66-.11-.38-.57-1.12-1h-.01c-.09-.53-.06-1.29-.06-2.34,0-2.51,7.17-9.45,7.17-9.45Z"/></g><g><path class="cls-2" d="M179.95,393.74s10.54-1.14,11.94-2.55c1.4-1.4,5.39-4.39,5.69-4.91"/><path class="cls-2" d="M192.76,381.7s2.93,2.6,4.82,4.58c.92,.95,1.6,1.77,1.6,2.08"/><path class="cls-2" d="M185.42,377.7c.86,0,3.44-1.41,4.58-2.73,.33-.39,.54-.78,.54-1.11"/><path class="cls-2" d="M183.96,376.68c.74,.43,.46,.89,1.12,1"/><path class="cls-2" d="M190.54,373.86s1.52,6.96,1.01,7.84c-.2,.34,.36,.25,1.21,0,1.34-.39,3.43-1.15,4.45-1.15,1.66,0,4.13,3.07,4.13,4.47,0,.5-.91,1.81-2.16,3.34-2.29,2.81-5.74,6.38-6.82,7-1.67,.96-10.64,1.02-11.66,0-.28-.28-.53-.87-.75-1.62-.56-1.95-.87-5.01-.87-6.55,0-2.12,.39-4.61,1.53-6.59,1.15-1.98,2.49-4.41,3.34-3.92"/><path class="cls-2" d="M191.06,364.89v6.35c0,1.17-.39,2.61-1.06,3.73-.23,.39-.49,.74-.78,1.03-1.13,1.13-2.1,1.7-3.8,1.7-.12,0-.24,0-.34-.02-.73-.06-1.02-.36-1.12-1h-.01c-.09-.53-.06-1.29-.06-2.34,0-2.51,7.17-9.45,7.17-9.45"/><path class="cls-2" d="M189.74,352.82c1.55-.89,3.48-3.08,3.48-3.66"/><path class="cls-2" d="M193.22,349.16s1.48,5.14,1.48,6.93-2.36,7.34-4.09,9.06c-1.72,1.72-5.64,6.4-7.23,4.81s-1.97-5.39-.68-7.62c1.15-1.98,4.59-7.26,6.43-9.03,.23-.22,.43-.38,.6-.48"/><path class="cls-2" d="M191.86,336.7s3.73,4.45,3.73,5.94c0,1.15-.93,4.19-2.37,6.52-.41,.67-.87,1.29-1.36,1.78-.53,.53-1.29,1.2-2.12,1.88h-.01l-.6,.49c-2.44,1.95-5.24,3.85-5.24,3.2,0-.93,.77-9.66,1.83-10.72,1.02-1.03,5.12-7.61,6.05-8.97"/><path class="cls-2" d="M196.61,320.95v7.05c0,1.13-2.66,5.9-4.75,8.7l-.09,.12c-.87,1.16-1.64,1.95-2.05,1.95-1.4,0-1.49-5.66-1.49-7.15s7.52-9.81,8.38-10.67"/></g></g></g><g id="R_LegUpper"><g><g><path class="cls-4" d="M205.8,262.96c0,1.96-1.21,8.78-2.8,11.53-1.6,2.76-3.23,3.75-3.92,4.94s-2.51,3.88-4.51,2.72c-2-1.15-3.27-7.24-2-9.45,1.28-2.21,3.65-9.97,5.21-9.42,1.55,.55,2.79,.61,3.94,.61s4.08-.93,4.08-.93Z"/><path class="cls-4" d="M201.85,276.49c.72-.42,.59,3.72,0,7.94-.22,1.56-.74,3.16-1.38,4.63h0v.03c-.06,.1-.1,.21-.15,.3-.04,.09-.07,.17-.11,.25-.06,.12-.11,.24-.16,.34-1.01,2.07-2.19,3.76-3.01,4.57-.22,.13-.47,.36-.73,.66-.01,.01-.01,.02-.02,.02-1.3,1.07-2.68,1.6-3.46,.81-.94-.93,.52-7.11,1.23-8.34,.71-1.22,7.02-10.77,7.79-11.21Z"/><path class="cls-4" d="M200.47,289.07c0,1.46,.57,8.25,.57,9.87,0,1.29-.39,3.76-1.62,5.32-.18,.1-.56,.45-1.04,.94-.01,.01-.03,.02-.04,.03-2.09,1.21-4.28,4.98-5.09,4.98s-1.53-7.25-.73-8.63c.67-1.17,2.38-4.74,3.77-6.35,0,0,0-.01,.02-.02,.25-.2,.49-.42,.73-.66,1.04-.6,2.35-3.17,3.01-4.57,.05-.1,.1-.22,.16-.34,.04-.09,.08-.18,.11-.25,.05-.09,.09-.2,.14-.3,0-.01,0-.02,0-.02Z"/><path class="cls-4" d="M199.42,304.26s1.19,5.66,1.19,7.83-1.15,5.78-2.55,7.19c-1.4,1.4-3.87,5.02-4.85,5.02s-1.49-4.68-1.49-7.49,1.56-6.22,2.49-7.15c.68-.68,2.82-3.08,4.17-4.46,.4-.23,.75-.56,1.04-.94Z"/></g><g><path class="cls-2" d="M199.42,304.26s1.19,5.66,1.19,7.83-1.15,5.78-2.55,7.19c-1.4,1.4-3.87,5.02-4.85,5.02s-1.49-4.68-1.49-7.49,1.56-6.22,2.49-7.15c.68-.68,2.82-3.08,4.17-4.46,.48-.49,.86-.84,1.04-.94"/><path class="cls-2" d="M200.46,289.09v-.02"/><path class="cls-2" d="M200.21,289.64c.04-.09,.08-.18,.11-.25"/><path class="cls-2" d="M196.31,295.21c.26-.3,.51-.53,.73-.66,1.04-.6,2.35-3.17,3.01-4.57"/><path class="cls-2" d="M200.47,289.07c0,1.46,.57,8.25,.57,9.87,0,1.29-.39,3.76-1.62,5.32-.29,.38-.64,.71-1.04,.94-.01,.01-.03,.02-.04,.03-2.09,1.21-4.28,4.98-5.09,4.98s-1.53-7.25-.73-8.63c.67-1.17,2.38-4.74,3.77-6.35"/><path class="cls-2" d="M196.29,295.23c-1.3,1.07-2.68,1.6-3.46,.81-.94-.93,.52-7.11,1.23-8.34,.71-1.22,7.02-10.77,7.79-11.21,.72-.42,.59,3.72,0,7.94-.22,1.56-.74,3.16-1.38,4.63h0s0,.02,0,.03c-.05,.1-.09,.21-.14,.3-.04,.09-.07,.17-.11,.25-.06,.12-.11,.24-.16,.34-1.01,2.07-2.19,3.76-3.01,4.57-.24,.24-.48,.46-.73,.66-.01,.01-.01,.02-.02,.02Z"/><path class="cls-2" d="M205.8,262.96c0,1.96-1.21,8.78-2.8,11.53-1.6,2.76-3.23,3.75-3.92,4.94s-2.51,3.88-4.51,2.72c-2-1.15-3.27-7.24-2-9.45,1.28-2.21,3.65-9.97,5.21-9.42,1.55,.55,2.79,.61,3.94,.61s4.08-.93,4.08-.93Z"/></g></g></g><g id="R_lower"><g><g><path class="cls-3" d="M322.35,275.59c.22,.25-.02,.63-.34,.55-2.72-.65-9.91-2.44-11.09-3.62-1.45-1.45-1.37-13.11-1.37-13.11,0,0,3.96,4.41,5.49,7.05,1.22,2.11,5.59,7.17,7.31,9.13Z"/><path class="cls-4" d="M307.38,253.53c1.29,1.3,2.78,5.27,2.17,5.88-.61,.6-5.94-1.32-7.59-2.27-1.66-.95-4-7.08-3.2-7.08,1.18,.71,2.48,1.29,3.45,1.41h.03c.12,.03,.23,.04,.31,.02h.01c.28,0,.51-.05,.7-.16,.19-.1,.3-.31,.34-.58h0s.02-.04,.02-.04c.71,0,2.47,1.53,3.76,2.82Z"/><path class="cls-4" d="M300.36,243.45c1.2,1.2,3.49,5.59,3.24,7.29h0c-.1,.15-.45,.61-1.04,.75h-.01c-.1,0-.2-.01-.31-.02h-.03c-.93-.21-2.76-1.41-3.45-1.41-.95-.56-1.81-1.21-2.36-1.76-1.51-1.52-2.24-8.38-1.28-8.94,0,0,3.84,2.68,5.24,4.09Z"/></g><g><path class="cls-2" d="M302.21,251.47c-.97-.12-2.27-.7-3.45-1.41-.95-.56-1.81-1.21-2.36-1.76-1.51-1.52-2.24-8.38-1.28-8.94,0,0,3.84,2.68,5.24,4.09,1.2,1.2,3.49,5.59,3.24,7.29"/><path class="cls-2" d="M302.55,251.49c-.1,0-.2-.01-.31-.02"/><path class="cls-2" d="M303.6,250.75c-.04,.27-.15,.48-.34,.58-.19,.11-.42,.16-.7,.16"/><path class="cls-2" d="M303.6,250.74s.02-.03,.02-.03c.71,0,2.47,1.53,3.76,2.82,1.29,1.3,2.78,5.27,2.17,5.88-.61,.6-5.94-1.32-7.59-2.27-1.66-.95-4-7.08-3.2-7.08,.69,0,2.52,1.2,3.45,1.41h.03c.12,.03,.23,.04,.31,.02h.01c.59-.14,.94-.6,1.04-.74h0Z"/><path class="cls-2" d="M309.55,259.41s-.08,11.66,1.37,13.11c1.18,1.18,8.37,2.97,11.09,3.62,.32,.08,.56-.3,.34-.55-1.72-1.96-6.09-7.02-7.31-9.13-1.53-2.64-5.49-7.05-5.49-7.05Z"/></g></g></g><g id="R_LegLower"><g><g><path class="cls-1" d="M243.47,384.06c.08,.89,.02,1.82-.16,2.72h-.01l-2.48-1.64-.02-.02c-2.1-1.62-4.73-3.83-4.73-3.83,2.27-1.09,5.77-1.08,6.5-.35,.18,.32,.34,.66,.47,1.03,0,.01,0,.02,0,.03,.17,.58,.32,1.31,.42,2.03,.01,.01,.01,.02,0,.03Z"/><path class="cls-1" d="M243.3,386.78s-1,2.87-3.87,5.12c-1.45,.79-3.42,1.72-5.54,2.45-.02,0-.03,0-.05,0-7.24,1.28-10.37,1.69-12.05-2.02-.01-.01-.02-.02-.02-.03,0,0,8.62,.16,10.61-.99,2-1.15,8.42-6.2,8.42-6.2l.02,.02c1.19,.92,2.22,1.64,2.48,1.64Z"/><path d="M236.07,381.29s2.63,2.21,4.73,3.83c0,0-6.42,5.05-8.42,6.2-1.99,1.15-10.61,.99-10.61,.99-1.28-3.71,.25-9.55,.25-11.03,0-1.92,4.59-8.95,5.23-9.32,.17-.1,.28-.16,.34-.19,.01,.02,.01,.03,.01,.05,.02,.34,.19,2.23,1.88,3.2,1.75,1.01,4.05-1.39,4.29-1.65,.01-.02,.02-.02,.02-.02,0,0-.61,9.03,0,9.03,.21,0,1.11-.53,2.28-1.09Z"/><path class="cls-4" d="M240.91,345.83c0,2.43-2.88,5.61-4.59,6.6-.34,.2-.71,.51-1.09,.88h0c-.08,.04-.22,.18-.39,.4,0,0-.02,.01-.02,.02-1.41,1.46-2.92,3.46-3.91,3.46-1.36,0-2.98-3.91-2.98-5.44s1.6-7.12,2.77-7.79c.64-.37,2.14-1.69,3.43-2.93t0,0c.49-.35,1.1-.98,1.72-1.75,.01,0,.01-.01,.02-.02,.21-.25,.37-.44,.44-.56,0,0,4.59,4.72,4.59,7.14Z"/><path class="cls-4" d="M235.97,322.89s3.49,8.47,3.49,10.05c0,.92-1.56,3.65-3.14,5.75-.15,.19-.3,.38-.44,.56-.01,.01-.01,.02-.02,.02-.41,.46-1.04,1.09-1.72,1.75t0,0c-.26,.19-.49,.29-.67,.29-1.49,0-1.49-5.79-1.49-7.45s2.65-10.2,4-10.98Z"/><path class="cls-4" d="M227.65,371.74s-.04,.01-.06,.03c-.33-1.38-.34-2.79-.34-3.34,0-1.19,1.45-5.28,2.26-6.68,.71-1.23,4.01-6.46,5.31-8.02,0-.01,.01-.02,.02-.02,.13-.14,.26-.27,.39-.4,.11,.26,3.68,8.69,3.68,11.03,0,1.7-2.47,6.44-5.12,9.01,0,0-.01,0-.02,.02-1.04,.99-2.11,1.65-3.07,1.65-1.84,0-2.7-1.57-3.1-3.2v-.05l.05-.03Z"/></g><g><path class="cls-2" d="M240.82,385.14l2.48,1.64s-1,2.87-3.87,5.12c-1.38,1.09-3.19,2.04-5.54,2.45-.02,0-.03,0-.05,0-7.24,1.28-10.37,1.69-12.05-2.02"/><path class="cls-2" d="M221.77,392.31s8.62,.16,10.61-.99c2-1.15,8.42-6.2,8.42-6.2"/><path class="cls-2" d="M243.04,381.97c-.15-.49-.31-.87-.47-1.03-.73-.73-4.23-.74-6.5,.35"/><path class="cls-2" d="M243.47,384.03c-.1-.72-.25-1.45-.42-2.03"/><path class="cls-2" d="M236.07,381.29s2.63,2.21,4.73,3.83l.02,.02c1.19,.92,2.22,1.64,2.48,1.64h.01c.36-.03,.35-1.34,.16-2.72"/><path class="cls-2" d="M227.67,371.73h-.02l-.05,.04v.05c.02,.34,.19,2.23,1.88,3.2,1.75,1.01,4.05-1.39,4.29-1.65"/><path class="cls-2" d="M233.79,373.35s-.61,9.03,0,9.03c.21,0,1.11-.53,2.28-1.09,2.21-1.08,5.37-2.31,6.5-.35,.18,.32,.34,.66,.47,1.03,0,.01,0,.02,0,.03,.22,.63,.37,1.31,.42,2.03,.01,.01,.01,.02,0,.03,.08,.89,.02,1.82-.16,2.72-.42,1.93-1.46,3.74-3.21,4.75-.21,.12-.43,.25-.67,.37-1.45,.79-3.42,1.72-5.54,2.45-3.62,1.25-7.64,1.96-10.17,.5-.95-.55-1.56-1.44-1.93-2.51-.01-.01-.02-.02-.02-.03-1.28-3.71,.25-9.55,.25-11.03,0-1.92,4.59-8.95,5.23-9.32,.17-.1,.28-.16,.34-.19,.02-.02,.04-.02,.06-.03"/><path class="cls-2" d="M234.84,353.71c.17-.22,.31-.36,.39-.41"/><path class="cls-2" d="M235.23,353.3h0c.11,.27,3.68,8.7,3.68,11.04,0,1.7-2.47,6.44-5.12,9.01,0,0-.01,0-.02,.02-1.04,.99-2.11,1.65-3.07,1.65-1.84,0-2.7-1.57-3.1-3.2,0-.02,0-.03-.01-.05-.33-1.38-.34-2.79-.34-3.34,0-1.19,1.45-5.28,2.26-6.68,.71-1.23,4.01-6.46,5.31-8.02"/><path class="cls-2" d="M235.88,339.25c.21-.25,.37-.44,.44-.56"/><path class="cls-2" d="M234.14,341.02c.68-.66,1.31-1.29,1.72-1.75"/><path class="cls-2" d="M236.32,338.69s4.59,4.72,4.59,7.14-2.88,5.61-4.59,6.6c-.34,.2-.71,.51-1.09,.88-.13,.13-.26,.26-.39,.4,0,0-.02,.01-.02,.02-1.41,1.46-2.92,3.46-3.91,3.46-1.36,0-2.98-3.91-2.98-5.44s1.6-7.12,2.77-7.79c.64-.37,2.14-1.69,3.43-2.93"/><path class="cls-2" d="M235.97,322.89s3.49,8.47,3.49,10.05c0,.92-1.56,3.65-3.14,5.75-.15,.19-.3,.38-.44,.56-.01,.01-.01,.02-.02,.02-.62,.77-1.23,1.4-1.72,1.75t0,0c-.26,.19-.49,.29-.67,.29-1.49,0-1.49-5.79-1.49-7.45s2.65-10.2,4-10.98"/></g></g></g><g><g id="OuterBody"><g><g><path class="cls-1" d="M284.87,118.94c0,9.02-18.45,16.97-20.6,18.21-1.92-1.11-21.1-9.53-32.25-9.53s-40.94,2.21-40.94,5.36,6.04,8.94,6.04,11.06-2.97,2.64-2.97,6.39,1.48,5.95,3.41,7.88c0,13-8,24-12,28s-12,3-12,3c0,0-10.64-3.36-13.2-4.84s-3.45-9.46-2.47-11.15,3.84-7.35,5.79-10.72c1.94-3.37,5.32-11.11,3.32-14.58-2.01-3.47-12.6-17.42-14.13-18.95-1.53-1.54-2.72-5.54-2.72-8.26s3.58-11,6.63-12.77c3.06-1.76,12.37-8.68,16.78-8.68s13.75,.08,16.51-1.51c2.76-1.6,25.44-13.47,30.29-13.47s23.06,8.26,26.64,8.26,11.3-2.43,14.04-.85,23.83,18.13,23.83,27.15Z"/><path class="cls-5" d="M273.56,182.31c0,10-8,16-8,24s8,15.4,8,24.2-13,14.8-16,19.8-8,12.26-12.5,12.63-17.5-3.63-21.5-3.63-18.57,3.3-23.29,3.65c-4.71,.35-9.71-8.65-12.71-11.65s-17-10-17-20,6.98-16.34,6.99-22.17-3.99-15.83-3.99-19.83c0,0,8,1,12-3s12-15,12-28c1.93,1.93,22.63,1,26.54,1,.75,0,2.17-.16,3.96-.42t.02,0c7.79-.65,16.61-2.01,21.8-3.39,.13-.03,.25-.06,.38-.08,.37-.03,.66-.04,.85-.02,.05,0,.1,.01,.15,.02,1.46,.39,12.33,8.14,15.73,11.94,0,0,.02,.01,.02,.02,3.83,4.94,6.55,10.51,6.55,14.93Z"/><path class="cls-1" d="M270.91,155.37c0,4.86-3.11,13.05-3.11,13.05-.17-.29-.44-.64-.79-1.04,0-.01-.02-.02-.02-.02-4.6-5.97-10.81-11.01-15.73-11.94-.05-.01-.1-.02-.15-.02-.28-.04-.57-.03-.85,.02-3.65,.28-15.54,2.52-22.18,3.47t-.02,0c-3.09,.27-6.02,.42-8.5,.42-8,0-22-1-22-1-1.93-1.93-3.41-4.14-3.41-7.88s2.97-4.26,2.97-6.39-6.04-7.91-6.04-11.06,29.79-5.36,40.94-5.36,30.33,8.42,32.25,9.53c1.93,1.11,6.64,13.36,6.64,18.22Z"/></g><g><path class="cls-2" d="M173.56,189.31s-10.64-3.36-13.2-4.84-3.45-9.46-2.47-11.15,3.84-7.35,5.79-10.72c1.94-3.37,5.32-11.11,3.32-14.58-2.01-3.47-12.6-17.42-14.13-18.95-1.53-1.54-2.72-5.54-2.72-8.26s3.58-11,6.63-12.77c3.06-1.76,12.37-8.68,16.78-8.68s13.75,.08,16.51-1.51c2.76-1.6,25.44-13.47,30.29-13.47s23.06,8.26,26.64,8.26,11.3-2.43,14.04-.85,23.83,18.13,23.83,27.15-18.45,16.97-20.6,18.21"/><path class="cls-2" d="M267.01,167.38c.35,.4,.62,.75,.79,1.04"/><path class="cls-2" d="M251.26,155.42c1.46,.39,12.33,8.14,15.73,11.94"/><path class="cls-2" d="M228.08,158.89c6.64-.95,18.53-3.19,22.18-3.47,.37-.03,.66-.04,.85-.02"/><path class="cls-2" d="M267.8,168.42s3.11-8.19,3.11-13.05-4.71-17.11-6.64-18.22c-1.92-1.11-21.1-9.53-32.25-9.53s-40.94,2.21-40.94,5.36,6.04,8.94,6.04,11.06-2.97,2.64-2.97,6.39,1.48,5.95,3.41,7.88,22.63,1,26.54,1c.75,0,2.17-.16,3.96-.42"/><path class="cls-2" d="M197.56,158.31s14,1,22,1c2.48,0,5.41-.15,8.5-.42t.02,0c7.79-.65,16.61-2.01,21.8-3.39,.13-.03,.25-.06,.38-.08,.28-.05,.57-.06,.85-.02,.05,0,.1,.01,.15,.02,4.92,.93,11.13,5.97,15.73,11.94,0,0,.02,.01,.02,.02,3.83,4.94,6.55,10.51,6.55,14.93,0,10-8,16-8,24s8,15.4,8,24.2-13,14.8-16,19.8-8,12.26-12.5,12.63-17.5-3.63-21.5-3.63-18.57,3.3-23.29,3.65c-4.71,.35-9.71-8.65-12.71-11.65s-17-10-17-20,6.98-16.34,6.99-22.17-3.99-15.83-3.99-19.83c0,0,8,1,12-3s12-15,12-28Z"/></g></g></g><g><path class="cls-6" d="M248.27,225.66c0,4.72-5.61,12.51-5.61,16.34s2.4,7.28,2.4,10.85v10.09s-17.74-3.63-21.5-3.63-20.61,3.65-23.29,3.65c0,0-.28-.52,0-3.09,.29-2.56-1.71-2.56-1.71-5.56s4-13,4-16-6-13-6-17,6-6.88,6-9.44,2.65-7.72,6.52-9.95c3.87-2.24,7.66-7.79,10.72-7.79s6.32,3.64,7.79,5.11c1.47,1.46,11.82,10.06,13.53,13.02s7.15,8.68,7.15,13.4Z"/><path class="cls-2" d="M200.27,262.96s-.28-.52,0-3.09c.29-2.56-1.71-2.56-1.71-5.56s4-13,4-16-6-13-6-17,6-6.88,6-9.44,2.65-7.72,6.52-9.95c3.87-2.24,7.66-7.79,10.72-7.79s6.32,3.64,7.79,5.11c1.47,1.46,11.82,10.06,13.53,13.02s7.15,8.68,7.15,13.4-5.61,12.51-5.61,16.34,2.4,7.28,2.4,10.85v10.09s-17.74-3.63-21.5-3.63-20.61,3.65-23.29,3.65Z"/></g></g><g><g><path class="cls-4" d="M245.06,276.57c1.62,0,4.53,3.81,4.53,5.05,0,.75-2.64,4.56-5.14,7.38l-.06,.06c-.27,.26-1.47,1.39-2.8,2.66-.41,.29-.77,.45-1.04,.45-2.04,0-2.49-5.91-1.4-7.8s5.02-7.46,5.91-7.8Z"/><path class="cls-4" d="M247.1,262.34c2.04-.6,3.66,6.34,3.66,9.09,0,1.98-3.25,4.36-5.7,5.14-.93,.3-1.74,.36-2.21,.09-1.72-.99-3.7-4.4-3.7-6.76s.76-7.45,.76-7.45c1.38,.79,5.15,.49,7.19-.11Z"/><path class="cls-4" d="M244.45,289s2.58,4.99,2.1,7.38c-.48,2.4-3.14,4.62-4.37,5.84-.68,.68-2.27,1.39-3.69,1.74-1.16,.29-2.2,.35-2.57-.01-.81-.82,.35-7.05,1.82-8.52,.73-.73,2.37-2.3,3.85-3.71,.79-.54,1.78-1.52,2.8-2.66l.06-.06Z"/><path class="cls-4" d="M238.49,303.96s4.46,5.79,4.46,8.42-6.42,11.15-8.21,11.15-3.23-3.7-3.23-5.23,6.98-12.72,6.98-14.34Z"/></g><g><path class="cls-2" d="M238.49,303.96s4.46,5.79,4.46,8.42-6.42,11.15-8.21,11.15-3.23-3.7-3.23-5.23,6.98-12.72,6.98-14.34Z"/><path class="cls-2" d="M244.45,289s2.58,4.99,2.1,7.38c-.48,2.4-3.14,4.62-4.37,5.84-.68,.68-2.27,1.39-3.69,1.74-1.16,.29-2.2,.35-2.57-.01-.81-.82,.35-7.05,1.82-8.52,.73-.73,2.37-2.3,3.85-3.71,1.33-1.27,2.53-2.4,2.8-2.66l.06-.06"/><path class="cls-2" d="M245.06,276.57c1.62,0,4.53,3.81,4.53,5.05,0,.75-2.64,4.56-5.14,7.38l-.06,.06c-1.02,1.14-2.01,2.12-2.8,2.66-.41,.29-.77,.45-1.04,.45-2.04,0-2.49-5.91-1.4-7.8s5.02-7.46,5.91-7.8"/><path class="cls-2" d="M239.91,262.45s-.76,5.08-.76,7.45,1.98,5.77,3.7,6.76c.47,.27,1.28,.21,2.21-.09,2.45-.78,5.7-3.16,5.7-5.14,0-2.75-1.62-9.69-3.66-9.09s-5.81,.9-7.19,.11Z"/></g></g><g id="L_Upper"><g><g><path class="cls-4" d="M175.91,199.85c2.02,1.17-.44,13.59-2.02,16.32-.61,1.05-1.8,1.96-3.22,2.57l-.09,.03c-.37,.1-1.87,.53-3.3,.8h-.02c-1.19,.08-2.35-.09-3.31-.55-.68-.87-1.3-2.08-1.3-2.08-.24-3.54,3.45-10.33,5.83-12.7,2.96-2.97,7.43-4.39,7.43-4.39Z"/><path class="cls-4" d="M170.67,218.74c.52,.91-1.68,6.03-3.02,8.35-1.16,2.01-5.05,6-7.49,6.19h-.01c-.99-.19-1.62-.93-1.62-.93-1.05-2.31,.63-8.13,.63-8.13,0-2.62,3.49-7.28,3.49-7.28,.05,.88,.35,1.55,.98,1.91,.1,.06,.21,.12,.32,.17,.17,.22,.35,.42,.52,.57,.36,.32,1.54,.21,2.79-.02h.02c1.12-.07,2.27-.35,3.3-.8l.09-.03Z"/><path class="cls-4" d="M160.16,233.28c.97,.25-1.03,7.4-1.98,9.02-.94,1.63-5.28,4.42-6.24,3.87-.95-.55,.48-6.35,1.58-8.25,1.1-1.91,5.01-5.57,5.01-5.57,.15,.33,.36,.58,.63,.74,.29,.16,.62,.22,.99,.19h.01Z"/></g><g><path class="cls-2" d="M167.28,219.57c1.12-.07,2.27-.35,3.3-.8"/><path class="cls-2" d="M170.67,218.74c1.42-.61,2.61-1.52,3.22-2.57,1.58-2.73,4.04-15.15,2.02-16.32,0,0-4.47,1.42-7.43,4.39-2.38,2.37-6.07,9.16-5.83,12.7,.05,.88,.35,1.55,.98,1.91,.1,.06,.21,.12,.32,.17,.96,.46,2.12,.63,3.31,.55"/><path class="cls-2" d="M160.16,233.28c2.44-.19,6.33-4.18,7.49-6.19,1.34-2.32,3.54-7.44,3.02-8.35l-.09,.03c-.37,.1-1.87,.53-3.3,.8h-.02c-1.25,.23-2.43,.34-2.79,.02-.17-.15-.35-.35-.52-.57-.68-.87-1.3-2.08-1.3-2.08,0,0-3.49,4.66-3.49,7.28,0,0-1.68,5.82-.63,8.13,.15,.33,.36,.58,.63,.74,.29,.16,.62,.22,.99,.19"/><path class="cls-2" d="M158.53,232.35s-3.91,3.66-5.01,5.57c-1.1,1.9-2.53,7.7-1.58,8.25,.96,.55,5.3-2.24,6.24-3.87,.95-1.62,2.95-8.77,1.98-9.02h-.01c-.99-.19-1.62-.93-1.62-.93Z"/></g></g></g><g id="R_upper"><g><g><path class="cls-4" d="M292.8,232.19c1.1,1.91,2.53,7.71,1.57,8.26-.95,.55-5.3-2.24-6.24-3.87-.94-1.62-2.94-8.78-1.97-9.02h.01c.37,.03,.7-.03,.99-.2,.27-.16,.47-.41,.62-.73,0,0,3.92,3.66,5.02,5.56Z"/><path class="cls-4" d="M287.16,218.49s1.68,5.84,.62,8.14c0,0-.62,.73-1.61,.93h-.01c-2.44-.19-6.33-4.19-7.49-6.2-1.34-2.32-3.55-7.43-3.02-8.34,0,0,.01,0,.04,0,1.04,.45,2.21,.74,3.35,.81h.02c1.24,.23,2.43,.34,2.79,.03,.17-.15,.34-.34,.51-.56,0,0,0-.01,.01-.01,.11-.05,.22-.11,.32-.17,.62-.36,.92-1.04,.98-1.92,0,0,3.49,4.66,3.49,7.28Z"/><path class="cls-4" d="M277.84,198.51c2.38,2.38,6.06,9.17,5.83,12.7,0,0-.62,1.22-1.3,2.09-.01,0-.01,.01-.01,.01-.96,.45-2.12,.61-3.3,.53h-.02c-1.5-.28-3.08-.73-3.35-.81-.03,0-.04,0-.04,0-1.43-.61-2.62-1.52-3.23-2.57-1.57-2.74-4.04-15.15-2.02-16.32,0,0,4.47,1.41,7.44,4.38Z"/></g><g><path class="cls-2" d="M279.04,213.84c-1.14-.07-2.31-.36-3.35-.81"/><path class="cls-2" d="M282.36,213.31c-.96,.45-2.12,.61-3.3,.53"/><path class="cls-2" d="M275.65,213.02c-1.43-.61-2.62-1.52-3.23-2.57-1.57-2.74-4.04-15.15-2.02-16.32,0,0,4.47,1.41,7.44,4.38,2.38,2.38,6.06,9.17,5.83,12.7-.06,.88-.36,1.56-.98,1.92-.1,.06-.21,.12-.32,.17"/><path class="cls-2" d="M286.16,227.56c-2.44-.19-6.33-4.19-7.49-6.2-1.34-2.32-3.55-7.43-3.02-8.34,0,0,.01,0,.04,0,.27,.08,1.85,.53,3.35,.81h.02c1.24,.23,2.43,.34,2.79,.03,.17-.15,.34-.34,.51-.56,0,0,0-.01,.01-.01,.68-.87,1.3-2.09,1.3-2.09,0,0,3.49,4.66,3.49,7.28,0,0,1.68,5.84,.62,8.14-.15,.32-.35,.57-.62,.73-.29,.17-.62,.23-.99,.2"/><path class="cls-2" d="M287.78,226.63s3.92,3.66,5.02,5.56c1.1,1.91,2.53,7.71,1.57,8.26-.95,.55-5.3-2.24-6.24-3.87-.94-1.62-2.94-8.78-1.97-9.02h.01c.99-.2,1.61-.93,1.61-.93Z"/></g></g></g></svg>