<?xml version="1.0" encoding="UTF-8"?><svg id="Layer_1" xmlns="http://www.w3.org/2000/svg" viewBox="0 0 665.86 440.07"><defs><style>.cls-1{fill:#fff;}.cls-2{fill:none;}.cls-2,.cls-3{stroke:#000;stroke-miterlimit:10;}.cls-4{fill:#37913a;}.cls-5{fill:#3a9163;}.cls-6{fill:#00af2c;}.cls-7{fill:#c22f00;}.cls-8{fill:#024c01;}.cls-9{fill:#021901;}</style></defs><g><g><path class="cls-1" d="M231.57,216.27l2.68,7.45c-1.35,.15-2.8,.21-4.33,.21-.28,0-.55,0-.83,0-.35-.01-.68-.01-.97-.02-.14,0-.29,0-.43-.01-.17,0-.34-.01-.52-.02-.12,0-.24-.01-.36-.02l4.76-7.58Z"/><path class="cls-1" d="M212.64,214.91l1.34,7.91c-2.09-.19-4.22-.38-6.36-.53l5.02-7.38Z"/><path class="cls-1" d="M417.07,55.35c0,11.1-8.61,27.45-8.61,37.66s-13.27,37.1-33.02,37.1-50.82-8.71-57.7-15.48c-16.81-19.78-50.66-31.65-86.17-36.94-36.32-5.41-61.72,18.19-73.82,32.51,0,0-28.25-34.85-28.25-48.49S132.24-5.72,178.27,1.09c46.02,6.81,59.98,11.92,84.15,11.92S333.57,.5,349.91,.5s36.51,20.44,44.6,25.1c8.08,4.67,22.56,18.64,22.56,29.75Z"/><path class="cls-6" d="M328.78,143.5c3.29,4.49,5.23,9.74,4.79,15.89-1.8,25.44-12.29,30.39-12.29,43.62,0,2.73-1.29,6.33-3.59,10.32-3.74-6.48-31.44-21.26-41.14-21.26-6.48,0-23,5.34-36.03,8.87,3.11-5.32,31.66-10.84,35.77-13.21s7.22-7.75,10.33-13.13c3.1-5.38,8.31-5.38,17.25-5.38,0,0-31.68-16.16-36.73-21.21s-12.53-18.81-13.57-23.09l-2.87-11.79,.15-.04c3.91-3.91,17.36-13.61,22.47-13.61s11,17.25,17.1,20.78c4.63,2.68,28.08,9.16,38.36,23.23h0Z"/><path class="cls-1" d="M317.74,114.63c6.99,8.22,11.04,17.81,11.04,28.86-10.28-14.07-33.73-20.55-38.36-23.23-6.1-3.53-12-20.78-17.1-20.78s-18.56,9.7-22.47,13.61l-.15,.04-2.6-10.7-5.76,9.98c-2.06-3.56-15.32-12.93-27.24-12.93s-23.83,18.05-49.63,18.05c-6.31,0-11.46,1.12-15.66,2.9h0c.59-.6,3.28-4.73,7.94-10.23,12.1-14.32,37.5-37.92,73.82-32.51,35.51,5.29,69.36,17.16,86.17,36.94Z"/><path class="cls-8" d="M234.25,223.72l-2.68-7.45-4.76,7.58h-.01s.13,.02,.37,.02c.14,.01,.31,.01,.52,.02,.14,.01,.29,.01,.43,.01,.33,.01,.65,.02,.97,.02,.28,0,.55,0,.83,0,1.88,.02,3.98,0,4.33-.21Zm-20.27-.9l-1.34-7.91-5.02,7.38s5.16,.65,6.38,.65l-.02-.12Zm103.71-9.49c-8.8,15.32-32.39,36.4-54.41,36.4-27.75,0-29.18-8.37-42.25-8.37s-30.1,8.37-47.46,8.37c-12.92,0-26.33-12.03-34.09-21.21h.01s13.23-31.34,43.61-31.34c20.6,0,28.39,3.14,34.18,5.16h0c2.75,.97,5.04,1.68,8.05,1.68s8.71-1.32,15.18-3.07h0c13.03-3.54,29.55-8.88,36.03-8.88,9.7,0,37.4,14.78,41.14,21.26Z"/><path class="cls-4" d="M303.87,169.22c-8.94,0-14.15,0-17.25,5.38-3.11,5.38-6.22,10.76-10.33,13.13s-32.66,7.89-35.77,13.21h0c-6.47,1.76-12.08,3.08-15.18,3.08s-5.3-.71-8.05-1.67h0c-.52-.47-17.06-15.12-26.19-15.12s-18.2-6.7-18.2-15.48-7.78-22.57-15.83-22.57c0,0,28.6-5.11,37.53-5.11s35.94-20.26,45.93-20.26l6.85,11.86,6.2-10.75c1.04,4.28,8.52,18.04,13.57,23.09s36.73,21.21,36.73,21.21Z"/><polygon class="cls-7" points="250.7 113.13 253.57 124.92 247.37 135.67 240.52 123.81 242.34 112.41 248.1 102.43 250.7 113.13"/><path class="cls-6" d="M242.34,112.41l-1.82,11.4c-9.99,0-36.99,20.26-45.93,20.26s-37.53,5.11-37.53,5.11c8.05,0,15.83,13.79,15.83,22.57s8.94,15.48,18.2,15.48,25.67,14.65,26.19,15.11c-5.79-2.02-13.58-5.16-34.18-5.16-30.38,0-43.61,31.33-43.61,31.33h-.01c-2.66-3.15-4.66-5.96-5.74-7.84-4.24-7.35-4.24-12.6-4.24-19.75s9.01-17.23,9.01-26.32-5.45-26.78-5.45-32.57c0-4.37,3.77-16.13,16.75-21.6,4.2-1.78,9.35-2.9,15.66-2.9,25.8,0,37.72-18.05,49.63-18.05s25.18,9.37,27.24,12.93Z"/><path class="cls-8" d="M234.25,223.72c-.35,.21-2.45,.23-4.33,.21,1.53,0,2.98-.06,4.33-.21Z"/><path class="cls-8" d="M228.12,223.9c.29,.01,.62,.01,.97,.02-.32,0-.64-.01-.97-.02Z"/><path class="cls-8" d="M227.17,223.87c.18,.01,.35,.02,.52,.02-.21-.01-.38-.01-.52-.02Z"/><path class="cls-8" d="M227.17,223.87c-.24,0-.37-.01-.37-.01h.01c.12,0,.24,.01,.36,.01Z"/><path class="cls-8" d="M213.98,222.82l.02,.12c-1.22,0-6.38-.65-6.38-.65,2.14,.15,4.27,.34,6.36,.53Z"/></g><g><path class="cls-2" d="M217.28,202.34c-.52-.46-17.06-15.11-26.19-15.11s-18.2-6.7-18.2-15.48-7.78-22.57-15.83-22.57c0,0,28.6-5.11,37.53-5.11s35.94-20.26,45.93-20.26"/><path class="cls-2" d="M328.78,143.5c3.29,4.49,5.23,9.74,4.79,15.89-1.8,25.44-12.29,30.39-12.29,43.62,0,2.73-1.29,6.33-3.59,10.32-8.8,15.32-32.39,36.4-54.41,36.4-27.75,0-29.18-8.37-42.25-8.37s-30.1,8.37-47.46,8.37c-12.92,0-26.33-12.03-34.09-21.21-2.66-3.16-4.66-5.97-5.74-7.85-4.24-7.35-4.24-12.6-4.24-19.75s9.01-17.23,9.01-26.32-5.45-26.78-5.45-32.57c0-4.37,3.77-16.13,16.75-21.6,4.2-1.78,9.35-2.9,15.66-2.9,25.8,0,37.72-18.05,49.63-18.05s25.18,9.37,27.24,12.93l5.76-9.98,2.6,10.7,2.87,11.79-6.2,10.75-6.85-11.86,1.82-11.4"/><path class="cls-2" d="M250.85,113.09c3.91-3.91,17.36-13.61,22.47-13.61s11,17.25,17.1,20.78c4.63,2.68,28.08,9.16,38.36,23.23"/><path class="cls-2" d="M240.52,200.94c13.03-3.53,29.55-8.87,36.03-8.87,9.7,0,37.4,14.78,41.14,21.26"/><path class="cls-2" d="M139.49,228.51s13.23-31.33,43.61-31.33c20.6,0,28.39,3.14,34.18,5.16h0c2.75,.97,5.04,1.68,8.05,1.68s8.71-1.32,15.18-3.07"/><path class="cls-2" d="M240.52,200.95h0c3.11-5.33,31.66-10.85,35.77-13.22s7.22-7.75,10.33-13.13c3.1-5.38,8.31-5.38,17.25-5.38,0,0-31.68-16.16-36.73-21.21s-12.53-18.81-13.57-23.09"/><path class="cls-2" d="M229.92,223.93c1.53,0,2.98-.06,4.33-.21,2.47-.27,4.6-.82,6.27-1.78"/><path class="cls-2" d="M228.12,223.9c.33,.01,.65,.02,.97,.02"/><path class="cls-2" d="M198.79,221.94c2.93,0,5.89,.14,8.83,.35,2.14,.15,4.27,.34,6.36,.53,4.54,.42,8.9,.87,12.83,1.03,.12,.01,.24,.02,.36,.02,.18,.01,.35,.02,.52,.02"/><path class="cls-2" d="M149.81,120.42c.59-.59,3.28-4.72,7.94-10.22,12.1-14.32,37.5-37.92,73.82-32.51,35.51,5.29,69.36,17.16,86.17,36.94,6.99,8.22,11.04,17.81,11.04,28.86h0"/><path class="cls-2" d="M157.75,110.2s-28.25-34.85-28.25-48.49S132.24-5.72,178.27,1.09c46.02,6.81,59.98,11.92,84.15,11.92S333.57,.5,349.91,.5s36.51,20.44,44.6,25.1c8.08,4.67,22.56,18.64,22.56,29.75s-8.61,27.45-8.61,37.66-13.27,37.1-33.02,37.1-50.82-8.71-57.7-15.48l-.05-.05"/><path class="cls-2" d="M234.25,223.72l-2.68-7.45-4.76,7.58h-.01s.13,.02,.37,.02c.14,.01,.31,.01,.52,.02,.14,.01,.29,.01,.43,.01,.29,.01,.62,.01,.97,.02,.28,0,.55,0,.83,0,1.88,.02,3.98,0,4.33-.21Z"/><path class="cls-2" d="M207.62,222.29s5.16,.65,6.38,.65l-.02-.12-1.34-7.91-5.02,7.38Z"/></g></g><g><g><path class="cls-1" d="M213.8,162.92c2.16,6.14-29.07,1.15-34.64-3.63-5.57-4.78,13.25-9.73,19.27-8.6,6.03,1.13,13.79,7.72,15.37,12.23Z"/><path class="cls-2" d="M213.8,162.92c2.16,6.14-29.07,1.15-34.64-3.63-5.57-4.78,13.25-9.73,19.27-8.6,6.03,1.13,13.79,7.72,15.37,12.23Z"/></g><circle class="cls-3" cx="196.24" cy="158.14" r="2.55"/></g><g><g><path class="cls-1" d="M266.21,158.15c6.12,0,23.72,8.33,17.36,12s-37.98,2.83-34.72-2.81c2.39-4.14,11.23-9.19,17.36-9.19Z"/><path class="cls-2" d="M248.85,167.34c-3.26,5.64,28.36,6.48,34.72,2.81s-11.24-12-17.36-12-14.97,5.05-17.36,9.19Z"/></g><circle class="cls-3" cx="267.65" cy="165.89" r="2.81"/></g><path class="cls-9" d="M266.21,158.15c6.13,0,23.72,8.33,17.36,12-6.35,3.67-37.97,2.83-34.72-2.81,2.39-4.14,11.23-9.19,17.36-9.19Z"/><path class="cls-9" d="M213.8,162.92c2.16,6.14-29.07,1.14-34.64-3.64s13.25-9.72,19.27-8.59c6.02,1.12,13.79,7.72,15.37,12.23Z"/><g><g><g><path class="cls-7" d="M42.04,281.45c.19,.12,.4,.19,.64,.21,0,0-10.96,17.18-11.37,22.56-.68-5.32-2.67-26.87,10.72-22.77h0Z"/><path class="cls-1" d="M50.66,438.5c-6.97,1.43-17.49,1.47-20.2-.1-3.51-2.02-25.38-16.54-27.91-20.93-1.72-2.97-2.68-10.01-1.58-15.77h.01s8.63,8.7,15.03,14.81c3.06,2.91,5.6,5.23,6.45,5.72,2.62,1.52,27.25,15.37,28.2,16.27Z"/><path class="cls-1" d="M27.01,387.14c2.07,1.2,2.77,17.9,.98,19.69-1.78,1.79-11.98,9.68-11.98,9.68-6.4-6.11-15.03-14.81-15.03-14.81h-.01c.53-2.74,1.52-5.2,3.11-6.79,4.22-4.22,15.91-9.93,22.93-7.77Z"/><path class="cls-1" d="M187.96,414.19c1.07,1.47,1.78,2.73,1.78,3.49,0,2.81-4.98,7.41-22.47,7.41h-29.23c-5.75,0-12.86-7.68-12.86-12.33,0-.47,.06-1.02,.17-1.63,.53,.04,15.12,1.19,22.09,1.53,1.22,.06,2.21,.1,2.85,.1,4.34,0,35.39,1.43,37.67,1.43Z"/><path class="cls-1" d="M147.44,405.3v7.36c-6.97-.34-21.56-1.49-22.09-1.53,1-5.48,6.35-15.92,13.84-15.92,1.04,0,1.94,.05,2.74,.14h0c2.74,.15,5.51,7.52,5.51,9.95Z"/><path d="M56.59,407.6c.8,.8,1.87,.99,3.09,.77l.06,.09s-2.98,9.6-2.98,12.24,3.88,13.28-1.13,16.17c-1.14,.66-2.89,1.2-4.96,1.63h-.01c-.95-.9-25.58-14.75-28.2-16.27-.85-.49-3.39-2.81-6.45-5.72,0,0,10.2-7.89,11.98-9.68,1.79-1.79,1.09-18.49-.98-19.69,1.19,.37,2.25,.96,3.11,1.82,5.96,5.95,8.43,12.12,10.73,13.44,1.66,.96,9.93,2.14,15.01,3.85,.14,.55,.39,1.01,.73,1.35Z"/><path d="M141.93,395.35c5.65,.65,6.23,3.23,11.4,3.23s16.83-5.19,21.6-8.42t.02-.01c.54-.23,1.07-.67,1.57-1.23,.04,.4,1.1,12.14,2.37,14.34,.94,1.62,6.24,7.02,9.07,10.93-2.28,0-33.33-1.43-37.67-1.43-.64,0-1.63-.04-2.85-.1v-7.36c0-2.43-2.77-9.8-5.51-9.94h0Z"/><path class="cls-5" d="M61.33,265.09c.38,.06,.82,.05,1.32-.02,.06,.01,.11,.03,.15,.06,0,0-5.69,9.45-11.57,12.85-3.73,2.15-6.8,3.92-8.55,3.68-.22-.08-.43-.15-.64-.21h0c-.6-.36-.93-1.16-.93-2.52,0-4.33,15.07-12.87,20.23-13.84Z"/><path class="cls-5" d="M66.55,247.78c2.95-2.94,17.68-11.15,21.78-7.04,0,0-6.52,13.33-9.29,16.1-2.33,2.33-11.72,7.62-16.39,8.23-.29-.1-.75-.09-1.32,.02-.29-.03-.54-.1-.74-.22-2.93-1.69,3.02-14.15,5.96-17.09Z"/><path class="cls-5" d="M95.82,226.77c3.36-1.94,12.62-6.52,14.14-4.54,.16,.2,.34,.41,.56,.62,0,0-.01,.01,0,.01,.24,.5,.56,.96,.96,1.36,1.37,1.37,2.76,2.11,4.17,2.4,.16,.1,.25,.15,.25,.15,0,0-8.51,9.97-12.42,12.23-3.9,2.26-15.82,2.38-17.19,0s6.18-10.29,9.53-12.23Z"/><path class="cls-5" d="M124.42,224.22c-2.86,1.65-5.83,3.01-8.77,2.4-.84-.5-3.6-2.2-5.13-3.76-.01,0,0-.01,0-.01-2.22-4.69,2.66-12.95,5.73-16.02,3.4-3.4,13.12-5.62,13.12-5.62,0,0,2.17,12.09,2.17,15.55s-2.9,5.03-7.12,7.46Z"/><path class="cls-5" d="M77.84,378.9c.34,.11,.72,.15,1.14,.12-.12,.49-4.18,17.77-7.67,21.26-2.67,2.67-7.84,7.4-11.63,8.09-.52-.79-1.96-1.49-3.82-2.12-1.35-4.75,3.84-16.26,5.92-17.46,2.1-1.21,11.79-9.36,16.06-9.89Z"/><path class="cls-5" d="M97.78,346.57s-3.45,21.66-7.32,25.54c-2.94,2.94-8.25,6.72-11.48,6.91h0c-.31-.14-.7-.16-1.14-.12-.49-.14-.89-.44-1.16-.92-1.93-3.33,.12-16.89,2.97-19.75,2.86-2.85,16.51-12.59,18.13-11.66Z"/><path class="cls-5" d="M109.7,338.83c-1.68,2.9-8.94,9.46-11.92,7.74s.55-13.4,2.73-17.17c2.16-3.75,16.13-16.81,17.48-17.45h.02c-.17,.6-6.66,24.02-8.31,26.88Z"/><path class="cls-5" d="M117.99,311.95c-1.08,.39-1.97,.48-2.55,.14-3.14-1.81,.98-18.28,3.79-21.09s17.49-13.62,18.81-13.62c0,0-1.49,20.05-4.43,22.98-2.38,2.39-10.84,9.86-15.6,11.58t-.02,.01Z"/><path class="cls-5" d="M156.93,265.01c-4.27,4.27-10.13,12.37-17.57,12.37s-3.37-11.66-3.37-15.78,12.15-22.87,15.63-20.86c3.47,2,7.56,5.07,7.56,5.07,0,0,2.02,14.92-2.25,19.2Z"/><path class="cls-5" d="M174.01,363.47s9.49,12.66,7.76,15.66c-1.28,2.21-3.04,7.28-5.25,9.78-.36,.36-.89,.78-1.57,1.24t-.02,.01c-.3,.13-.61,.2-.92,.2-3.42,0-6.74-11.36-6.74-15.57,0-3.23,2.73-8.14,4.94-10.27,.46-.07,1.07-.44,1.8-1.05Z"/><path class="cls-5" d="M169.5,348.61c1.76-3.05,8.14-17.06,13.38-15.91,0,0,4.56,13.46,3.28,15.66-1.02,1.77-8.17,11.81-12.15,15.11-.49,0-1.12,.39-1.8,1.05-.18,.02-.33,0-.46-.07-2.25-1.31-4.02-12.78-2.25-15.84Z"/><path class="cls-5" d="M189.45,298.96c.64,.42,1.42,.57,2.28,.5,.02,0,.03,0,.05,.02,0,0-10.27,15.11-8.68,17.86,1.59,2.76,6.67,11.39,1.41,14.43-5.27,3.04-12.76-1.6-12.76-9.93,0-7.44,10.69-22.5,17.7-22.88Z"/><path class="cls-5" d="M214.95,282.98h.01s-6.76,8.16-11.69,11c-3.69,2.13-8.27,5.27-11.54,5.48-.69-.4-1.46-.55-2.28-.5-.17-.11-.33-.24-.48-.39-2.87-2.87-.96-7.12,5.49-10.85,5.56-3.2,15.27-5.84,19.12-5.29h.01c.36,.35,.82,.52,1.36,.55Z"/><path class="cls-5" d="M220.25,269.85c4.47-2.58,13.79-4.26,18.26-4.26,0,0-9.64,7.39-13.54,11.28-3.02,3.03-7.41,6.23-10.01,6.11h-.01c-.27-.28-.74-.45-1.36-.54h-.01c-.13-.14-.25-.28-.35-.46-1.71-2.96,2.55-9.55,7.02-12.13Z"/><path class="cls-5" d="M255.47,249.77s-4.54,9.37-9.82,12.42c-5.27,3.05-9.92,4.76-11.49,2.04-1.56-2.71,.32-7.08,3.07-9.83s6.4-4.63,18.24-4.63Z"/><path class="cls-5" d="M362.42,308.28s7.19,3.55,9.66,7.83c2.47,4.27,1.91,7.58,0,10.89s-6.91,2.75-9.66,0c-2.13-2.13-4.84-12.18-2.96-16.61,.6,.02,1.17-.11,1.7-.41,.64-.37,1.01-.96,1.16-1.69,.03-.01,.07-.01,.1-.01Z"/><path class="cls-5" d="M358.8,297.72c1.86,3.21,4.11,7.88,3.52,10.57-1.41,.03-2.32,.84-2.86,2.1-2.83-.05-6.27-3.21-8.41-5.35s-3.05-9.88-1.9-13.75c.55-.42,.97-1.13,1.28-2.03,.3,.23,6.08,4.49,8.37,8.46Z"/><path class="cls-5" d="M348.93,274.74c1.98,3.44,2.78,10.71,1.5,14.52h-.01c-.57,.33-.99,1.05-1.27,2.03-.07,.05-.14,.1-.22,.14-3.12,1.8-7.35-1.81-9.85-6.13-2.19-3.79-3.11-19.51-1.05-24.64,.42-.41,.77-.91,1.05-1.48,0,0,7.34,11.21,9.85,15.56Z"/><path class="cls-5" d="M325.95,231.34s9.29,6.17,11.24,9.53c1.64,2.85,4.37,13.28,1.89,18.31-.41,.24-.76,.75-1.05,1.48-.25,.25-.53,.46-.84,.64-5.41,3.12-11.24-7.58-11.24-11.28s-1.87-15.44,0-18.68Z"/><path class="cls-5" d="M325.95,224.22c2.8,2.8,2.2,5.85,0,7.12-2.19,1.27-5.65-.96-8.39-2.54-2.73-1.58-4.11-9.02-4.11-9.02,0,0,1.67-2.99,3.12-4.44s6.58,6.08,9.38,8.88Z"/></g><g><path class="cls-2" d="M313.45,219.78s1.38,7.44,4.11,9.02c2.74,1.58,6.2,3.81,8.39,2.54,2.2-1.27,2.8-4.32,0-7.12s-7.93-10.33-9.38-8.88-3.12,4.44-3.12,4.44Z"/><path class="cls-2" d="M325.95,231.34s9.29,6.17,11.24,9.53c1.64,2.85,4.37,13.28,1.89,18.31-.28,.57-.63,1.07-1.05,1.48-.25,.25-.53,.46-.84,.64-5.41,3.12-11.24-7.58-11.24-11.28s-1.87-15.44,0-18.68Z"/><path class="cls-2" d="M339.08,259.18s7.34,11.21,9.85,15.56c1.98,3.44,2.78,10.71,1.5,14.52-.31,.9-.73,1.61-1.28,2.03-.07,.05-.14,.1-.22,.14-3.12,1.8-7.35-1.81-9.85-6.13-2.19-3.79-3.11-19.51-1.05-24.64,.29-.73,.64-1.24,1.05-1.48Z"/><path class="cls-2" d="M349.15,291.29c.28-.98,.7-1.7,1.27-2.03h.01c.3,.23,6.08,4.49,8.37,8.46,1.86,3.21,4.11,7.88,3.52,10.57-.15,.73-.52,1.32-1.16,1.69-.53,.3-1.1,.43-1.7,.41-2.83-.05-6.27-3.21-8.41-5.35s-3.05-9.88-1.9-13.75Z"/><path class="cls-2" d="M362.32,308.29s.07-.01,.1-.01c0,0,7.19,3.55,9.66,7.83,2.47,4.27,1.91,7.58,0,10.89s-6.91,2.75-9.66,0c-2.13-2.13-4.84-12.18-2.96-16.61,.54-1.26,1.45-2.07,2.86-2.1Z"/><path class="cls-2" d="M110.52,222.86c.24,.5,.56,.96,.96,1.36,1.37,1.37,2.76,2.11,4.17,2.4,2.94,.61,5.91-.75,8.77-2.4,4.22-2.43,7.12-4,7.12-7.46s-2.17-15.55-2.17-15.55c0,0-9.72,2.22-13.12,5.62-3.07,3.07-7.95,11.33-5.73,16.02"/><path class="cls-2" d="M115.65,226.62c.16,.1,.25,.15,.25,.15,0,0-8.51,9.97-12.42,12.23-3.9,2.26-15.82,2.38-17.19,0s6.18-10.29,9.53-12.23c3.36-1.94,12.62-6.52,14.14-4.54,.16,.2,.34,.41,.56,.62,0,0-.01,.01,0,.01,1.53,1.56,4.29,3.26,5.13,3.76Z"/><path class="cls-2" d="M61.33,265.09c-.29-.03-.54-.1-.74-.22-2.93-1.69,3.02-14.15,5.96-17.09,2.95-2.94,17.68-11.15,21.78-7.04,0,0-6.52,13.33-9.29,16.1-2.33,2.33-11.72,7.62-16.39,8.23-.5,.07-.94,.08-1.32,.02Z"/><path class="cls-2" d="M42.03,281.45c-.6-.36-.93-1.16-.93-2.52,0-4.33,15.07-12.87,20.23-13.84,.57-.11,1.03-.12,1.32-.02,.06,.01,.11,.03,.15,.06,0,0-5.69,9.45-11.57,12.85-3.73,2.15-6.8,3.92-8.55,3.68-.24-.02-.45-.09-.64-.21"/><path class="cls-2" d="M31.31,304.22c-.68-5.32-2.67-26.87,10.72-22.77h0c.21,.06,.42,.13,.64,.21,0,0-10.96,17.18-11.37,22.56"/><path class="cls-2" d="M31.31,304.22c-.04,.49,.01,.89,.17,1.16,0,0-.07-.42-.17-1.16Z"/><path class="cls-2" d="M255.47,249.77s-4.54,9.37-9.82,12.42c-5.27,3.05-9.92,4.76-11.49,2.04-1.56-2.71,.32-7.08,3.07-9.83s6.4-4.63,18.24-4.63Z"/><path class="cls-2" d="M214.95,282.98c-.54-.03-1-.2-1.36-.54"/><path class="cls-2" d="M213.58,282.43c-.13-.13-.25-.27-.35-.45-1.71-2.96,2.55-9.55,7.02-12.13s13.79-4.26,18.26-4.26c0,0-9.64,7.39-13.54,11.28-3.02,3.03-7.41,6.23-10.01,6.11"/><path class="cls-2" d="M214.96,282.98s-6.76,8.16-11.69,11c-3.69,2.13-8.27,5.27-11.54,5.48-.86,.07-1.64-.08-2.28-.5-.17-.11-.33-.24-.48-.39-2.87-2.87-.96-7.12,5.49-10.85,5.56-3.2,15.27-5.84,19.12-5.29h.01c.62,.1,1.09,.27,1.36,.55h.01Z"/><path class="cls-2" d="M191.73,299.46s.03,0,.05,.02c0,0-10.27,15.11-8.68,17.86,1.59,2.76,6.67,11.39,1.41,14.43-5.27,3.04-12.76-1.6-12.76-9.93,0-7.44,10.69-22.5,17.7-22.88,.82-.05,1.59,.1,2.28,.5Z"/><path class="cls-2" d="M172.21,364.52c-.18,.02-.33,0-.46-.07-2.25-1.31-4.02-12.78-2.25-15.84,1.76-3.05,8.14-17.06,13.38-15.91,0,0,4.56,13.46,3.28,15.66-1.02,1.77-8.17,11.81-12.15,15.11-.73,.61-1.34,.98-1.8,1.05Z"/><path class="cls-2" d="M174.93,390.16c-.3,.13-.61,.2-.92,.2-3.42,0-6.74-11.36-6.74-15.57,0-3.23,2.73-8.14,4.94-10.27,.68-.66,1.31-1.05,1.8-1.05,0,0,9.49,12.66,7.76,15.66-1.28,2.21-3.04,7.28-5.25,9.78"/><path class="cls-2" d="M176.52,388.92c-.5,.56-1.03,1-1.57,1.23"/><path class="cls-2" d="M176.52,388.91h0c.04,.41,1.1,12.15,2.37,14.35,.94,1.62,6.24,7.02,9.07,10.93,1.07,1.47,1.78,2.73,1.78,3.49,0,2.81-4.98,7.41-22.47,7.41h-29.23c-5.75,0-12.86-7.68-12.86-12.33,0-.47,.06-1.02,.17-1.63,1-5.48,6.35-15.92,13.84-15.92,1.04,0,1.94,.05,2.74,.14,5.65,.65,6.23,3.23,11.4,3.23s16.83-5.19,21.6-8.42t.02-.01c.68-.46,1.21-.88,1.57-1.24Z"/><path class="cls-2" d="M125.34,411.13h.01c.53,.04,15.12,1.19,22.09,1.53,1.22,.06,2.21,.1,2.85,.1,4.34,0,35.39,1.43,37.67,1.43"/><path class="cls-2" d="M147.44,412.66v-7.36c0-2.43-2.77-9.8-5.51-9.94"/><path class="cls-2" d="M159.18,245.81s2.02,14.92-2.25,19.2c-4.27,4.27-10.13,12.37-17.57,12.37s-3.37-11.66-3.37-15.78,12.15-22.87,15.63-20.86c3.47,2,7.56,5.07,7.56,5.07Z"/><path class="cls-2" d="M118.01,311.95h-.02c-1.08,.39-1.97,.48-2.55,.14-3.14-1.81,.98-18.28,3.79-21.09s17.49-13.62,18.81-13.62c0,0-1.49,20.05-4.43,22.98-2.38,2.39-10.84,9.86-15.6,11.58"/><path class="cls-2" d="M118.01,311.94h0c-.17,.61-6.66,24.03-8.31,26.89-1.68,2.9-8.94,9.46-11.92,7.74s.55-13.4,2.73-17.17c2.16-3.75,16.13-16.81,17.48-17.45t.02-.01Z"/><path class="cls-2" d="M97.78,346.57s-3.45,21.66-7.32,25.54c-2.94,2.94-8.25,6.72-11.48,6.91-.42,.03-.8-.01-1.14-.12-.49-.14-.89-.44-1.16-.92-1.93-3.33,.12-16.89,2.97-19.75,2.86-2.85,16.51-12.59,18.13-11.66Z"/><path class="cls-2" d="M77.84,378.9c.44-.04,.83-.02,1.14,.11h0c-.12,.5-4.18,17.78-7.67,21.27-2.67,2.67-7.84,7.4-11.63,8.09-1.22,.22-2.29,.03-3.09-.77-.34-.34-.59-.8-.73-1.35-1.35-4.75,3.84-16.26,5.92-17.46,2.1-1.21,11.79-9.36,16.06-9.89Z"/><path class="cls-2" d="M50.66,438.5c-6.97,1.43-17.49,1.47-20.2-.1-3.51-2.02-25.38-16.54-27.91-20.93-1.72-2.97-2.68-10.01-1.58-15.77,.53-2.74,1.52-5.2,3.11-6.79,4.22-4.22,15.91-9.93,22.93-7.77,1.19,.37,2.25,.96,3.11,1.82,5.96,5.95,8.43,12.12,10.73,13.44,1.66,.96,9.93,2.14,15.01,3.85,1.86,.63,3.3,1.33,3.82,2.12l.06,.09s-2.98,9.6-2.98,12.24,3.88,13.28-1.13,16.17c-1.14,.66-2.89,1.2-4.96,1.63"/><path class="cls-2" d="M.98,401.7s8.63,8.7,15.03,14.81c3.06,2.91,5.6,5.23,6.45,5.72,2.62,1.52,27.25,15.37,28.2,16.27h.01"/><path class="cls-2" d="M16.01,416.51s10.2-7.89,11.98-9.68c1.79-1.79,1.09-18.49-.98-19.69"/></g></g><g><path class="cls-7" d="M373,325.14s10.65,11.93,12.8,13.21c-.69-.26-18.32-6.88-18.32-9.07,0,0,2.71,0,3.65-1.14,.95-1.14,1.56-2.12,1.87-3Z"/><g><path class="cls-2" d="M385.82,338.36s-.01-.01-.02-.01"/><path class="cls-2" d="M385.8,338.35c-.69-.26-18.32-6.88-18.32-9.07,0,0,2.71,0,3.65-1.14,.95-1.14,1.56-2.12,1.87-3,0,0,10.65,11.93,12.8,13.21Z"/></g></g></g></svg>