<?xml version="1.0" encoding="UTF-8"?><svg id="Layer_1" xmlns="http://www.w3.org/2000/svg" viewBox="0 0 730.55 580.58"><defs><style>.cls-1,.cls-2{fill:#fff;}.cls-2{stroke:#fff;}.cls-2,.cls-3{stroke-miterlimit:10;stroke-width:2px;}.cls-4{fill:#399162;}.cls-5{fill:#37913a;}.cls-6{fill:#c12f00;}.cls-3{fill:none;stroke:#000;}.cls-7{fill:#00af2c;}.cls-8{fill:#024c01;}.cls-9{fill:#eee;}</style></defs><g><g><g><path class="cls-1" d="M640.08,55.13c9.18,5.3,94.98,65.36,89.19,116.43-5.79,51.06-38.13,40.17-46.98,40.17s-41.45-39.29-47.66-50.05c-6.21-10.75-43.28-34.18-50.04-22.46-7.67-13.28-76.26-26.9-101.92-26.9s-70.51,15.86-77.83,20.09c-1.2,.69-2.36,2.85-3.46,5.98-.58-.97-38.07-63.03-38.07-88.02S392.93,1,406.89,1s65.68,25.88,97.01,25.88,54.82-8.51,78.31-8.51,48.68,31.46,57.87,36.76Z"/><path class="cls-7" d="M624.73,245.91c0,31.77-16.82,38.67-16.82,59.35s-8.23,62.38-32,76.1c-1.78,1.03-3.48,2.06-5.09,3.1,9.75-7.81,.29-48.31-19.59-48.31-9.13,0-20.5,1.78-31.88,3.71-5.47-3.16-11.02-15.83-11.02-22.09s15.05-18.76,15.52-19.15c5.39,2.75,10.56,4.34,13.93,4.34,8,0,33.19-8.85,33.19-14.98,0-1.34-1.48-3.46-3.91-5.96l1.87-.17,24.17-3.74-102.45-72.36,3.9-12.32c12.25,0,13.02-8.43,23.74-8.43s24.35,13.51,36.77,20.68c7.98,4.61,34.48,6.79,52.4,16.19,9.96,5.22,17.27,12.68,17.27,24.04Z"/><path class="cls-1" d="M401.38,138.39c1.1-3.13,2.26-5.29,3.46-5.98,7.32-4.23,52.17-20.09,77.83-20.09s94.25,13.62,101.92,26.9c7.66,13.28,25.66,77.82,22.87,82.65-17.92-9.4-44.42-11.58-52.4-16.19-12.42-7.17-26.05-20.68-36.77-20.68s-11.49,8.43-23.74,8.43l-9.71-17.62-14.04,17.62c-10.17,0,0-17.62-15.32-17.62s-49.67,11.13-63.57,19.15c0,0,3.92-40.72,9.47-56.57Z"/><path class="cls-5" d="M593.1,278.11l-24.17,3.74-1.87,.17c-8.65-8.92-29.3-22.63-37.28-22.63-4.41,0-10.58,2.71-15.78,6.43h-.01c-4.59,1.68-7.64,6.13-9.1,9.64,0,.02-.01,.03-.02,.05-.59,1.21-.93,2.4-.96,3.52-.01,.09-.01,.19-.01,.27v.04c.02,.89,.24,1.73,.69,2.51,2.99,5.18,8.04,9.8,13.46,13.38,1.91,1.27,3.87,2.4,5.8,3.39-.47,.39-15.52,12.99-15.52,19.15s5.55,18.93,11.02,22.09c-13.46,2.28-26.93,4.77-36.68,4.77-12.83,0-22.1-11.84-33.4-18.63-.02-.01-.04-.02-.05-.04-5.5-3.79-2.42-10.13-2.42-15.85s-20.28-21.23-20.91-21.72c5.68,2.9,12.24,4.59,18.11,4.59,13.62,0,32.43,2.83,32.43-11.81s-29.03-27.23-39.93-27.23c-6.84,0-15.44,2.15-20.54,6.8l-.46-.22-28.7-6.24,89.63-48.53,8.41,18.4,5.81-18.4,102.45,72.36Z"/><path class="cls-8" d="M551.23,336.15c19.88,0,29.34,40.5,19.59,48.31-4.56,2.91-8.5,5.83-12.08,8.61-.02,.02-.05,.04-.08,.06-1.05,.71-1.97,1.4-3.02,2.36-.01,.01-.02,.02-.03,.02-6.33,5.01-11.61,9.32-17.35,11.95-1.32,.59-2.58,1.06-3.75,1.43-2.62,.81-5.39,1.25-8.44,1.25-1.72,0-3.27-.07-4.68-.21h-.02c-2.31-.36-8.77-2.97-15.11-5.06,0-.01-.02-.01-.02-.01-3.04-1.47-6.32-2.68-11.69-2.68-.11,0-.22,0-.34,.01-9.98,.08-21.13,4.26-30.55,6.52-3.55,.75-6.67,1.29-8.89,1.41-.29,.01-.56,.02-.82,.02-.13,0-.26,0-.39-.01-8.16-.62-17.14-20.45-21.19-24.51l-.04-.04c-2.84-3.99-6.18-8.18-10.31-12.34,0,0,0,0-.01-.02-2.14-2.55-4.04-4.62-5.21-5.3h-.01c-.07-.08-.15-.17-.23-.25-.02-.02-.03-.03-.04-.05-2.71-4.29-1.01-46.28,17.77-46.28,5.55,0,10.4,1.9,14.93,4.62,.01,.02,.03,.03,.05,.04,11.3,6.79,20.57,18.63,33.4,18.63,9.75,0,23.22-2.49,36.68-4.77,11.38-1.93,22.75-3.71,31.88-3.71Z"/><path class="cls-1" d="M523.85,298.62c-1.93-.99-3.89-2.12-5.8-3.39,.2,.14,.37,.25,.5,.32,2.05,1.19,11.06-9.18,11.06-13.7s-8.93-18.45-15.61-16.03c5.2-3.72,11.37-6.43,15.78-6.43,7.98,0,28.63,13.71,37.28,22.63,2.43,2.5,3.91,4.62,3.91,5.96,0,6.13-25.19,14.98-33.19,14.98-3.37,0-8.54-1.59-13.93-4.34Z"/><path d="M529.61,281.85c0,4.52-9.01,14.89-11.06,13.7-.13-.07-.3-.18-.5-.32-3.08-2.12-14.09-11.4-14.15-15.89v-.04c0-.08,0-.18,.01-.27,.06-.85,.38-2.11,.96-3.52,.01-.02,.02-.03,.02-.05,1.63-3.29,5.08-6.76,9.1-9.64h.01c6.68-2.42,15.61,11.52,15.61,16.03Z"/><polygon class="cls-6" points="484.84 175.81 494.55 193.43 490.65 205.75 484.84 224.15 476.43 205.75 470.8 193.43 484.84 175.81"/><path class="cls-7" d="M470.8,193.43l5.63,12.32-89.63,48.53,28.7,6.24,.46,.22c-1.01,.91-1.88,1.93-2.57,3.04-1.53,2.18-1.78,4.28-1.81,5.77-.01,.26-.01,.5-.01,.71v.1c0,.17,0,.35,.02,.52,0,.25,.03,.51,.06,.76,.02,.25,.06,.5,.11,.75,.88,5.37,4.83,10.09,10.12,13.65,1.26,.85,2.6,1.64,3.99,2.34,0,0,.01,0,.02,.01,.63,.49,20.91,16.07,20.91,21.72s-3.08,12.06,2.42,15.85c-4.53-2.72-9.38-4.62-14.93-4.62-18.78,0-20.48,41.99-17.77,46.28-13.85-14.43-18.11-21.81-25.75-35.04-8.54-14.79,0-35.75,0-46.47s-18.15-23.05-18.15-42.16,5.39-40.96,19.29-48.99c13.9-8.02,48.25-19.15,63.57-19.15s5.15,17.62,15.32,17.62Z"/><path class="cls-1" d="M436.5,253.94c10.9,0,39.93,12.6,39.93,27.23s-18.81,11.81-32.43,11.81c-5.87,0-12.43-1.69-18.11-4.59-.01-.01-.02-.01-.02-.01-1.39-.7-2.73-1.49-3.99-2.34,3.46,2.68,14.2-8.27,14.2-12.47s-10.33-18.02-17.45-14.18c-2.57,1.39-4.21,2.91-5.24,4.39,.69-1.11,1.56-2.13,2.57-3.04,5.1-4.65,13.7-6.8,20.54-6.8Z"/><path d="M436.08,273.57c0,4.2-10.74,15.15-14.2,12.47-3.12-2.42-9-7.55-10.12-13.65-.05-.25-.09-.5-.11-.75-.03-.26-.05-.51-.06-.76,0-.21-.02-.41-.02-.62s0-.45,.01-.71c.1-2.16,.75-4.08,1.81-5.77,1.03-1.48,2.67-3,5.24-4.39,7.12-3.84,17.45,9.98,17.45,14.18Z"/></g><g><path class="cls-3" d="M416.52,367.62c-13.85-14.43-18.11-21.81-25.75-35.04-8.54-14.79,0-35.75,0-46.47s-18.15-23.05-18.15-42.16,5.39-40.96,19.29-48.99c13.9-8.02,48.25-19.15,63.57-19.15s5.15,17.62,15.32,17.62"/><path class="cls-3" d="M416.79,367.92c-.07-.08-.15-.17-.23-.25"/><path class="cls-3" d="M422.01,373.22l-.23-.23c-1.79-1.79-3.44-3.47-4.98-5.07"/><path class="cls-3" d="M453.56,410.13c-7.96-.35-11.83-11.37-21.23-24.55-2.84-3.99-6.18-8.18-10.31-12.34"/><path class="cls-3" d="M494.21,402.19c-9.98,.08-21.13,4.26-30.55,6.52-3.2,.77-6.2,1.32-8.89,1.41"/><path class="cls-3" d="M506.24,404.86c-3.04-1.47-6.32-2.68-11.69-2.68"/><path class="cls-3" d="M521.37,409.93c-7.47-.72-11.09-3.11-15.11-5.06"/><path class="cls-3" d="M534.51,408.89c-2.62,.81-5.39,1.25-8.44,1.25-1.72,0-3.27-.07-4.68-.21"/><path class="cls-3" d="M555.61,395.51c-6.33,5.01-11.61,9.32-17.35,11.95"/><path class="cls-3" d="M558.66,393.13c-1.04,.8-2.04,1.59-3.02,2.36"/><path class="cls-3" d="M494.55,193.43c12.25,0,13.02-8.43,23.74-8.43s24.35,13.51,36.77,20.68c7.98,4.61,34.48,6.79,52.4,16.19,9.96,5.22,17.27,12.68,17.27,24.04,0,31.77-16.82,38.67-16.82,59.35s-8.23,62.38-32,76.1c-1.78,1.03-3.48,2.06-5.09,3.1-4.56,2.91-8.5,5.83-12.08,8.61"/><polygon class="cls-3" points="470.8 193.43 484.84 175.81 494.55 193.43 490.65 205.75 484.84 224.15 476.43 205.75 470.8 193.43"/><path class="cls-3" d="M449.27,326c11.3,6.79,20.57,18.63,33.4,18.63,9.75,0,23.22-2.49,36.68-4.77,11.38-1.93,22.75-3.71,31.88-3.71,19.88,0,29.34,40.5,19.59,48.31-.01,.01-.03,.02-.04,.03-6.59,5.19-9.65,6.96-12.04,8.58-.02,.02-.05,.04-.08,.06-1.05,.71-1.97,1.4-3.02,2.36-.01,.01-.02,.02-.03,.02-6.7,6.14-12.5,9.8-17.35,11.95-1.32,.59-2.58,1.06-3.75,1.43-6.59,2.12-10.99,1.36-13.12,1.04h-.02c-2.31-.36-8.77-2.97-15.11-5.06,0-.01-.02-.01-.02-.01-4.44-1.47-8.82-2.68-11.69-2.68-.11,0-.22,0-.34,.01-5.39,.17-19.9,4.29-30.55,6.52-3.55,.75-6.67,1.29-8.89,1.41-.29,.01-.56,.02-.82,.02-.13,0-.26,0-.39-.01-8.16-.62-17.14-20.45-21.19-24.51l-.04-.04c-2.57-2.58-6.76-8.11-10.31-12.34,0,0,0,0-.01-.02-2.14-2.55-4.04-4.62-5.21-5.3h-.01c-.08-.06-.16-.14-.23-.25-.02-.02-.03-.03-.04-.05-2.71-4.29-1.01-46.28,17.77-46.28,5.55,0,10.4,1.9,14.93,4.62"/><polyline class="cls-3" points="490.65 205.75 593.1 278.11 568.93 281.85"/><polyline class="cls-3" points="476.43 205.75 386.8 254.28 415.5 260.52"/><path class="cls-3" d="M514,265.82c5.2-3.72,11.37-6.43,15.78-6.43,7.98,0,28.63,13.71,37.28,22.63,2.43,2.5,3.91,4.62,3.91,5.96,0,6.13-25.19,14.98-33.19,14.98-3.37,0-8.54-1.59-13.93-4.34-1.93-.99-3.89-2.12-5.8-3.39-5.42-3.58-10.47-8.2-13.46-13.38-.45-.78-.67-1.62-.69-2.51"/><path class="cls-3" d="M504.89,275.46c1.63-3.29,5.08-6.76,9.1-9.64"/><path class="cls-3" d="M503.91,279.03c.03-1.12,.37-2.31,.96-3.52"/><path class="cls-3" d="M425.87,288.38c-1.39-.7-2.73-1.49-3.99-2.34-5.29-3.56-9.24-8.28-10.12-13.65"/><path class="cls-3" d="M411.58,269.55c.1-2.16,.75-4.08,1.81-5.77,.69-1.11,1.56-2.13,2.57-3.04,5.1-4.65,13.7-6.8,20.54-6.8,10.9,0,39.93,12.6,39.93,27.23s-18.81,11.81-32.43,11.81c-5.87,0-12.43-1.69-18.11-4.59"/><path class="cls-3" d="M411.65,271.64c-.03-.26-.05-.51-.06-.76,0-.21-.02-.41-.02-.62"/><path class="cls-3" d="M503.9,279.34v-.04c0-.08,0-.18,.01-.27,.06-.85,.38-2.11,.96-3.52,.01-.02,.02-.03,.02-.05,1.46-3.51,4.51-7.96,9.1-9.64h.01c6.68-2.42,15.61,11.52,15.61,16.03s-9.01,14.89-11.06,13.7c-.13-.07-.3-.18-.5-.32-3.08-2.12-14.09-11.4-14.15-15.89Z"/><path class="cls-3" d="M411.59,270.88c-.02-.17-.02-.35-.02-.52v-.1c0-.21,0-.45,.01-.71,.03-1.49,.28-3.59,1.81-5.77,1.03-1.48,2.67-3,5.24-4.39,7.12-3.84,17.45,9.98,17.45,14.18s-10.74,15.15-14.2,12.47c-3.12-2.42-9-7.55-10.12-13.65-.05-.25-.09-.5-.11-.75-.03-.25-.06-.51-.06-.76Z"/><path class="cls-3" d="M425.87,288.38s.01,0,.02,.01c.63,.49,20.91,16.07,20.91,21.72s-3.08,12.06,2.42,15.85c.01,.02,.03,.03,.05,.04"/><path class="cls-3" d="M523.86,298.61h-.01c-.47,.4-15.52,13-15.52,19.16s5.55,18.93,11.02,22.09"/><path class="cls-3" d="M391.91,194.96s3.92-40.72,9.47-56.57c1.1-3.13,2.26-5.29,3.46-5.98,7.32-4.23,52.17-20.09,77.83-20.09s94.25,13.62,101.92,26.9c7.66,13.28,25.66,77.82,22.87,82.65"/><path class="cls-3" d="M401.39,138.4h-.01c-.58-.98-38.07-63.04-38.07-88.03S392.93,1,406.89,1s65.68,25.88,97.01,25.88,54.82-8.51,78.31-8.51,48.68,31.46,57.87,36.76c9.18,5.3,94.98,65.36,89.19,116.43-5.79,51.06-38.13,40.17-46.98,40.17s-41.45-39.29-47.66-50.05c-6.21-10.75-43.28-34.18-50.04-22.46"/></g></g><path class="cls-3" d="M470.8,379.22h45.96"/><polygon class="cls-2" points="481.01 377.17 485.16 365.2 488.16 377.17 481.01 377.17"/><polygon class="cls-2" points="505.82 377.17 501.67 365.2 498.67 377.17 505.82 377.17"/></g><g><g><path class="cls-4" d="M634,355.77s10.48,13.4,2.89,17.79c-6.26,3.61-9.93-9.11-6.28-15.1,.57,.07,1.14-.04,1.68-.35,.88-.51,1.43-1.32,1.71-2.34Z"/><path class="cls-4" d="M627.93,336.03s7.78,13.6,6.07,19.73c-1.5,.44-2.61,1.42-3.39,2.7-4.93-.57-10.27-14.19-6.35-20.01,1.63-.21,2.57-1.07,3.08-2.27,.19-.06,.39-.11,.59-.15Z"/><path class="cls-4" d="M627.69,327.22c0,2.54,.72,6.47-.35,8.96-1.37,.42-2.37,1.22-3.08,2.27-.25,.03-.52,.05-.8,.05-4.49,0-6.72-11.21-4.17-18.73,.82,.08,1.63-.09,2.4-.53,1.53-.88,1.96-2.74,1.69-5.12,.03-.02,.05-.03,.08-.05,0,0,4.23,9.19,4.23,13.15Z"/><path class="cls-4" d="M623.38,314.12c-1.93,1.15-3.26,3.2-4.09,5.65-6.91-.62-14.82-18.24-7.62-30.72,0,0,10.74,16.19,11.71,25.07Z"/></g><g><path class="cls-3" d="M619.29,319.77c-6.91-.62-14.82-18.24-7.62-30.72,0,0,10.74,16.19,11.71,25.07,.27,2.38-.16,4.24-1.69,5.12-.77,.44-1.58,.61-2.4,.53Z"/><path class="cls-3" d="M623.38,314.12s.05-.03,.08-.05c0,0,4.23,9.19,4.23,13.15,0,2.54,.72,6.47-.35,8.96-.51,1.2-1.45,2.06-3.08,2.27-.25,.03-.52,.05-.8,.05-4.49,0-6.72-11.21-4.17-18.73,.83-2.45,2.16-4.5,4.09-5.65Z"/><path class="cls-3" d="M634,355.77c-.28,1.02-.83,1.83-1.71,2.34-.54,.31-1.11,.42-1.68,.35-4.93-.57-10.27-14.19-6.35-20.01,.71-1.05,1.71-1.85,3.08-2.27,.19-.06,.39-.11,.59-.15,0,0,7.78,13.6,6.07,19.73"/><path class="cls-3" d="M634,355.76h0s10.48,13.41,2.89,17.8c-6.26,3.61-9.93-9.11-6.28-15.1,.78-1.28,1.89-2.26,3.39-2.7Z"/></g></g><g><g><path class="cls-6" d="M651.4,426.65s6.31,25.12,10.64,28.03c-1.96-1.15-28.26-16.89-13.49-26.48h.17c1.33,0,2.18-.59,2.67-1.55h.01Z"/><path class="cls-4" d="M648.72,410.33s4.93,11.98,2.68,16.32h-.01c-1.08,.5-2.03,1.01-2.84,1.55-5.89-.22-8.65-11.91-4.13-16.26,.41,.11,.83,.17,1.27,.17,1.43,0,2.27-.67,2.68-1.77,.12-.01,.23-.01,.35-.01Z"/><path class="cls-4" d="M643.76,392.14s6.48,13.31,4.61,18.2c-1.68,.07-2.98,.67-3.95,1.6-6.79-1.82-8.87-18.04-.66-19.8Z"/><path class="cls-4" d="M636.89,373.56s11.07,14.68,5.1,18.12c-5.97,3.45-13.06-13.53-5.1-18.12Z"/></g><g><path class="cls-3" d="M636.89,373.56s11.07,14.68,5.1,18.12c-5.97,3.45-13.06-13.53-5.1-18.12Z"/><path class="cls-3" d="M644.42,411.94c-6.79-1.82-8.87-18.04-.66-19.8,0,0,6.48,13.31,4.61,18.2-.41,1.1-1.25,1.77-2.68,1.77-.44,0-.86-.06-1.27-.17Z"/><path class="cls-3" d="M651.39,426.65c-.49,.96-1.34,1.55-2.67,1.55h-.17c-5.89-.22-8.65-11.91-4.13-16.26,.97-.93,2.27-1.53,3.95-1.6,.12-.01,.23-.01,.35-.01,0,0,4.93,11.98,2.68,16.32"/><path class="cls-3" d="M662.16,454.75s-.02-.01-.03-.02c-.01,0-.01-.01-.02-.01-.02-.02-.05-.03-.07-.04-1.96-1.15-28.26-16.89-13.49-26.48,.81-.54,1.76-1.05,2.84-1.55h.01s6.31,25.12,10.64,28.03"/></g></g><g><g><path class="cls-4" d="M383.76,272.91c7.2,12.48-.71,30.1-7.62,30.72-.83-2.45-2.17-4.5-4.09-5.65,.97-8.88,11.71-25.07,11.71-25.07Z"/><path class="cls-4" d="M376.14,303.63c2.55,7.52,.33,18.74-4.17,18.74-.28,0-.55-.02-.8-.05-.7-1.06-1.72-1.86-3.09-2.28-1.06-2.49-.34-6.42-.34-8.96,0-3.96,4.23-13.15,4.23-13.15,.03,.02,.05,.03,.08,.05-.27,2.39,.16,4.24,1.69,5.12,.77,.44,1.58,.61,2.4,.53Z"/><path class="cls-4" d="M371.17,322.32c3.91,5.83-1.42,19.43-6.35,20-.78-1.28-1.89-2.25-3.39-2.69-1.72-6.13,6.07-19.74,6.07-19.74,.2,.04,.39,.09,.58,.15,.52,1.2,1.45,2.07,3.09,2.28Z"/><path class="cls-4" d="M364.82,342.32c3.65,5.99-.02,18.71-6.28,15.1-7.59-4.38,2.89-17.79,2.89-17.79,.28,1.02,.83,1.83,1.71,2.34,.54,.31,1.11,.42,1.68,.35Z"/></g><g><path class="cls-3" d="M376.14,303.63c6.91-.62,14.82-18.24,7.62-30.72,0,0-10.74,16.19-11.71,25.07-.27,2.39,.16,4.24,1.69,5.12,.77,.44,1.58,.61,2.4,.53Z"/><path class="cls-3" d="M372.05,297.98s-.05-.03-.08-.05c0,0-4.23,9.19-4.23,13.15,0,2.54-.72,6.47,.34,8.96,.52,1.2,1.45,2.07,3.09,2.28,.25,.03,.52,.05,.8,.05,4.5,0,6.72-11.22,4.17-18.74-.83-2.45-2.17-4.5-4.09-5.65Z"/><path class="cls-3" d="M368.08,320.04c-.19-.06-.38-.11-.58-.15,0,0-7.79,13.61-6.07,19.74,.28,1.02,.83,1.83,1.71,2.34,.54,.31,1.11,.42,1.68,.35,4.93-.57,10.26-14.17,6.35-20-.7-1.06-1.72-1.86-3.09-2.28Z"/><path class="cls-3" d="M361.43,339.63s-10.48,13.41-2.89,17.79c6.26,3.61,9.93-9.11,6.28-15.1-.78-1.28-1.89-2.25-3.39-2.69Z"/></g></g><g><g><path class="cls-4" d="M358.54,357.42c7.96,4.6,.87,21.57-5.1,18.13-5.97-3.45,5.1-18.13,5.1-18.13Z"/><path class="cls-4" d="M351.67,376.01c8.21,1.76,6.13,17.97-.66,19.79-.97-.93-2.27-1.53-3.95-1.6-1.87-4.88,4.61-18.19,4.61-18.19Z"/><path class="cls-4" d="M351.01,395.8c4.52,4.35,1.76,16.04-4.13,16.26-.81-.54-1.76-1.05-2.84-1.55h-.01c-2.25-4.34,2.68-16.32,2.68-16.32,.12,0,.23,0,.35,.01,.41,1.1,1.25,1.77,2.68,1.77,.44,0,.86-.06,1.27-.17Z"/><path class="cls-6" d="M346.88,412.06c14.77,9.6-11.53,25.33-13.49,26.48,4.33-2.91,10.64-28.03,10.64-28.03h.01c.49,.96,1.34,1.55,2.67,1.55h.17Z"/></g><g><path class="cls-3" d="M358.54,357.42s-11.07,14.68-5.1,18.13c5.97,3.44,13.06-13.53,5.1-18.13Z"/><path class="cls-3" d="M351.01,395.8c6.79-1.82,8.87-18.03,.66-19.79,0,0-6.48,13.31-4.61,18.19,.41,1.1,1.25,1.77,2.68,1.77,.44,0,.86-.06,1.27-.17Z"/><path class="cls-3" d="M344.04,410.51c.49,.96,1.34,1.55,2.67,1.55h.17c5.89-.22,8.65-11.91,4.13-16.26-.97-.93-2.27-1.53-3.95-1.6-.12-.01-.23-.01-.35-.01,0,0-4.93,11.98-2.68,16.32"/><path class="cls-3" d="M333.27,438.61s.02-.01,.03-.02c.02-.01,.05-.02,.09-.05,1.96-1.15,28.26-16.88,13.49-26.48-.81-.54-1.76-1.05-2.84-1.55h-.01s-6.31,25.12-10.64,28.03"/></g></g><g><g><path class="cls-4" d="M557.35,406.1c0,3.53,1.28,13.44-2.65,16.07-1.12,0-2.1,.19-2.95,.53-5.92-1.94-5.36-29.26,3.97-29.26,0,0,1.63,8.58,1.63,12.66Z"/><path class="cls-4" d="M554.7,422.17s3.23,15.63,.19,20.21c-1.33,0-2.47,.35-3.43,.97-5-2.28-7.37-17.6,.29-20.65,.22,.08,.44,.12,.68,.12,.9,0,1.65-.23,2.27-.65Z"/><path class="cls-4" d="M554.89,442.38s4.75,24.74-2.17,24.74c-6.1,0-8.47-19.23-1.26-23.77,.4,.18,.82,.28,1.26,.28,.94,0,1.65-.46,2.17-1.25Z"/></g><g><path class="cls-3" d="M551.75,422.7c-5.92-1.94-5.36-29.26,3.97-29.26,0,0,1.63,8.58,1.63,12.66,0,3.53,1.28,13.44-2.65,16.07-.62,.42-1.37,.65-2.27,.65-.24,0-.46-.04-.68-.12Z"/><path class="cls-3" d="M554.7,422.17s3.23,15.63,.19,20.21c-.52,.79-1.23,1.25-2.17,1.25-.44,0-.86-.1-1.26-.28-5-2.28-7.37-17.6,.29-20.65,.85-.34,1.83-.53,2.95-.53Z"/><path class="cls-3" d="M554.89,442.38s4.75,24.74-2.17,24.74c-6.1,0-8.47-19.23-1.26-23.77,.96-.62,2.1-.97,3.43-.97Z"/></g></g><g><g><path class="cls-4" d="M555.53,464.75s3.12,11.07,.95,15.63h0c-.87,.49-1.69,1.14-2.45,1.9-.14,.02-.29,.03-.45,.03-6.89,0-5.26-13.4,1.95-17.56Z"/><path class="cls-4" d="M556.48,480.38c.14,.55,4.8,19.68-3.27,19.68-7.24,0-5.01-12,.82-17.78,1.17-.14,1.95-.84,2.45-1.9Z"/><path class="cls-4" d="M556.48,500.06s1,17.94-6.05,20.5c-1.38-1.12-3.12-1.39-5.01-1.17-3.62-4.75,2.16-19.33,11.06-19.33Z"/><path class="cls-9" d="M553.21,544.48l-90.09,1.8c3.89-8.91,21.1-19.95,33.13-23.91h.01c4.33,.01,8.17,7.94,8.17,12.92v10.09l48.78-.9Z"/><path class="cls-9" d="M463.12,546.28l90.09-1.8c0,7.03-.14,19.28-40.48,19.28s-50.42-2.81-50.42-14.04c0-1.09,.28-2.25,.81-3.44Z"/><path d="M553.21,544.48l-48.78,.9v-10.09c0-4.98-3.84-12.91-8.17-12.92,2.9-.96,5.5-1.5,7.54-1.5,11.61,0,21.57,4.85,25.27,4.85,2.81,0,10.36-5.64,16.35-6.33,.7,.93,1.76,1.48,3.23,1.48,.64,0,1.23-.11,1.78-.31,0,0,2.78,16.9,2.78,23.92Z"/></g><g><path class="cls-3" d="M554.03,482.28c-.14,.02-.29,.03-.45,.03-6.89,0-5.26-13.4,1.95-17.56,0,0,3.12,11.07,.95,15.63-.5,1.06-1.28,1.76-2.45,1.9Z"/><path class="cls-3" d="M554.03,482.28c.76-.76,1.58-1.41,2.45-1.91h0c.14,.56,4.8,19.69-3.27,19.69-7.24,0-5.01-12,.82-17.78Z"/><path class="cls-3" d="M545.42,519.39c-3.62-4.75,2.16-19.33,11.06-19.33,0,0,1,17.94-6.05,20.5-.55,.2-1.14,.31-1.78,.31-1.47,0-2.53-.55-3.23-1.48Z"/><path class="cls-3" d="M496.26,522.37c2.9-.96,5.5-1.5,7.54-1.5,11.61,0,21.57,4.85,25.27,4.85,2.81,0,10.36-5.64,16.35-6.33,1.89-.22,3.63,.05,5.01,1.17,0,0,2.78,16.9,2.78,23.92s-.14,19.28-40.48,19.28-50.42-2.81-50.42-14.04c0-1.09,.28-2.25,.81-3.44,3.89-8.91,21.1-19.95,33.13-23.91"/><path class="cls-3" d="M463.11,546.28h.01l90.09-1.8-48.78,.9v-10.09c0-4.98-3.84-12.91-8.17-12.92h-.01"/></g></g><g><g><path class="cls-4" d="M452.62,411.17c0,3.53,1.28,13.44-2.65,16.07-1.12,0-2.1,.19-2.95,.53-5.92-1.94-5.36-29.26,3.97-29.26,0,0,1.63,8.58,1.63,12.66Z"/><path class="cls-4" d="M449.97,427.24s3.23,15.63,.19,20.21c-1.33,0-2.47,.35-3.43,.97-5-2.28-7.37-17.6,.29-20.65,.22,.08,.44,.12,.68,.12,.9,0,1.65-.23,2.27-.65Z"/><path class="cls-4" d="M450.16,447.45s4.75,24.74-2.17,24.74c-6.1,0-8.47-19.23-1.26-23.77,.4,.18,.82,.28,1.26,.28,.94,0,1.65-.46,2.17-1.25Z"/></g><g><path class="cls-3" d="M447.02,427.77c-5.92-1.94-5.36-29.26,3.97-29.26,0,0,1.63,8.58,1.63,12.66,0,3.53,1.28,13.44-2.65,16.07-.62,.42-1.37,.65-2.27,.65-.24,0-.46-.04-.68-.12Z"/><path class="cls-3" d="M449.97,427.24s3.23,15.63,.19,20.21c-.52,.79-1.23,1.25-2.17,1.25-.44,0-.86-.1-1.26-.28-5-2.28-7.37-17.6,.29-20.65,.85-.34,1.83-.53,2.95-.53Z"/><path class="cls-3" d="M450.16,447.45s4.75,24.74-2.17,24.74c-6.1,0-8.47-19.23-1.26-23.77,.96-.62,2.1-.97,3.43-.97Z"/></g></g><g><g><path class="cls-4" d="M450.8,469.82s3.12,11.07,.95,15.63h0c-.87,.49-1.69,1.14-2.45,1.9-.14,.02-.29,.03-.45,.03-6.89,0-5.26-13.4,1.95-17.56Z"/><path class="cls-4" d="M451.75,485.45c.14,.55,4.8,19.68-3.27,19.68-7.24,0-5.01-12,.82-17.78,1.17-.14,1.95-.84,2.45-1.9Z"/><path class="cls-4" d="M451.75,505.13s1,17.94-6.05,20.5c-1.38-1.12-3.12-1.39-5.01-1.17-3.62-4.75,2.16-19.33,11.06-19.33Z"/><path class="cls-9" d="M448.48,549.55l-90.09,1.8c3.89-8.91,21.1-19.95,33.13-23.91h.01c4.33,.01,8.17,7.94,8.17,12.92v10.09l48.78-.9Z"/><path class="cls-9" d="M358.39,551.35l90.09-1.8c0,7.03-.14,19.28-40.48,19.28s-50.42-2.81-50.42-14.04c0-1.09,.28-2.25,.81-3.44Z"/><path d="M448.48,549.55l-48.78,.9v-10.09c0-4.98-3.84-12.91-8.17-12.92,2.9-.96,5.5-1.5,7.54-1.5,11.61,0,21.57,4.85,25.27,4.85,2.81,0,10.36-5.64,16.35-6.33,.7,.93,1.76,1.48,3.23,1.48,.64,0,1.23-.11,1.78-.31,0,0,2.78,16.9,2.78,23.92Z"/></g><g><path class="cls-3" d="M449.3,487.35c-.14,.02-.29,.03-.45,.03-6.89,0-5.26-13.4,1.95-17.56,0,0,3.12,11.07,.95,15.63-.5,1.06-1.28,1.76-2.45,1.9Z"/><path class="cls-3" d="M449.3,487.35c.76-.76,1.58-1.41,2.45-1.91h0c.14,.56,4.8,19.69-3.27,19.69-7.24,0-5.01-12,.82-17.78Z"/><path class="cls-3" d="M440.69,524.46c-3.62-4.75,2.16-19.33,11.06-19.33,0,0,1,17.94-6.05,20.5-.55,.2-1.14,.31-1.78,.31-1.47,0-2.53-.55-3.23-1.48Z"/><path class="cls-3" d="M391.53,527.44c2.9-.96,5.5-1.5,7.54-1.5,11.61,0,21.57,4.85,25.27,4.85,2.81,0,10.36-5.64,16.35-6.33,1.89-.22,3.63,.05,5.01,1.17,0,0,2.78,16.9,2.78,23.92s-.14,19.28-40.48,19.28-50.42-2.81-50.42-14.04c0-1.09,.28-2.25,.81-3.44,3.89-8.91,21.1-19.95,33.13-23.91"/><path class="cls-3" d="M358.38,551.35h.01l90.09-1.8-48.78,.9v-10.09c0-4.98-3.84-12.91-8.17-12.92h-.01"/></g></g></svg>