<?xml version="1.0" encoding="UTF-8"?><svg id="Layer_1" xmlns="http://www.w3.org/2000/svg" viewBox="0 0 375.4 497.25"><defs><style>.cls-1{fill:#fff;}.cls-2{fill:none;stroke:#000;stroke-miterlimit:10;}.cls-3{fill:#bf2f00;}.cls-4{fill:#37913a;}.cls-5{fill:#379060;}.cls-6{fill:#00af2c;}.cls-7{fill:#024c01;}.cls-8{fill:#250100;}</style></defs><g><g><path class="cls-1" d="M372.54,142.57c.68,1.19,10.91,26.7-17.3,29.51-28.22,2.81-51.33-41.93-53.87-46.34-2.55-4.42-12.13-16.22-18.52-16.22s-11.36,1.66-11.36,1.66c-.1-19.52-109.53-55.27-113.14-55.27-2.81,0-12.77,3.64-17.39,5.92h-.01c-6.28-.02-11.29-19.35-13.71-23.54s-9.45-20.6-9.45-24.85S122.47,.5,127.15,.5s21.96,7.83,28.12,7.83,13.33-4.51,22.01-4.51,41.79,24.77,59.57,25.87c17.79,1.11,16.77-5.02,34.64-5.02s40,25.19,43.15,28.34c3.15,3.15,10.64,20.57,12.43,23.66,1.78,3.09,6.86,17.21,19.66,24.6,12.79,7.38,19.32,20.17,19.32,21.45s5.8,18.65,6.49,19.85Z"/><path class="cls-5" d="M276.85,181.4c0,6.76,3.98,24.7-1.66,34.46-5.63,9.76-21.63,23.3-24,25.66-2.36,2.37-12.74,16.04-15.7,17.75s-10.59,4.98-17.61,4.98c-6.02,0-30.43-1.96-40.24-.84,8.18-1.91,29.59-21.5,36.02-21.5,6.77,0,22.34-10.85,22.34-21.07,0-3.5-2.41-7.83-5.84-11.99,6.8,0,12.66-11.24,12.66-14.82s0-9.01,3.2-12.21c3.06-3.06,19.59-11.42,20.91-16.86,.48,2.93,9.92,10.21,9.92,16.44Z"/><path class="cls-6" d="M261.28,143.86c1.59,2.76,7.09,18.11,5.74,20.43-.11,.19-.13,.41-.09,.67-1.32,5.44-17.85,13.8-20.91,16.86-3.2,3.2-3.2,8.64-3.2,12.21s-5.86,14.82-12.66,14.82c-6.56-7.96-16.86-15.33-21.22-15.33-6.64,0-17.49,7-21.28,7s-4.38-2.53-14.47-2.53c-.47,0-.9-.03-1.29-.09-8.07-1.21-.74-14.21,4.59-14.21,5.6,0,12.28,4.34,18.02,4.34s14.56-5.87,14.56-12.38-10.87-14.28-13.57-16.98c-2.7-2.69-3.54-2.04-.73-2.04h27.96c-2.3-2.3-46.65-17.94-52.73-21.45-6.07-3.5-13.24-17.84-13.24-17.84h-.86c2.15-2.95,9.23-12.35,11.87-12.35,2.97,0,11.68-8.36,15.7-8.36s14.3,15.57,21,15.57,14.24,.32,17.24,.32,13.24,9.99,15.25,12,12.22,8.37,14.75,9.83,7.98,6.76,9.57,9.51Z"/><path class="cls-1" d="M271.49,111.18s-12.99,25.88-10.21,32.68c-1.59-2.75-7.04-8.05-9.57-9.51s-12.74-7.82-14.75-9.83-12.25-12-15.25-12-10.54-.32-17.24-.32-16.98-15.57-21-15.57-12.73,8.36-15.7,8.36c-4.6-4.59-4.79-21.89-4.79-21.89-1.7,3.79-14.04,18-14.04,18-1.24-2.14-5.49-4.96-8.28-4.96s-9.47,5.47-12.66,8.66c-2.61,2.61-11.32,5.05-17.67,7.75,0,0,7.96-9.2,10.54-10.69s8.28-4.27,8.28-7.81-.67-12.87,1.53-16.7c2.21-3.82,7.1-12.61,7.92-14.04,.18-.31,1.05-.84,2.35-1.48h.01c4.62-2.28,14.58-5.92,17.39-5.92,3.61,0,113.04,35.75,113.14,55.27Z"/><path class="cls-7" d="M88.86,202.55c5.43-7.01,21.26-15.79,24.21-15.79,3.57,0,12,4.3,15.98,4.3,0,0,10.98,7.23,13.12,8.46,2.14,1.24,6.34,7.89,10.34,7.89,4.25,0,7.92-6.01,9.29-6.8s8.39-3.04,10.1-2.71c.39,.06,.82,.09,1.29,.09,10.09,0,10.67,2.53,14.47,2.53s14.64-7,21.28-7c4.36,0,14.66,7.37,21.22,15.33,3.43,4.16,5.84,8.49,5.84,11.99,0,10.22-15.57,21.07-22.34,21.07s-27.84,19.59-36.02,21.5c-.41,.04-.79,.09-1.14,.15h-.01c-1.08,.17-1.9,.4-2.4,.69-4.63,2.67-5.62,2.67-9.19,2.67s-12.64-4.59-15.19-4.59c-6.59-2.05-13.86-4.28-15.45-12.89s-9.58-10.72-16.85-10.72-30.39-25.03-30.39-32.05c0-1.23,.69-2.63,1.84-4.12Zm103.65,31.72c0-1.02-3.93-1.62-7.23-1.62-2.08,0-7.69-.15-13-.26-.55-2.82-1.31-5.67-2.09-5.67s-2.63,2.79-3.48,5.58c-1-.01-1.92-.02-2.71-.02h-3.98c-.26-2.26-.91-4.4-2.46-4.4-1.74,0-2.89,2.11-3.25,4.4h-8.94c-2.37,0-5.27,1.56-6.42,3.56-.84,1.46,8.01,1.67,16.39,1.95,3.13,.11,6.19,.22,8.66,.41,2.48,.19,5.74,.06,9.16-.25,9.09-.83,19.35-2.94,19.35-3.68Z"/><path class="cls-4" d="M222.73,156.63h-27.96c-2.81,0-1.97-.65,.73,2.04,2.7,2.7,13.57,10.47,13.57,16.98s-8.81,12.38-14.56,12.38-12.42-4.34-18.02-4.34-12.66,13-4.59,14.21c-1.71-.33-8.73,1.92-10.1,2.71s-5.04,6.8-9.29,6.8c-4,0-8.2-6.65-10.34-7.89-2.14-1.23-13.12-8.46-13.12-8.46,3.99,0,7.25-4.18,7.25-7.88s-7.66-9.57-11.02-9.57-14.64,5.49-18.61,5.49-10.84-6.26-10.84-10.34,19.92-17.36,21.45-18.9c1.53-1.53-18.89-2.42-18.89-2.42,1.59-.92,24.38-10.21,31.66-12.26,7.27-2.04,24.67-19.7,24.67-19.7,.34,1.17,.55,2.13,.55,2.72,0,0,.23-.32,.63-.87h.86s7.17,14.35,13.24,17.85c6.08,3.51,50.43,19.15,52.73,21.45Z"/><path class="cls-8" d="M185.28,232.65c3.3,0,7.23,.6,7.23,1.62,0,.74-10.26,2.85-19.35,3.68v-.11h.02s-.35-2.71-.9-5.45c5.31,.11,10.92,.26,13,.26Z"/><path class="cls-1" d="M173.18,237.84h-5.14c-2.09-.59-2.08-3.07-1.33-5.54,1.69,.02,3.61,.05,5.57,.09,.55,2.74,.9,5.45,.9,5.45Z"/><path class="cls-8" d="M173.16,237.84v.11c-3.42,.31-6.68,.44-9.16,.25-2.47-.19-5.53-.3-8.66-.41v-.38h4.78s.19-2.63-.1-5.13h3.98c.79,0,1.71,0,2.71,.02-.75,2.47-.76,4.95,1.33,5.54h5.12Z"/><path class="cls-1" d="M170.19,226.72c.78,0,1.54,2.85,2.09,5.67-1.96-.04-3.88-.07-5.57-.09,.85-2.79,2.67-5.58,3.48-5.58Z"/><path class="cls-3" d="M162.98,83.1s.19,17.3,4.79,21.89c-2.64,0-9.72,9.4-11.87,12.34-.4,.55-.63,.87-.63,.87,0-.59-.21-1.55-.55-2.72-1.34-4.66-4.79-12.67-5.78-14.38,0,0,12.34-14.21,14.04-18Z"/><path class="cls-1" d="M160.02,232.28c.29,2.5,.1,5.13,.1,5.13h-4.85c-1-1-1.28-3.13-.96-5.13h5.71Z"/><path class="cls-1" d="M160.02,232.28h-5.71c.36-2.29,1.51-4.4,3.25-4.4,1.55,0,2.2,2.14,2.46,4.4Z"/><path class="cls-8" d="M155.34,237.41v.38c-8.38-.28-17.23-.49-16.39-1.95,1.15-2,4.05-3.56,6.42-3.56h8.94c-.32,2-.04,4.13,.96,5.13h.07Z"/><path class="cls-6" d="M148.94,101.1c.99,1.71,4.44,9.72,5.78,14.38,0,0-17.4,17.66-24.67,19.7-7.28,2.05-30.07,11.34-31.66,12.26,0,0,20.42,.89,18.89,2.42-1.53,1.54-21.45,14.81-21.45,18.9s6.86,10.34,10.84,10.34,15.24-5.49,18.61-5.49,11.02,5.88,11.02,9.57-3.26,7.88-7.25,7.88-12.41-4.3-15.98-4.3c-2.95,0-18.78,8.78-24.21,15.79,1.51-2.64,1.48-4.58,1.48-7.75s-7.4-9.83-7.4-13.27,5.66-17.34,5.83-17.78c0,0,0-.01,.01-.01,3.34-3.64,3.35-8.13,3.35-11.07,0-3.7-2.42-7.27-2.42-12.76s10.86-22.08,16.85-25.54c1.08-.63,2.37-1.23,3.77-1.82,6.35-2.7,15.06-5.14,17.67-7.75,3.19-3.19,9.87-8.66,12.66-8.66s7.04,2.82,8.28,4.96Z"/><path class="cls-5" d="M149.71,262.33c-2.56,0-9.83,2.3-14.17,2.3s-14.21-3.5-19.41-12.51-1.82-7.06-5.2-9.01-9.13-2.35-15.1-5.8c-5.96-3.44-6-7.02-6-10.72s-4.08-8.1-7.53-10.09c-3.44-1.99-7.53-4.08-7.53-8.17s4.98-5.87,4.98-10.47,1.66-12.89-1.53-16.08,.65-11.62,7.27-15.45c1.35-.78,2.42-1.65,3.28-2.58-.17,.44-5.83,14.4-5.83,17.78s7.4,10.08,7.4,13.27,.03,5.11-1.48,7.75c-1.15,1.49-1.84,2.89-1.84,4.12,0,7.02,23.11,32.05,30.39,32.05s15.26,2.11,16.85,10.72,8.86,10.84,15.45,12.89Z"/></g><g><path class="cls-2" d="M88.77,163.75c-.17,.44-5.83,14.4-5.83,17.78s7.4,10.08,7.4,13.27,.03,5.11-1.48,7.75c0,.02-.02,.03-.03,.05"/><path class="cls-2" d="M176.49,263.56c-1.08,.17-1.9,.4-2.4,.69-4.63,2.67-5.62,2.67-9.19,2.67s-12.64-4.59-15.19-4.59-9.83,2.3-14.17,2.3-14.21-3.5-19.41-12.51-1.82-7.06-5.2-9.01-9.13-2.35-15.1-5.8c-5.96-3.44-6-7.02-6-10.72s-4.08-8.1-7.53-10.09c-3.44-1.99-7.53-4.08-7.53-8.17s4.98-5.87,4.98-10.47,1.66-12.89-1.53-16.08,.65-11.62,7.27-15.45c1.35-.78,2.42-1.65,3.28-2.58,0,0,0-.01,.01-.01,3.34-3.64,3.35-8.13,3.35-11.07,0-3.7-2.42-7.27-2.42-12.76s10.86-22.08,16.85-25.54c1.08-.63,2.37-1.23,3.77-1.82,6.35-2.7,15.06-5.14,17.67-7.75,3.19-3.19,9.87-8.66,12.66-8.66s7.04,2.82,8.28,4.96c.99,1.71,4.44,9.72,5.78,14.38,.34,1.17,.55,2.13,.55,2.72,0,0,.23-.32,.63-.87,2.15-2.94,9.23-12.34,11.87-12.34,2.97,0,11.68-8.36,15.7-8.36s14.3,15.57,21,15.57,14.24,.32,17.24,.32,13.24,9.99,15.25,12,12.22,8.37,14.75,9.83,7.98,6.76,9.57,9.51c1.59,2.76,7.09,18.11,5.74,20.43-.11,.19-.13,.41-.09,.67,.48,2.93,9.92,10.21,9.92,16.44,0,6.76,3.98,24.7-1.66,34.46-5.63,9.76-21.63,23.3-24,25.66-2.36,2.37-12.74,16.04-15.7,17.75s-10.59,4.98-17.61,4.98c-6.02,0-30.43-1.96-40.24-.84-.41,.04-.79,.09-1.14,.15"/><path class="cls-2" d="M148.94,101.1s12.34-14.21,14.04-18c0,0,.19,17.3,4.79,21.89"/><path class="cls-2" d="M156.76,117.34s7.17,14.34,13.24,17.84c6.08,3.51,50.43,19.15,52.73,21.45h-27.96c-2.81,0-1.97-.65,.73,2.04,2.7,2.7,13.57,10.47,13.57,16.98s-8.81,12.38-14.56,12.38-12.42-4.34-18.02-4.34-12.66,13-4.59,14.21c.39,.06,.82,.09,1.29,.09,10.09,0,10.67,2.53,14.47,2.53s14.64-7,21.28-7c4.36,0,14.66,7.37,21.22,15.33,3.43,4.16,5.84,8.49,5.84,11.99,0,10.22-15.57,21.07-22.34,21.07s-27.84,19.59-36.02,21.5c-.41,.1-.8,.15-1.14,.15h-.01"/><path class="cls-2" d="M154.72,115.48s-17.4,17.66-24.67,19.7c-7.28,2.05-30.07,11.34-31.66,12.26,0,0,20.42,.89,18.89,2.42-1.53,1.54-21.45,14.81-21.45,18.9s6.86,10.34,10.84,10.34,15.24-5.49,18.61-5.49,11.02,5.88,11.02,9.57-3.26,7.88-7.25,7.88-12.41-4.3-15.98-4.3c-2.95,0-18.78,8.78-24.21,15.79-1.15,1.49-1.84,2.89-1.84,4.12,0,7.02,23.11,32.05,30.39,32.05s15.26,2.11,16.85,10.72,8.86,10.84,15.45,12.89"/><path class="cls-2" d="M129.05,191.06s10.98,7.23,13.12,8.46c2.14,1.24,6.34,7.89,10.34,7.89,4.25,0,7.92-6.01,9.29-6.8s8.39-3.04,10.1-2.71"/><path class="cls-2" d="M267.02,164.29c0,.22-.03,.44-.09,.67-1.32,5.44-17.85,13.8-20.91,16.86-3.2,3.2-3.2,8.64-3.2,12.21s-5.86,14.82-12.66,14.82"/><path class="cls-2" d="M140.96,61.83c4.62-2.28,14.58-5.92,17.39-5.92,3.61,0,113.04,35.75,113.14,55.27,0,0-12.99,25.88-10.21,32.68"/><path class="cls-2" d="M110.33,112.55s7.96-9.2,10.54-10.69,8.28-4.27,8.28-7.81-.67-12.87,1.53-16.7c2.21-3.82,7.1-12.61,7.92-14.04,.18-.31,1.05-.84,2.35-1.48"/><path class="cls-2" d="M271.49,111.18s4.98-1.66,11.36-1.66,15.97,11.8,18.52,16.22c2.54,4.41,25.65,49.15,53.87,46.34,28.21-2.81,17.98-28.32,17.3-29.51-.69-1.2-6.49-18.58-6.49-19.85s-6.53-14.07-19.32-21.45c-12.8-7.39-17.88-21.51-19.66-24.6-1.79-3.09-9.28-20.51-12.43-23.66-3.15-3.15-25.27-28.34-43.15-28.34s-16.85,6.13-34.64,5.02c-17.78-1.1-50.89-25.87-59.57-25.87s-15.86,4.51-22.01,4.51S131.83,.5,127.15,.5s-9.36,8.68-9.36,12.94,7.03,20.66,9.45,24.85,7.43,23.52,13.71,23.54h.01"/><path class="cls-2" d="M160.02,232.28h3.98c.79,0,1.71,0,2.71,.02,1.69,.02,3.61,.05,5.57,.09,5.31,.11,10.92,.26,13,.26,3.3,0,7.23,.6,7.23,1.62,0,.74-10.26,2.85-19.35,3.68-3.42,.31-6.68,.44-9.16,.25-2.47-.19-5.53-.3-8.66-.41-8.38-.28-17.23-.49-16.39-1.95,1.15-2,4.05-3.56,6.42-3.56h14.65Z"/><path class="cls-2" d="M173.16,237.84h.02s-.35-2.71-.9-5.45c-.55-2.82-1.31-5.67-2.09-5.67s-2.63,2.79-3.48,5.58c-.75,2.47-.76,4.95,1.33,5.54h5.12Z"/><path class="cls-2" d="M155.34,237.41h4.78s.19-2.63-.1-5.13c-.26-2.26-.91-4.4-2.46-4.4-1.74,0-2.89,2.11-3.25,4.4-.32,2-.04,4.13,.96,5.13h.07Z"/></g></g><g><g><path class="cls-5" d="M295.16,239.55c3.72-2.46,16.71,14.34,8.26,17.16-8.44,2.82-12.86-14.12-8.26-17.16Z"/><path class="cls-5" d="M285.52,202.86c1.16-.26,17.82,32.68,9.64,36.69-8.06,3.93-25.46-31.95-10.36-36.5,.23-.04,.48-.11,.72-.19Z"/><path class="cls-5" d="M278.03,186.18c3.34-2.21,15.72,13.94,7.49,16.68-.25,.05-.48,.12-.72,.19-7.72,1.58-11.09-14.02-6.77-16.87Z"/></g><g><path class="cls-2" d="M284.8,203.05c-7.72,1.58-11.09-14.02-6.77-16.87,3.34-2.21,15.72,13.94,7.49,16.68-.24,.08-.49,.15-.72,.19Z"/><path class="cls-2" d="M285.52,202.86c1.16-.26,17.82,32.68,9.64,36.69-8.06,3.93-25.46-31.95-10.36-36.5,.24-.07,.47-.13,.72-.19Z"/><path class="cls-2" d="M295.16,239.55c3.72-2.46,16.71,14.34,8.26,17.16-8.44,2.82-12.86-14.12-8.26-17.16Z"/></g></g><g><g><path class="cls-3" d="M314.33,305.03c1.33,1.14,15.9,11.89,5.02,33.67,0,0-18.05-16.25-6.68-39.01l.21-.03c0,.84-.36,3.85,1.44,5.37Z"/><path class="cls-5" d="M313.18,287.78c2.7,1.35,2.59,11.22-.29,11.87,0-.28-.04-.32-.21,.03-2.92,.17-14.36-18.14-1.42-12.79,.82,.69,1.5,1.03,1.93,.89Z"/><path class="cls-5" d="M308.87,271.33c3.25,1.1,7.25,15.47,4.31,16.45-.7-.35-1.34-.65-1.93-.89-4.4-3.68-12.62-17.15-4.77-16.16,.92,.55,1.77,.8,2.39,.59Z"/><path class="cls-5" d="M303.42,256.71c2.76-1.48,8.7,13.53,5.45,14.62-.93-.32-1.71-.51-2.39-.59-4-2.39-9.42-10.62-3.06-14.03Z"/></g><g><path class="cls-2" d="M306.48,270.74c-4-2.39-9.42-10.62-3.06-14.03,2.76-1.48,8.7,13.53,5.45,14.62-.62,.21-1.47-.04-2.39-.59Z"/><path class="cls-2" d="M308.87,271.33c3.25,1.1,7.25,15.47,4.31,16.45-.43,.14-1.11-.2-1.93-.89-4.4-3.68-12.62-17.15-4.77-16.16,.68,.08,1.46,.27,2.39,.59Z"/><path class="cls-2" d="M313.18,287.78c2.7,1.35,2.59,11.22-.29,11.87l-.21,.03c-2.92,.17-14.36-18.14-1.42-12.79,.59,.24,1.23,.54,1.93,.89Z"/><path class="cls-2" d="M312.67,299.68c.17-.35,.21-.31,.21-.03,0,.84-.36,3.85,1.44,5.37,1.33,1.14,15.9,11.89,5.02,33.67,0,0-18.05-16.25-6.68-39.01Z"/></g></g><g><g><path class="cls-5" d="M79.6,174.64c6.53,1.48,5.6,30.13-5.1,32.41-10.7,2.27,2.79-32.93,5.1-32.41Z"/><path class="cls-5" d="M57.07,234.04c-1.31-10.32,10.98-45.48,13.22-29.16,.2,1.5,7.13,35.37-11.63,31.89-.86-.16-1.35-1.07-1.57-2.5,.11-.26,.11-.34-.02-.22Z"/><path class="cls-5" d="M56.49,235.48c-.85,5.37,3.12,22.23,2.62,23.79-.57,1.75-10.36-1.33-12.07-3.23-1.38-1.53,6.97-15.86,9.45-20.56Z"/></g><g><path class="cls-2" d="M79.6,174.64c-2.31-.52-15.79,34.68-5.1,32.41,10.69-2.28,11.62-30.93,5.1-32.41Z"/><path class="cls-2" d="M57.07,234.04c-1.31-10.32,10.98-45.48,13.22-29.16,.2,1.5,7.13,35.37-11.63,31.89-.86-.16-1.35-1.07-1.57-2.5-.01-.07-.02-.14-.02-.22Z"/><path class="cls-2" d="M56.49,235.48c.11-.69,.3-1.18,.58-1.44,.13-.12,.13-.04,.02,.22-.1,.25-.31,.67-.6,1.21"/><path class="cls-2" d="M56.49,235.48c-2.48,4.71-10.83,19.03-9.45,20.56,1.71,1.9,11.5,4.97,12.07,3.23,.5-1.55-3.46-18.42-2.62-23.79Z"/></g></g><g><g><path class="cls-5" d="M50.33,257.91c2.95,.16,7.73,9.65,4.94,9.51-1-.05-4.42-1.41-7.51-3.1-.36-.32-.91-.64-1.57-.9-4.7-2.86-7.26-6.1,4.14-5.5Z"/><path class="cls-5" d="M47.75,264.32c6.45,5.88,4.97,11-5.73,3.57-9.28-6.44-.17-6.25,4.17-4.48,.49,.31,1.02,.61,1.57,.9Z"/><path class="cls-5" d="M42.02,267.89c7.31,5.33,6.03,14.96-5.6,6.62-11.62-8.32,3.61-8.07,5.6-6.62Z"/><path class="cls-5" d="M36.43,274.52c15.16,11.01,10.35,19.9-3.03,10.76-14.18-9.69-2.09-14.47,3.03-10.76Z"/><path class="cls-3" d="M33.4,285.28c10.46,7.42,.03,21.15-3,23.88s-14.95,5.78-16.98,7.6-10.06,4.71-11.77,2.82-1.63-7.03,1.15-9.53,1.94-12.59,8.39-18.4,18.6-8.93,22.21-6.37Z"/></g><g><path class="cls-2" d="M46.19,263.42c-4.7-2.86-7.26-6.1,4.14-5.5,2.95,.16,7.73,9.65,4.94,9.51-1-.05-4.42-1.41-7.51-3.1-.54-.29-1.07-.59-1.57-.9Z"/><path class="cls-2" d="M47.75,264.32c-.36-.32-.91-.64-1.57-.9-4.34-1.77-13.45-1.97-4.17,4.48,10.7,7.43,12.18,2.3,5.73-3.57Z"/><path class="cls-2" d="M42.02,267.89c-1.98-1.44-17.22-1.7-5.6,6.62,11.62,8.34,12.91-1.3,5.6-6.62Z"/><path class="cls-2" d="M36.43,274.52c-5.12-3.71-17.21,1.07-3.03,10.76,13.38,9.14,18.18,.25,3.03-10.76Z"/><path class="cls-2" d="M33.4,285.28c-3.61-2.56-15.76,.56-22.21,6.37s-5.62,15.9-8.39,18.4-2.85,7.64-1.15,9.53,9.75-1,11.77-2.82,13.94-4.87,16.98-7.6,13.46-16.46,3-23.88Z"/></g></g><g><g><path class="cls-5" d="M214.65,336.82c1.77,1.03,7.4,24.26,1.27,24.26-5.67,0-13.53-27.48-3.93-25.37,.89,.71,1.79,1.11,2.66,1.11Z"/><path class="cls-5" d="M207.74,313.26c.87,.72,1.64,1.01,2.23,.67,2.09,.95,12,22.89,4.68,22.89-1.01-.58-1.89-.94-2.66-1.11-6.04-4.75-11.55-23.22-4.25-22.45Z"/><path class="cls-5" d="M201.54,289.88c2.9,0,12.4,21.75,8.43,24.05-.85-.39-1.59-.61-2.23-.67-5.05-4.22-13.31-23.38-6.2-23.38Z"/><path class="cls-5" d="M195.28,259.95c3.45,.17,16.47,21.13,8.73,28.87-.76,.76-1.59,1.09-2.47,1.06-8.05-.26-19.53-30.56-6.26-29.93Z"/></g><g><path class="cls-2" d="M195.28,259.95c3.45,.17,16.47,21.13,8.73,28.87-.76,.76-1.59,1.09-2.47,1.06-8.05-.26-19.53-30.56-6.26-29.93Z"/><path class="cls-2" d="M201.54,289.88c2.9,0,12.4,21.75,8.43,24.05-.59,.34-1.36,.05-2.23-.67-5.05-4.22-13.31-23.38-6.2-23.38Z"/><path class="cls-2" d="M209.97,313.93c2.09,.95,12,22.89,4.68,22.89-.87,0-1.77-.4-2.66-1.11-6.04-4.75-11.55-23.22-4.25-22.45,.64,.06,1.38,.28,2.23,.67Z"/><path class="cls-2" d="M214.65,336.82c1.77,1.03,7.4,24.26,1.27,24.26-5.67,0-13.53-27.48-3.93-25.37,.77,.17,1.65,.53,2.66,1.11Z"/></g></g><g><g><path class="cls-5" d="M254.73,430.1c2.36-1.36,7.93,15.2,2.73,18.21-.6,.35-1.25,.46-1.92,.37-1.05-1.04-2.15-1.64-3.26-1.89-3.57-3.78-5.37-12.18,2.45-16.69Z"/><path class="cls-1" d="M279.43,483.24l20.31,12.18c-11.34,7.27-46.04-17.51-49.09-19.28-3.16-1.82-13.62-12.68-13.62-15.57,0-.46,.27-1.28,.77-2.3l41.63,24.97Z"/><path class="cls-1" d="M302.05,474.69c3.22,1.86,8.77,9.88-1.19,19.83-.34,.34-.72,.64-1.12,.9l-20.31-12.18h0s-1.13-6,0-7.95,6.56-6.86,10.93-5.23c5.15,1.91,10.08,3.7,11.69,4.63Z"/><path d="M277.46,464.74c2.37,1.36,7.73,3.4,12.9,5.32-4.37-1.63-9.8,3.28-10.93,5.23s0,7.94,0,7.94h0l-41.63-24.96c2.15-4.5,8.55-12.87,14.48-11.48,1.01,1.06,2.15,1.75,3.26,1.89l.03,.03c2.33,2.34,6.74,0,9.29,0s7.87,13.3,12.6,16.03Z"/><path class="cls-5" d="M242.9,404.31c3.17-.99,16.04,23.36,11.83,25.79-4.14,2.4-30.1-19.24-12.57-25.54,.01,0,.01-.01,.02-.01,.32,0,.56-.08,.72-.24Z"/><path class="cls-5" d="M226.9,378.61c2.43-.78,18.9,22.81,16,25.7-.25,.08-.49,.16-.72,.24-.01,0-.01,.01-.02,.01-5.42,.13-31.62-20.3-15.58-25.84,.12-.02,.22-.06,.32-.11Z"/><path class="cls-5" d="M218.67,356.33c1.46-2.53,11.18,20.58,8.23,22.28-.11,.04-.22,.07-.32,.11-3.37,.75-14.15-11.59-7.91-22.39Z"/></g><g><path class="cls-2" d="M226.58,378.72c-3.37,.75-14.15-11.59-7.91-22.39,1.46-2.53,11.18,20.58,8.23,22.28-.1,.05-.2,.09-.32,.11Z"/><path class="cls-2" d="M242.16,404.56c-5.42,.13-31.62-20.3-15.58-25.84,.1-.04,.21-.07,.32-.11,2.43-.78,18.9,22.81,16,25.7-.16,.16-.4,.24-.72,.24"/><path class="cls-2" d="M242.9,404.31c3.17-.99,16.04,23.36,11.83,25.79-4.14,2.4-30.1-19.24-12.57-25.54,.01,0,.01-.01,.02-.01,.23-.08,.47-.16,.72-.24Z"/><path class="cls-2" d="M254.73,430.1c2.36-1.36,7.93,15.2,2.73,18.21-.6,.35-1.25,.46-1.92,.37-1.11-.14-2.25-.83-3.26-1.89-3.57-3.78-5.37-12.18,2.45-16.69Z"/><path class="cls-2" d="M255.54,448.68l.03,.03c2.33,2.34,6.74,0,9.29,0s7.87,13.3,12.6,16.03c2.37,1.36,7.73,3.4,12.9,5.32,5.15,1.91,10.08,3.7,11.69,4.63,3.22,1.86,8.77,9.88-1.19,19.83-.34,.34-.72,.64-1.12,.9-11.34,7.27-46.04-17.51-49.09-19.28-3.16-1.82-13.62-12.68-13.62-15.57,0-.46,.27-1.28,.77-2.3,2.15-4.5,8.55-12.87,14.48-11.48,1.11,.25,2.21,.85,3.26,1.89Z"/><polyline class="cls-2" points="237.79 458.27 237.8 458.27 279.43 483.24 299.74 495.42"/><path class="cls-2" d="M279.43,483.23s-1.13-5.99,0-7.94,6.56-6.86,10.93-5.23"/></g></g><g><g><path class="cls-5" d="M124.64,342.2c2.06,2.57-1.9,25.9-6.92,23.01-5.31-3.07,3.57-23.24,6.5-23.24,.14,.08,.28,.16,.42,.23Z"/><path class="cls-5" d="M124.44,309.46c4.48,11.9,9.68,37.57,.2,32.74-.12-.15-.26-.23-.42-.23-12.94-7.47-8.09-38.27-3.18-38.31,1.05,2.12,2.23,4.12,3.4,5.8Z"/><path class="cls-5" d="M126,285.57c2.89,2.7,6.65,26.72,3.58,28.5-.89,.52-2.97-1.47-5.14-4.61-1.32-3.49-2.58-5.8-3.39-5.8h0c-4.15-8.42-6.1-18.76,4.47-18.34,.16,.1,.32,.18,.49,.25Z"/><path class="cls-5" d="M134.44,261.29c10.46,1.13,18.49,24.77-6,24.77-.92,0-1.73-.17-2.44-.49-.17-.16-.33-.24-.49-.25-7.37-4.22-2.33-25.24,8.93-24.03Z"/></g><g><path class="cls-2" d="M125.51,285.32c-7.37-4.22-2.33-25.24,8.93-24.03,10.46,1.13,18.49,24.77-6,24.77-.92,0-1.73-.17-2.44-.49-.17-.07-.33-.15-.49-.25Z"/><path class="cls-2" d="M125.51,285.32c.16,.01,.32,.09,.49,.25,2.89,2.7,6.65,26.72,3.58,28.5-.89,.52-2.97-1.47-5.14-4.61-1.17-1.68-2.35-3.68-3.4-5.8-4.15-8.42-6.1-18.76,4.47-18.34Z"/><path class="cls-2" d="M124.44,309.46c-1.32-3.49-2.58-5.8-3.39-5.8h0c-4.91,.04-9.76,30.84,3.18,38.31,.14,.08,.28,.16,.42,.23,9.48,4.83,4.28-20.84-.2-32.74Z"/><path class="cls-2" d="M124.22,341.97c.16,0,.3,.08,.42,.23,2.06,2.57-1.9,25.9-6.92,23.01-5.31-3.07,3.57-23.24,6.5-23.24Z"/></g></g><g><g><path class="cls-1" d="M43.41,460.06v6.75h-13.35c-.96-1.55-1.45-3.09-1.45-4.21,0-1.87,2.24-5.53,4.75-8.38,.08-.11,.17-.2,.26-.29,2.81-2.7,9.79,3.78,9.79,6.13Z"/><path class="cls-1" d="M43.41,466.81h40.93c-1.52,4.97-6.4,6.07-11.12,6.07H40.66c-5.12,0-8.75-3.05-10.6-6.07h13.35Z"/><path d="M57.46,450.23c4.34,0,12.89-9.45,14.82-9.45h.03c-.37,5.8,2.65,13.23,7.61,12.51,1.39-.2,2.44-.77,3.19-1.58h.01c3.19-1.57,1.71,3.5,1.71,11.54,0,1.37-.17,2.55-.49,3.56H43.41v-6.75c0-2.35-6.98-8.83-9.79-6.13,1.9-2.1,3.91-3.7,5.2-3.7h18.64Z"/><path class="cls-5" d="M79.92,434.73c3.21,1.26,7.26,12.66,3.19,16.98-.75,.81-1.8,1.38-3.19,1.58-4.96,.72-7.98-6.71-7.61-12.51,.25-3.92,2.04-7.09,5.81-6.54,.59,.28,1.17,.43,1.74,.47,.02,0,.04,.01,.06,.02Z"/><path class="cls-5" d="M92.57,408.5c2.25,4.24-4.48,26.86-12.71,26.21-.63-.24-1.2-.4-1.74-.47-.67-.33-1.35-.82-2.03-1.5-10.08-10.09,9.05-31.74,16.2-24.63h0c.08,.15,.17,.27,.27,.39Z"/><path class="cls-5" d="M103.94,386.74c.44,7.46-3.24,22.64-9.46,22.64-.81,0-1.44-.32-1.91-.88-.08-.15-.17-.28-.27-.38h0c-3.54-5.75,4.15-28.88,10.36-25.3-.48,2.03-.54,3.55,0,4.09,.3,.3,.74,.21,1.29-.17Z"/><path class="cls-5" d="M116.06,364.25c1.35,.91-8.13,19.68-12.12,22.49-.11-2.03-.54-3.49-1.29-3.92,1.74-7.41,9.06-21.51,13.41-18.57Z"/></g><g><path class="cls-2" d="M102.65,382.82c1.74-7.41,9.06-21.51,13.41-18.57,1.35,.91-8.13,19.68-12.12,22.49-.55,.38-.99,.47-1.29,.17-.54-.54-.48-2.06,0-4.09Z"/><path class="cls-2" d="M92.29,408.11c-3.54-5.74,4.15-28.87,10.36-25.29,.75,.43,1.18,1.89,1.29,3.92,.44,7.46-3.24,22.64-9.46,22.64-.81,0-1.44-.32-1.91-.88-.1-.12-.19-.24-.27-.38"/><path class="cls-2" d="M92.3,408.12c.1,.1,.19,.23,.27,.38,2.25,4.24-4.48,26.86-12.71,26.21-.57-.04-1.15-.19-1.74-.47-.67-.33-1.35-.82-2.03-1.5-10.08-10.09,9.05-31.74,16.2-24.63h0Z"/><path class="cls-2" d="M79.86,434.71s.04,.01,.06,.02c3.21,1.26,7.26,12.66,3.19,16.98-.75,.81-1.8,1.38-3.19,1.58-4.96,.72-7.98-6.71-7.61-12.51,.25-3.92,2.04-7.09,5.81-6.54,.54,.07,1.11,.23,1.74,.47Z"/><path class="cls-2" d="M33.36,454.22c-2.51,2.85-4.75,6.51-4.75,8.38,0,1.12,.49,2.66,1.45,4.21,1.85,3.02,5.48,6.07,10.6,6.07h32.56c4.72,0,9.6-1.1,11.12-6.07,.32-1.01,.49-2.19,.49-3.56,0-8.04,1.48-13.11-1.71-11.53"/><path class="cls-2" d="M72.28,440.78c-1.93,0-10.48,9.45-14.82,9.45h-18.64c-1.29,0-3.3,1.6-5.2,3.7"/><path class="cls-2" d="M30.06,466.81h13.35v-6.75c0-2.35-6.98-8.83-9.79-6.13-.09,.09-.18,.18-.26,.29"/><line class="cls-2" x1="84.34" y1="466.81" x2="43.41" y2="466.81"/></g></g><g><line class="cls-2" x1="168.46" y1="149.17" x2="185.76" y2="167.62"/><line class="cls-2" x1="185.76" y1="149.43" x2="168.46" y2="165"/></g><g><line class="cls-2" x1="128.36" y1="149.17" x2="145.66" y2="167.62"/><line class="cls-2" x1="145.66" y1="149.43" x2="128.36" y2="165"/></g></svg>