<?xml version="1.0" encoding="UTF-8"?><svg id="Layer_2" xmlns="http://www.w3.org/2000/svg" viewBox="0 0 322.93 396.6"><defs><style>.cls-1{fill:none;stroke:#000;stroke-miterlimit:10;}.cls-2{fill:#379060;}</style></defs><g id="ExtraArmLength"><g><g><path class="cls-2" d="M65.66,347.11s3.68,8.66,3.68,11.04-4.81,10.68-8.22,10.68-3.44-5.4-3.44-6.6,1.44-5.27,2.25-6.68c.7-1.22,3.97-6.37,5.28-7.98,.05-.06,.11-.12,.16-.17,.1-.1,.19-.2,.29-.29Z"/><path class="cls-2" d="M62.4,327.68c0-1.66,3.98-8.63,4.33-7.11,0,0,3.16,4.6,3.16,6.17,0,.93-1.55,3.65-3.14,5.75,0,0,0,.01-.01,.01-.1,.13-.2,.27-.3,.39-.04,.05-.09,.1-.13,.16-.43,.47-1.08,1.13-1.79,1.81-.24,.18-.46,.27-.63,.27-1.49,0-1.49-5.79-1.49-7.45Z"/><path class="cls-2" d="M65.21,347.57c-1.4,1.46-2.89,3.43-3.87,3.43-1.36,0-2.98-3.92-2.98-5.45s1.6-7.11,2.76-7.78c.64-.37,2.11-1.67,3.4-2.91,.51-.33,1.14-1,1.79-1.81,.04-.06,.09-.11,.13-.16,.15-.17,.25-.3,.3-.39,.01,0,.01-.01,.01-.01,0,0,4.59,4.72,4.59,7.15s-2.89,5.61-4.59,6.59c-.34,.2-.71,.51-1.09,.88-.07,.04-.17,.14-.29,.29-.05,.05-.11,.11-.16,.17Z"/></g><g><path class="cls-1" d="M65.37,347.4c.12-.15,.22-.25,.29-.29"/><path class="cls-1" d="M65.66,347.11s3.68,8.66,3.68,11.04-4.81,10.68-8.22,10.68-3.44-5.4-3.44-6.6,1.44-5.27,2.25-6.68c.7-1.22,3.97-6.37,5.28-7.98"/><path class="cls-1" d="M66.44,332.89c.15-.17,.25-.3,.3-.39"/><path class="cls-1" d="M66.75,332.49s4.59,4.72,4.59,7.15-2.89,5.61-4.59,6.59c-.34,.2-.71,.51-1.09,.88-.1,.09-.19,.19-.29,.29-.05,.05-.11,.11-.16,.17-1.4,1.46-2.89,3.43-3.87,3.43-1.36,0-2.98-3.92-2.98-5.45s1.6-7.11,2.76-7.78c.64-.37,2.11-1.67,3.4-2.91,.71-.68,1.36-1.34,1.79-1.81"/><path class="cls-1" d="M66.73,320.57s3.16,4.6,3.16,6.17c0,.93-1.55,3.65-3.14,5.75,0,0,0,.01-.01,.01-.1,.13-.2,.27-.3,.39-.04,.05-.09,.1-.13,.16-.65,.81-1.28,1.48-1.79,1.81-.24,.18-.46,.27-.63,.27-1.49,0-1.49-5.79-1.49-7.45s3.98-8.63,4.33-7.11"/></g></g></g></svg>