<?xml version="1.0" encoding="UTF-8"?><svg id="Layer_2" xmlns="http://www.w3.org/2000/svg" viewBox="0 0 1920.5 1080"><defs><style>.cls-1{letter-spacing:0em;}.cls-2{letter-spacing:-.08em;}.cls-3{letter-spacing:-.04em;}.cls-4{letter-spacing:-.02em;}.cls-5{letter-spacing:-.07em;}.cls-6{fill:#fff;stroke:#fff;stroke-miterlimit:10;}.cls-7{font-size:72px;}.cls-7,.cls-8{font-family:MyriadPro-Regular, 'Myriad Pro';}.cls-9{letter-spacing:-.04em;}.cls-8{font-size:66.99px;}</style></defs><g><path class="cls-6" d="M657.12,672.41c0,73.24-113.77,132.62-254.11,132.62-64.98,0-124.27-12.73-169.2-33.67-13.33-6.21-221.82,69.79-232.4,62.25-15.39-10.97,168.81-106.15,160.42-119.31-8.39-13.16-12.93-27.25-12.93-41.88,0-73.24,113.77-132.62,254.11-132.62s254.11,59.37,254.11,132.62Z"/><text class="cls-8" transform="translate(196.16 658.31)"><tspan x="0" y="0">ANGUS!</tspan><tspan class="cls-9" x="220.13" y="0"> </tspan><tspan x="231.92" y="0">WHERE</tspan><tspan x="0" y="80.39">IS</tspan><tspan class="cls-3" x="49.04" y="80.39"> </tspan><tspan x="60.49" y="80.39">THE </tspan><tspan class="cls-2" x="184.62" y="80.39">P</tspan><tspan class="cls-1" x="214.63" y="80.39">AS</tspan><tspan class="cls-5" x="288.66" y="80.39">T</tspan><tspan class="cls-1" x="316.93" y="80.39">A?</tspan></text></g><g><path class="cls-6" d="M1315.89,840.13c0,70.21,103.81,127.13,231.87,127.13,59.3,0,113.39-12.2,154.39-32.28,12.16-5.95,202.41,66.9,212.06,59.67,14.04-10.51-154.04-101.76-146.38-114.38,7.65-12.62,11.8-26.12,11.8-40.15,0-70.21-103.81-127.13-231.87-127.13s-231.87,56.92-231.87,127.13Z"/><text class="cls-7" transform="translate(1417.51 866.6)"><tspan class="cls-4" x="0" y="0">C</tspan><tspan x="40.25" y="0">OMING</tspan></text></g></svg>